%TF.GenerationSoftware,KiCad,Pcbnew,10.0.1-1.fc44*%
%TF.CreationDate,2026-05-23T21:29:30+02:00*%
%TF.ProjectId,VFD-disp,5646442d-6469-4737-902e-6b696361645f,rev?*%
%TF.SameCoordinates,Original*%
%TF.FileFunction,Copper,L1,Top*%
%TF.FilePolarity,Positive*%
%FSLAX46Y46*%
G04 Gerber Fmt 4.6, Leading zero omitted, Abs format (unit mm)*
G04 Created by KiCad (PCBNEW 10.0.1-1.fc44) date 2026-05-23 21:29:30*
%MOMM*%
%LPD*%
G01*
G04 APERTURE LIST*
G04 Aperture macros list*
%AMRoundRect*
0 Rectangle with rounded corners*
0 $1 Rounding radius*
0 $2 $3 $4 $5 $6 $7 $8 $9 X,Y pos of 4 corners*
0 Add a 4 corners polygon primitive as box body*
4,1,4,$2,$3,$4,$5,$6,$7,$8,$9,$2,$3,0*
0 Add four circle primitives for the rounded corners*
1,1,$1+$1,$2,$3*
1,1,$1+$1,$4,$5*
1,1,$1+$1,$6,$7*
1,1,$1+$1,$8,$9*
0 Add four rect primitives between the rounded corners*
20,1,$1+$1,$2,$3,$4,$5,0*
20,1,$1+$1,$4,$5,$6,$7,0*
20,1,$1+$1,$6,$7,$8,$9,0*
20,1,$1+$1,$8,$9,$2,$3,0*%
G04 Aperture macros list end*
%TA.AperFunction,SMDPad,CuDef*%
%ADD10RoundRect,0.250000X0.450000X-0.262500X0.450000X0.262500X-0.450000X0.262500X-0.450000X-0.262500X0*%
%TD*%
%TA.AperFunction,SMDPad,CuDef*%
%ADD11R,2.790000X1.190000*%
%TD*%
%TA.AperFunction,SMDPad,CuDef*%
%ADD12RoundRect,0.250000X-0.650000X-2.450000X0.650000X-2.450000X0.650000X2.450000X-0.650000X2.450000X0*%
%TD*%
%TA.AperFunction,SMDPad,CuDef*%
%ADD13RoundRect,0.250000X0.262500X0.450000X-0.262500X0.450000X-0.262500X-0.450000X0.262500X-0.450000X0*%
%TD*%
%TA.AperFunction,SMDPad,CuDef*%
%ADD14RoundRect,0.150000X-0.587500X-0.150000X0.587500X-0.150000X0.587500X0.150000X-0.587500X0.150000X0*%
%TD*%
%TA.AperFunction,SMDPad,CuDef*%
%ADD15RoundRect,0.250000X1.000000X0.900000X-1.000000X0.900000X-1.000000X-0.900000X1.000000X-0.900000X0*%
%TD*%
%TA.AperFunction,SMDPad,CuDef*%
%ADD16RoundRect,0.250000X0.475000X-0.250000X0.475000X0.250000X-0.475000X0.250000X-0.475000X-0.250000X0*%
%TD*%
%TA.AperFunction,SMDPad,CuDef*%
%ADD17RoundRect,0.093750X0.093750X-0.156250X0.093750X0.156250X-0.093750X0.156250X-0.093750X-0.156250X0*%
%TD*%
%TA.AperFunction,SMDPad,CuDef*%
%ADD18RoundRect,0.075000X0.075000X-0.250000X0.075000X0.250000X-0.075000X0.250000X-0.075000X-0.250000X0*%
%TD*%
%TA.AperFunction,SMDPad,CuDef*%
%ADD19RoundRect,0.250000X-0.262500X-0.450000X0.262500X-0.450000X0.262500X0.450000X-0.262500X0.450000X0*%
%TD*%
%TA.AperFunction,SMDPad,CuDef*%
%ADD20RoundRect,0.250000X-0.325000X-0.650000X0.325000X-0.650000X0.325000X0.650000X-0.325000X0.650000X0*%
%TD*%
%TA.AperFunction,SMDPad,CuDef*%
%ADD21RoundRect,0.250000X0.250000X0.475000X-0.250000X0.475000X-0.250000X-0.475000X0.250000X-0.475000X0*%
%TD*%
%TA.AperFunction,SMDPad,CuDef*%
%ADD22RoundRect,0.087500X-0.725000X-0.087500X0.725000X-0.087500X0.725000X0.087500X-0.725000X0.087500X0*%
%TD*%
%TA.AperFunction,SMDPad,CuDef*%
%ADD23RoundRect,0.243750X0.456250X-0.243750X0.456250X0.243750X-0.456250X0.243750X-0.456250X-0.243750X0*%
%TD*%
%TA.AperFunction,SMDPad,CuDef*%
%ADD24RoundRect,0.150000X0.150000X-0.512500X0.150000X0.512500X-0.150000X0.512500X-0.150000X-0.512500X0*%
%TD*%
%TA.AperFunction,SMDPad,CuDef*%
%ADD25RoundRect,0.250000X-1.250000X-0.550000X1.250000X-0.550000X1.250000X0.550000X-1.250000X0.550000X0*%
%TD*%
%TA.AperFunction,SMDPad,CuDef*%
%ADD26RoundRect,0.150000X0.512500X0.150000X-0.512500X0.150000X-0.512500X-0.150000X0.512500X-0.150000X0*%
%TD*%
%TA.AperFunction,ComponentPad*%
%ADD27R,1.700000X1.700000*%
%TD*%
%TA.AperFunction,ComponentPad*%
%ADD28C,1.700000*%
%TD*%
%TA.AperFunction,SMDPad,CuDef*%
%ADD29RoundRect,0.100000X-0.100000X0.637500X-0.100000X-0.637500X0.100000X-0.637500X0.100000X0.637500X0*%
%TD*%
%TA.AperFunction,SMDPad,CuDef*%
%ADD30RoundRect,0.250000X-0.475000X0.250000X-0.475000X-0.250000X0.475000X-0.250000X0.475000X0.250000X0*%
%TD*%
%TA.AperFunction,SMDPad,CuDef*%
%ADD31RoundRect,0.250000X0.900000X-1.000000X0.900000X1.000000X-0.900000X1.000000X-0.900000X-1.000000X0*%
%TD*%
%TA.AperFunction,SMDPad,CuDef*%
%ADD32RoundRect,0.250000X-2.050000X-0.300000X2.050000X-0.300000X2.050000X0.300000X-2.050000X0.300000X0*%
%TD*%
%TA.AperFunction,SMDPad,CuDef*%
%ADD33RoundRect,0.250002X-4.449998X-5.149998X4.449998X-5.149998X4.449998X5.149998X-4.449998X5.149998X0*%
%TD*%
%TA.AperFunction,SMDPad,CuDef*%
%ADD34RoundRect,0.150000X-0.150000X0.875000X-0.150000X-0.875000X0.150000X-0.875000X0.150000X0.875000X0*%
%TD*%
%TA.AperFunction,SMDPad,CuDef*%
%ADD35RoundRect,0.250000X-0.450000X0.262500X-0.450000X-0.262500X0.450000X-0.262500X0.450000X0.262500X0*%
%TD*%
%TA.AperFunction,SMDPad,CuDef*%
%ADD36RoundRect,0.250000X-0.400000X-0.600000X0.400000X-0.600000X0.400000X0.600000X-0.400000X0.600000X0*%
%TD*%
%TA.AperFunction,SMDPad,CuDef*%
%ADD37R,1.300000X1.550000*%
%TD*%
%TA.AperFunction,SMDPad,CuDef*%
%ADD38RoundRect,0.150000X-0.150000X0.725000X-0.150000X-0.725000X0.150000X-0.725000X0.150000X0.725000X0*%
%TD*%
%TA.AperFunction,SMDPad,CuDef*%
%ADD39RoundRect,0.250000X-0.550000X1.250000X-0.550000X-1.250000X0.550000X-1.250000X0.550000X1.250000X0*%
%TD*%
%TA.AperFunction,ComponentPad*%
%ADD40C,0.700000*%
%TD*%
%TA.AperFunction,ComponentPad*%
%ADD41C,4.400000*%
%TD*%
%TA.AperFunction,SMDPad,CuDef*%
%ADD42RoundRect,0.250000X-0.250000X-0.475000X0.250000X-0.475000X0.250000X0.475000X-0.250000X0.475000X0*%
%TD*%
%TA.AperFunction,SMDPad,CuDef*%
%ADD43R,3.500000X3.550000*%
%TD*%
%TA.AperFunction,SMDPad,CuDef*%
%ADD44RoundRect,0.250000X0.785000X1.045000X-0.785000X1.045000X-0.785000X-1.045000X0.785000X-1.045000X0*%
%TD*%
%TA.AperFunction,SMDPad,CuDef*%
%ADD45RoundRect,0.250000X1.250000X0.550000X-1.250000X0.550000X-1.250000X-0.550000X1.250000X-0.550000X0*%
%TD*%
%TA.AperFunction,SMDPad,CuDef*%
%ADD46RoundRect,0.250000X2.450000X-0.650000X2.450000X0.650000X-2.450000X0.650000X-2.450000X-0.650000X0*%
%TD*%
%TA.AperFunction,SMDPad,CuDef*%
%ADD47RoundRect,0.250000X2.050000X0.300000X-2.050000X0.300000X-2.050000X-0.300000X2.050000X-0.300000X0*%
%TD*%
%TA.AperFunction,SMDPad,CuDef*%
%ADD48RoundRect,0.250000X2.025000X2.375000X-2.025000X2.375000X-2.025000X-2.375000X2.025000X-2.375000X0*%
%TD*%
%TA.AperFunction,SMDPad,CuDef*%
%ADD49RoundRect,0.250002X4.449998X5.149998X-4.449998X5.149998X-4.449998X-5.149998X4.449998X-5.149998X0*%
%TD*%
%TA.AperFunction,SMDPad,CuDef*%
%ADD50RoundRect,0.250000X-1.000000X-0.900000X1.000000X-0.900000X1.000000X0.900000X-1.000000X0.900000X0*%
%TD*%
%TA.AperFunction,SMDPad,CuDef*%
%ADD51RoundRect,0.250000X0.650000X2.450000X-0.650000X2.450000X-0.650000X-2.450000X0.650000X-2.450000X0*%
%TD*%
%TA.AperFunction,SMDPad,CuDef*%
%ADD52RoundRect,0.050000X-0.285000X-0.100000X0.285000X-0.100000X0.285000X0.100000X-0.285000X0.100000X0*%
%TD*%
%TA.AperFunction,SMDPad,CuDef*%
%ADD53RoundRect,0.062500X0.275000X0.062500X-0.275000X0.062500X-0.275000X-0.062500X0.275000X-0.062500X0*%
%TD*%
%TA.AperFunction,SMDPad,CuDef*%
%ADD54RoundRect,0.062500X0.062500X0.275000X-0.062500X0.275000X-0.062500X-0.275000X0.062500X-0.275000X0*%
%TD*%
%TA.AperFunction,HeatsinkPad*%
%ADD55R,1.450000X1.450000*%
%TD*%
%TA.AperFunction,SMDPad,CuDef*%
%ADD56R,2.000000X4.500000*%
%TD*%
%TA.AperFunction,SMDPad,CuDef*%
%ADD57RoundRect,0.250000X-0.850000X-0.350000X0.850000X-0.350000X0.850000X0.350000X-0.850000X0.350000X0*%
%TD*%
%TA.AperFunction,SMDPad,CuDef*%
%ADD58RoundRect,0.250000X-1.275000X-1.125000X1.275000X-1.125000X1.275000X1.125000X-1.275000X1.125000X0*%
%TD*%
%TA.AperFunction,SMDPad,CuDef*%
%ADD59RoundRect,0.249997X-2.950003X-2.650003X2.950003X-2.650003X2.950003X2.650003X-2.950003X2.650003X0*%
%TD*%
%TA.AperFunction,SMDPad,CuDef*%
%ADD60RoundRect,0.175000X0.175000X0.325000X-0.175000X0.325000X-0.175000X-0.325000X0.175000X-0.325000X0*%
%TD*%
%TA.AperFunction,SMDPad,CuDef*%
%ADD61RoundRect,0.150000X0.200000X0.150000X-0.200000X0.150000X-0.200000X-0.150000X0.200000X-0.150000X0*%
%TD*%
%TA.AperFunction,SMDPad,CuDef*%
%ADD62RoundRect,0.250000X0.850000X0.350000X-0.850000X0.350000X-0.850000X-0.350000X0.850000X-0.350000X0*%
%TD*%
%TA.AperFunction,SMDPad,CuDef*%
%ADD63RoundRect,0.249997X2.950003X2.650003X-2.950003X2.650003X-2.950003X-2.650003X2.950003X-2.650003X0*%
%TD*%
%TA.AperFunction,SMDPad,CuDef*%
%ADD64R,3.550000X3.500000*%
%TD*%
%TA.AperFunction,SMDPad,CuDef*%
%ADD65R,1.500000X0.900000*%
%TD*%
%TA.AperFunction,SMDPad,CuDef*%
%ADD66R,0.800000X0.800000*%
%TD*%
%TA.AperFunction,SMDPad,CuDef*%
%ADD67RoundRect,0.250000X-2.450000X0.650000X-2.450000X-0.650000X2.450000X-0.650000X2.450000X0.650000X0*%
%TD*%
%TA.AperFunction,SMDPad,CuDef*%
%ADD68RoundRect,0.250000X1.025000X-0.787500X1.025000X0.787500X-1.025000X0.787500X-1.025000X-0.787500X0*%
%TD*%
%TA.AperFunction,SMDPad,CuDef*%
%ADD69R,1.240000X0.600000*%
%TD*%
%TA.AperFunction,SMDPad,CuDef*%
%ADD70R,1.240000X0.300000*%
%TD*%
%TA.AperFunction,HeatsinkPad*%
%ADD71O,2.100000X1.000000*%
%TD*%
%TA.AperFunction,HeatsinkPad*%
%ADD72O,1.800000X1.000000*%
%TD*%
%TA.AperFunction,ComponentPad*%
%ADD73R,2.500000X2.500000*%
%TD*%
%TA.AperFunction,ViaPad*%
%ADD74C,1.500000*%
%TD*%
%TA.AperFunction,ViaPad*%
%ADD75C,0.450000*%
%TD*%
%TA.AperFunction,ViaPad*%
%ADD76C,0.800000*%
%TD*%
%TA.AperFunction,ViaPad*%
%ADD77C,0.400000*%
%TD*%
%TA.AperFunction,Conductor*%
%ADD78C,0.300000*%
%TD*%
%TA.AperFunction,Conductor*%
%ADD79C,0.800000*%
%TD*%
%TA.AperFunction,Conductor*%
%ADD80C,0.200000*%
%TD*%
%TA.AperFunction,Conductor*%
%ADD81C,0.500000*%
%TD*%
%TA.AperFunction,Conductor*%
%ADD82C,0.141000*%
%TD*%
G04 APERTURE END LIST*
D10*
%TO.P,R4,1*%
%TO.N,Net-(Q1-S)*%
X94645000Y-228533400D03*
%TO.P,R4,2*%
%TO.N,GND*%
X94645000Y-226708400D03*
%TD*%
D11*
%TO.P,RV1,1,1*%
%TO.N,Net-(D2-K)*%
X75100000Y-219500000D03*
%TO.P,RV1,2,2*%
%TO.N,Net-(U5-FB)*%
X70270000Y-216960000D03*
%TO.P,RV1,3,3*%
%TO.N,unconnected-(RV1-Pad3)*%
X75100000Y-214420000D03*
%TD*%
D10*
%TO.P,R1,1*%
%TO.N,Net-(IVLM3-5/1-F-Pad7)*%
X119390000Y-251885000D03*
%TO.P,R1,2*%
%TO.N,F*%
X119390000Y-250060000D03*
%TD*%
D12*
%TO.P,C37,1*%
%TO.N,Net-(D2-K)*%
X78560000Y-229650000D03*
%TO.P,C37,2*%
%TO.N,GND*%
X83660000Y-229650000D03*
%TD*%
D10*
%TO.P,R19,1*%
%TO.N,F*%
X131120000Y-204330000D03*
%TO.P,R19,2*%
%TO.N,Net-(U1-GPIO2{slash}ADC1_CH2)*%
X131120000Y-202505000D03*
%TD*%
D13*
%TO.P,R11,1*%
%TO.N,Net-(Q2-G)*%
X56675000Y-241175000D03*
%TO.P,R11,2*%
%TO.N,GND*%
X54850000Y-241175000D03*
%TD*%
D14*
%TO.P,Q3,1,B*%
%TO.N,Net-(D6-A)*%
X52862000Y-211140000D03*
%TO.P,Q3,2,E*%
%TO.N,GND*%
X52862000Y-213040000D03*
%TO.P,Q3,3,C*%
%TO.N,Net-(Q3-C)*%
X54737000Y-212090000D03*
%TD*%
D15*
%TO.P,D2,1,K*%
%TO.N,Net-(D2-K)*%
X74650000Y-222940000D03*
%TO.P,D2,2,A*%
%TO.N,GND*%
X70350000Y-222940000D03*
%TD*%
D16*
%TO.P,C5,1*%
%TO.N,Net-(U6-REF)*%
X94680000Y-232000000D03*
%TO.P,C5,2*%
%TO.N,GND*%
X94680000Y-230100000D03*
%TD*%
D17*
%TO.P,U8,1,I/O1*%
%TO.N,USB_D+*%
X119725000Y-221200000D03*
D18*
%TO.P,U8,2,GND*%
%TO.N,GND*%
X120262500Y-221275000D03*
D17*
%TO.P,U8,3,I/O2*%
%TO.N,USB_D-*%
X120800000Y-221200000D03*
%TO.P,U8,4,I/O2*%
%TO.N,PRE_USB_D-*%
X120800000Y-219500000D03*
D18*
%TO.P,U8,5,VBUS*%
%TO.N,+3.3V*%
X120262500Y-219425000D03*
D17*
%TO.P,U8,6,I/O1*%
%TO.N,PRE_USB_D+*%
X119725000Y-219500000D03*
%TD*%
D19*
%TO.P,R9,1*%
%TO.N,Net-(U5-FB)*%
X70275000Y-212200000D03*
%TO.P,R9,2*%
%TO.N,F_ADJ*%
X72100000Y-212200000D03*
%TD*%
D20*
%TO.P,C39,1*%
%TO.N,Net-(U13-VIN2)*%
X60340000Y-192940000D03*
%TO.P,C39,2*%
%TO.N,GND*%
X63290000Y-192940000D03*
%TD*%
D13*
%TO.P,R5,1*%
%TO.N,VPP*%
X111985000Y-221710000D03*
%TO.P,R5,2*%
%TO.N,Net-(R5-Pad2)*%
X110160000Y-221710000D03*
%TD*%
D21*
%TO.P,C12,1*%
%TO.N,+3.3V*%
X79555000Y-214992500D03*
%TO.P,C12,2*%
%TO.N,GND*%
X77655000Y-214992500D03*
%TD*%
D22*
%TO.P,U12,1,VDD*%
%TO.N,+3.3V*%
X124775000Y-207565000D03*
%TO.P,U12,2,SCL*%
%TO.N,SCL*%
X124775000Y-208065000D03*
%TO.P,U12,3,SDA*%
%TO.N,SDA*%
X124775000Y-208565000D03*
%TO.P,U12,4,~{LDAC}*%
%TO.N,/NEG_LDAC*%
X124775000Y-209065000D03*
%TO.P,U12,5,RDY/~{BSY}*%
%TO.N,/4728_RDY*%
X124775000Y-209565000D03*
%TO.P,U12,6,VOUTA*%
%TO.N,F_ADJ*%
X129000000Y-209565000D03*
%TO.P,U12,7,VOUTB*%
%TO.N,HV_ADJ*%
X129000000Y-209065000D03*
%TO.P,U12,8,VOUTC*%
%TO.N,unconnected-(U12-VOUTC-Pad8)*%
X129000000Y-208565000D03*
%TO.P,U12,9,VOUTD*%
%TO.N,unconnected-(U12-VOUTD-Pad9)*%
X129000000Y-208065000D03*
%TO.P,U12,10,VSS*%
%TO.N,GND*%
X129000000Y-207565000D03*
%TD*%
D23*
%TO.P,F4,1*%
%TO.N,Net-(F4-Pad1)*%
X68300000Y-193837500D03*
%TO.P,F4,2*%
%TO.N,+5V*%
X68300000Y-191962500D03*
%TD*%
D24*
%TO.P,U15,1,SCL*%
%TO.N,SCL*%
X122900000Y-198475000D03*
%TO.P,U15,2,GND*%
%TO.N,GND*%
X123850000Y-198475000D03*
%TO.P,U15,3,SDA*%
%TO.N,SDA*%
X124800000Y-198475000D03*
%TO.P,U15,4,VCC*%
%TO.N,+3.3V*%
X124800000Y-196200000D03*
%TO.P,U15,5,WP*%
%TO.N,GND*%
X122900000Y-196200000D03*
%TD*%
D25*
%TO.P,C7,1*%
%TO.N,VPP*%
X123350000Y-242000000D03*
%TO.P,C7,2*%
%TO.N,GND*%
X127750000Y-242000000D03*
%TD*%
D26*
%TO.P,U4,1,NC*%
%TO.N,unconnected-(U4-NC-Pad1)*%
X57105000Y-237260000D03*
%TO.P,U4,2,Vdd*%
%TO.N,+5V*%
X57105000Y-236310000D03*
%TO.P,U4,3,IN*%
%TO.N,F_PWM*%
X57105000Y-235360000D03*
%TO.P,U4,4,GND*%
%TO.N,GND*%
X54830000Y-235360000D03*
%TO.P,U4,5,OUT*%
%TO.N,Net-(U4-OUT)*%
X54830000Y-237260000D03*
%TD*%
D27*
%TO.P,J6,1,Pin_1*%
%TO.N,GND*%
X41240000Y-196020000D03*
D28*
%TO.P,J6,2,Pin_2*%
X41240000Y-193480000D03*
%TO.P,J6,3,Pin_3*%
%TO.N,FORWARD_DETECT*%
X43780000Y-196020000D03*
%TO.P,J6,4,Pin_4*%
%TO.N,GND*%
X43780000Y-193480000D03*
%TO.P,J6,5,Pin_5*%
%TO.N,RX1*%
X46320000Y-196020000D03*
%TO.P,J6,6,Pin_6*%
%TO.N,TX1*%
X46320000Y-193480000D03*
%TD*%
D16*
%TO.P,C19,1*%
%TO.N,+5V*%
X92500000Y-232350000D03*
%TO.P,C19,2*%
%TO.N,GND*%
X92500000Y-230450000D03*
%TD*%
D29*
%TO.P,U10,1,V_{CCA}*%
%TO.N,+3.3V*%
X90500000Y-226275000D03*
%TO.P,U10,2,A1*%
%TO.N,Net-(U1-GPIO18)*%
X89850000Y-226275000D03*
%TO.P,U10,3,A2*%
%TO.N,Net-(U1-GPIO19)*%
X89200000Y-226275000D03*
%TO.P,U10,4,A3*%
%TO.N,Net-(U1-GPIO20)*%
X88550000Y-226275000D03*
%TO.P,U10,5,A4*%
%TO.N,Net-(U1-GPIO21)*%
X87900000Y-226275000D03*
%TO.P,U10,6,NC*%
%TO.N,unconnected-(U10-NC-Pad6)*%
X87250000Y-226275000D03*
%TO.P,U10,7,GND*%
%TO.N,GND*%
X86600000Y-226275000D03*
%TO.P,U10,8,OE*%
X86600000Y-232000000D03*
%TO.P,U10,9,NC*%
%TO.N,unconnected-(U10-NC-Pad9)*%
X87250000Y-232000000D03*
%TO.P,U10,10,B4*%
%TO.N,STROBE*%
X87900000Y-232000000D03*
%TO.P,U10,11,B3*%
%TO.N,BLANKING*%
X88550000Y-232000000D03*
%TO.P,U10,12,B2*%
%TO.N,CLOCK*%
X89200000Y-232000000D03*
%TO.P,U10,13,B1*%
%TO.N,DATA_IN*%
X89850000Y-232000000D03*
%TO.P,U10,14,V_{CCB}*%
%TO.N,+5V*%
X90500000Y-232000000D03*
%TD*%
D30*
%TO.P,C15,1*%
%TO.N,Net-(U1-GPIO1{slash}ADC1_CH1{slash}XTAL_32K_N)*%
X99950000Y-208250000D03*
%TO.P,C15,2*%
%TO.N,GND*%
X99950000Y-210150000D03*
%TD*%
D13*
%TO.P,R21,1*%
%TO.N,+3.3V*%
X96312500Y-201900000D03*
%TO.P,R21,2*%
%TO.N,BACKWARD_DETECT*%
X94487500Y-201900000D03*
%TD*%
%TO.P,R16,1*%
%TO.N,Net-(U5-FB)*%
X67200000Y-216600000D03*
%TO.P,R16,2*%
%TO.N,GND*%
X65375000Y-216600000D03*
%TD*%
D10*
%TO.P,R27,1*%
%TO.N,Net-(U13-PR1)*%
X65270000Y-194382400D03*
%TO.P,R27,2*%
%TO.N,GND*%
X65270000Y-192557400D03*
%TD*%
D13*
%TO.P,R6,1*%
%TO.N,Net-(U6-FB)*%
X90630000Y-219780000D03*
%TO.P,R6,2*%
%TO.N,GND*%
X88805000Y-219780000D03*
%TD*%
D31*
%TO.P,D3,1,K*%
%TO.N,Net-(D3-K)*%
X65989200Y-223575000D03*
%TO.P,D3,2,A*%
%TO.N,GND*%
X65989200Y-219275000D03*
%TD*%
D19*
%TO.P,R10,1*%
%TO.N,Net-(U4-OUT)*%
X54852500Y-239105000D03*
%TO.P,R10,2*%
%TO.N,Net-(Q2-G)*%
X56677500Y-239105000D03*
%TD*%
D32*
%TO.P,Q2,1,G*%
%TO.N,Net-(Q2-G)*%
X62855000Y-239315000D03*
D33*
%TO.P,Q2,2,D*%
%TO.N,Net-(IVLM3-5/1-F2)*%
X72005000Y-241855000D03*
D32*
%TO.P,Q2,3,S*%
%TO.N,GND*%
X62855000Y-244395000D03*
%TD*%
D34*
%TO.P,HV5812WG1,1,HVPP*%
%TO.N,VPP*%
X96355000Y-236750000D03*
%TO.P,HV5812WG1,2,DATAOUT*%
%TO.N,Net-(HV5812WG1-DATAOUT)*%
X95084999Y-236750000D03*
%TO.P,HV5812WG1,3,OUT20*%
%TO.N,unconnected-(HV5812WG1-OUT20-Pad3)*%
X93815000Y-236750000D03*
%TO.P,HV5812WG1,4,OUT19*%
%TO.N,RED7*%
X92545000Y-236750000D03*
%TO.P,HV5812WG1,5,OUT18*%
%TO.N,GREEN7*%
X91275000Y-236749999D03*
%TO.P,HV5812WG1,6,OUT17*%
%TO.N,BLUE7*%
X90005000Y-236750000D03*
%TO.P,HV5812WG1,7,OUT16*%
%TO.N,unconnected-(HV5812WG1-OUT16-Pad7)*%
X88735000Y-236750000D03*
%TO.P,HV5812WG1,8,OUT15*%
%TO.N,RED6*%
X87465000Y-236750000D03*
%TO.P,HV5812WG1,9,OUT14*%
%TO.N,GREEN6*%
X86195000Y-236750000D03*
%TO.P,HV5812WG1,10,OUT13*%
%TO.N,BLUE6*%
X84925000Y-236749999D03*
%TO.P,HV5812WG1,11,OUT12*%
%TO.N,unconnected-(HV5812WG1-OUT12-Pad11)*%
X83655000Y-236750000D03*
%TO.P,HV5812WG1,12,OUT11*%
%TO.N,RED5*%
X82385000Y-236750000D03*
%TO.P,HV5812WG1,13,BLANKING*%
%TO.N,BLANKING*%
X81115001Y-236750000D03*
%TO.P,HV5812WG1,14,GND*%
%TO.N,GND*%
X79845000Y-236750000D03*
%TO.P,HV5812WG1,15,CLOCK*%
%TO.N,CLOCK*%
X79845000Y-246050000D03*
%TO.P,HV5812WG1,16,STROBE*%
%TO.N,STROBE*%
X81115001Y-246050000D03*
%TO.P,HV5812WG1,17,OUT10*%
%TO.N,GREEN5*%
X82385000Y-246050000D03*
%TO.P,HV5812WG1,18,OUT9*%
%TO.N,BLUE5*%
X83655000Y-246050000D03*
%TO.P,HV5812WG1,19,OUT8*%
%TO.N,unconnected-(HV5812WG1-OUT8-Pad19)*%
X84925000Y-246050001D03*
%TO.P,HV5812WG1,20,OUT7*%
%TO.N,RED4*%
X86195000Y-246050000D03*
%TO.P,HV5812WG1,21,OUT6*%
%TO.N,GREEN4*%
X87465000Y-246050000D03*
%TO.P,HV5812WG1,22,OUT5*%
%TO.N,BLUE4*%
X88735000Y-246050000D03*
%TO.P,HV5812WG1,23,OUT4*%
%TO.N,unconnected-(HV5812WG1-OUT4-Pad23)*%
X90005000Y-246050000D03*
%TO.P,HV5812WG1,24,OUT3*%
%TO.N,RED3*%
X91275000Y-246050001D03*
%TO.P,HV5812WG1,25,OUT2*%
%TO.N,GREEN3*%
X92545000Y-246050000D03*
%TO.P,HV5812WG1,26,OUT1*%
%TO.N,BLUE3*%
X93815000Y-246050000D03*
%TO.P,HV5812WG1,27,DATAIN*%
%TO.N,DATA_IN*%
X95084999Y-246050000D03*
%TO.P,HV5812WG1,28,VDD*%
%TO.N,+5V*%
X96355000Y-246050000D03*
%TD*%
D19*
%TO.P,R8,1*%
%TO.N,Net-(U6-FB)*%
X114815000Y-219630000D03*
%TO.P,R8,2*%
%TO.N,HV_ADJ*%
X116640000Y-219630000D03*
%TD*%
D32*
%TO.P,Q1,1,G*%
%TO.N,Net-(Q1-G)*%
X104715000Y-226050000D03*
D33*
%TO.P,Q1,2,D*%
%TO.N,Net-(D1-A)*%
X113865000Y-228590000D03*
D32*
%TO.P,Q1,3,S*%
%TO.N,Net-(Q1-S)*%
X104715000Y-231130000D03*
%TD*%
D35*
%TO.P,R24,1*%
%TO.N,VBUS*%
X45085000Y-209731600D03*
%TO.P,R24,2*%
%TO.N,Net-(D6-K)*%
X45085000Y-211556600D03*
%TD*%
D36*
%TO.P,D6,1,K*%
%TO.N,Net-(D6-K)*%
X47249200Y-211582000D03*
%TO.P,D6,2,A*%
%TO.N,Net-(D6-A)*%
X50749200Y-211582000D03*
%TD*%
D25*
%TO.P,C24,1*%
%TO.N,VBUS*%
X57800000Y-213500000D03*
%TO.P,C24,2*%
%TO.N,GND*%
X62200000Y-213500000D03*
%TD*%
%TO.P,C6,1*%
%TO.N,VBUS*%
X102730000Y-220010000D03*
%TO.P,C6,2*%
%TO.N,GND*%
X107130000Y-220010000D03*
%TD*%
D19*
%TO.P,R7,1*%
%TO.N,Net-(SW1-B)*%
X88700000Y-200900000D03*
%TO.P,R7,2*%
%TO.N,Net-(U1-EN{slash}CHIP_PU)*%
X90525000Y-200900000D03*
%TD*%
D37*
%TO.P,SW1,1,A*%
%TO.N,GND*%
X85900000Y-198800000D03*
X85900000Y-190850000D03*
%TO.P,SW1,2,B*%
%TO.N,Net-(SW1-B)*%
X90400000Y-198800000D03*
X90400000Y-190850000D03*
%TD*%
D35*
%TO.P,R17,1*%
%TO.N,F_EN*%
X92100000Y-206875000D03*
%TO.P,R17,2*%
%TO.N,GND*%
X92100000Y-208700000D03*
%TD*%
D16*
%TO.P,C35,1*%
%TO.N,VBUS*%
X101030000Y-224240000D03*
%TO.P,C35,2*%
%TO.N,GND*%
X101030000Y-222340000D03*
%TD*%
D38*
%TO.P,U6,1,EXT*%
%TO.N,Net-(Q1-G)*%
X100440000Y-226805000D03*
%TO.P,U6,2,V+*%
%TO.N,VBUS*%
X99170000Y-226805000D03*
%TO.P,U6,3,FB*%
%TO.N,Net-(U6-FB)*%
X97900000Y-226805000D03*
%TO.P,U6,4,SHDN*%
%TO.N,{slash}HV_EN*%
X96630000Y-226805000D03*
%TO.P,U6,5,REF*%
%TO.N,Net-(U6-REF)*%
X96630000Y-231955000D03*
%TO.P,U6,6,AGND*%
%TO.N,GND*%
X97900000Y-231955000D03*
%TO.P,U6,7,GND*%
X99170000Y-231955000D03*
%TO.P,U6,8,CS*%
%TO.N,Net-(Q1-S)*%
X100440000Y-231955000D03*
%TD*%
D30*
%TO.P,C33,1*%
%TO.N,+5V*%
X59160000Y-236310000D03*
%TO.P,C33,2*%
%TO.N,GND*%
X59160000Y-238210000D03*
%TD*%
D16*
%TO.P,C18,1*%
%TO.N,Net-(U1-GPIO3{slash}ADC1_CH3)*%
X131150000Y-200820000D03*
%TO.P,C18,2*%
%TO.N,GND*%
X131150000Y-198920000D03*
%TD*%
D23*
%TO.P,F1,1*%
%TO.N,Net-(F1-Pad1)*%
X131300000Y-227700000D03*
%TO.P,F1,2*%
%TO.N,VBUS*%
X131300000Y-225825000D03*
%TD*%
D30*
%TO.P,C20,1*%
%TO.N,VBUS*%
X62000000Y-229275000D03*
%TO.P,C20,2*%
%TO.N,GND*%
X62000000Y-231175000D03*
%TD*%
D21*
%TO.P,C11,1*%
%TO.N,+5V*%
X79555000Y-217292500D03*
%TO.P,C11,2*%
%TO.N,GND*%
X77655000Y-217292500D03*
%TD*%
D39*
%TO.P,C25,1*%
%TO.N,Net-(U13-MODE)*%
X81300000Y-201600000D03*
%TO.P,C25,2*%
%TO.N,GND*%
X81300000Y-206000000D03*
%TD*%
D40*
%TO.P,H2,1,1*%
%TO.N,GND*%
X50950000Y-251100000D03*
X51433274Y-249933274D03*
X51433274Y-252266726D03*
X52600000Y-249450000D03*
D41*
X52600000Y-251100000D03*
D40*
X52600000Y-252750000D03*
X53766726Y-249933274D03*
X53766726Y-252266726D03*
X54250000Y-251100000D03*
%TD*%
D13*
%TO.P,R41,1*%
%TO.N,+3.3V*%
X126330000Y-203130000D03*
%TO.P,R41,2*%
%TO.N,SCL*%
X124505000Y-203130000D03*
%TD*%
D42*
%TO.P,C23,1*%
%TO.N,VBUS*%
X63900000Y-210840000D03*
%TO.P,C23,2*%
%TO.N,GND*%
X65800000Y-210840000D03*
%TD*%
D27*
%TO.P,J5,1,Pin_1*%
%TO.N,BACKWARD_DETECT*%
X41200000Y-242100000D03*
D28*
%TO.P,J5,2,Pin_2*%
%TO.N,GND*%
X41200000Y-244640000D03*
%TO.P,J5,3,Pin_3*%
X43740000Y-242100000D03*
%TO.P,J5,4,Pin_4*%
X43740000Y-244640000D03*
%TO.P,J5,5,Pin_5*%
%TO.N,TX2*%
X46280000Y-242100000D03*
%TO.P,J5,6,Pin_6*%
%TO.N,RX2*%
X46280000Y-244640000D03*
%TD*%
D42*
%TO.P,C36,1*%
%TO.N,+3.3V*%
X129910000Y-212840000D03*
%TO.P,C36,2*%
%TO.N,GND*%
X131810000Y-212840000D03*
%TD*%
D13*
%TO.P,R14,1*%
%TO.N,/NEG_LDAC*%
X124771000Y-215509000D03*
%TO.P,R14,2*%
%TO.N,GND*%
X122946000Y-215509000D03*
%TD*%
D43*
%TO.P,L1,1,1*%
%TO.N,VBUS*%
X124210000Y-223500000D03*
%TO.P,L1,2,2*%
%TO.N,Net-(D1-A)*%
X124210000Y-232450000D03*
%TD*%
D23*
%TO.P,F5,1*%
%TO.N,Net-(D2-K)*%
X127940000Y-253575000D03*
%TO.P,F5,2*%
%TO.N,F*%
X127940000Y-251700000D03*
%TD*%
D13*
%TO.P,R28,1*%
%TO.N,+3.3V*%
X78350000Y-199400000D03*
%TO.P,R28,2*%
%TO.N,VBUS_ABOVE_TRESHOLD*%
X76525000Y-199400000D03*
%TD*%
D40*
%TO.P,H1,1,1*%
%TO.N,GND*%
X125550000Y-192700000D03*
X126033274Y-191533274D03*
X126033274Y-193866726D03*
X127200000Y-191050000D03*
D41*
X127200000Y-192700000D03*
D40*
X127200000Y-194350000D03*
X128366726Y-191533274D03*
X128366726Y-193866726D03*
X128850000Y-192700000D03*
%TD*%
D13*
%TO.P,R25,1*%
%TO.N,+3.3V*%
X96325000Y-199800000D03*
%TO.P,R25,2*%
%TO.N,Net-(SW1-B)*%
X94500000Y-199800000D03*
%TD*%
D44*
%TO.P,C34,1*%
%TO.N,+5V*%
X56440000Y-244700000D03*
%TO.P,C34,2*%
%TO.N,GND*%
X50200000Y-244700000D03*
%TD*%
D19*
%TO.P,R13,1*%
%TO.N,+3.3V*%
X122940000Y-211530000D03*
%TO.P,R13,2*%
%TO.N,/4728_RDY*%
X124765000Y-211530000D03*
%TD*%
D13*
%TO.P,R31,1*%
%TO.N,Net-(J1-CC1)*%
X125950000Y-220150000D03*
%TO.P,R31,2*%
%TO.N,GND*%
X124125000Y-220150000D03*
%TD*%
D35*
%TO.P,R20,1*%
%TO.N,Net-(U1-GPIO2{slash}ADC1_CH2)*%
X129050000Y-202505000D03*
%TO.P,R20,2*%
%TO.N,GND*%
X129050000Y-204330000D03*
%TD*%
D25*
%TO.P,C22,1*%
%TO.N,Net-(D2-K)*%
X79160000Y-222930000D03*
%TO.P,C22,2*%
%TO.N,GND*%
X83560000Y-222930000D03*
%TD*%
D45*
%TO.P,C13,1*%
%TO.N,+3.3V*%
X89350000Y-208550000D03*
%TO.P,C13,2*%
%TO.N,GND*%
X84950000Y-208550000D03*
%TD*%
D46*
%TO.P,C14,1*%
%TO.N,VBUS*%
X48000000Y-236410000D03*
%TO.P,C14,2*%
%TO.N,GND*%
X48000000Y-231310000D03*
%TD*%
D47*
%TO.P,U5,1,VIN*%
%TO.N,VBUS*%
X60550000Y-226025000D03*
%TO.P,U5,2,OUT*%
%TO.N,Net-(D3-K)*%
X60550000Y-224325000D03*
%TO.P,U5,3,GND*%
%TO.N,GND*%
X60550000Y-222625000D03*
D48*
X53825000Y-225400000D03*
X53825000Y-219850000D03*
D49*
X51400000Y-222625000D03*
D48*
X48975000Y-225400000D03*
X48975000Y-219850000D03*
D47*
%TO.P,U5,4,FB*%
%TO.N,Net-(U5-FB)*%
X60550000Y-220925000D03*
%TO.P,U5,5,~{ON}/OFF*%
%TO.N,F_EN*%
X60550000Y-219225000D03*
%TD*%
D35*
%TO.P,R15,1*%
%TO.N,VPP*%
X133240000Y-198995000D03*
%TO.P,R15,2*%
%TO.N,Net-(U1-GPIO3{slash}ADC1_CH3)*%
X133240000Y-200820000D03*
%TD*%
D42*
%TO.P,C32,1*%
%TO.N,Net-(J1-CC2)*%
X131390000Y-218060000D03*
%TO.P,C32,2*%
%TO.N,GND*%
X133290000Y-218060000D03*
%TD*%
D19*
%TO.P,R32,1*%
%TO.N,Net-(J1-CC2)*%
X131400000Y-216050000D03*
%TO.P,R32,2*%
%TO.N,GND*%
X133225000Y-216050000D03*
%TD*%
D50*
%TO.P,D1,1,K*%
%TO.N,VPP*%
X122530000Y-236800000D03*
%TO.P,D1,2,A*%
%TO.N,Net-(D1-A)*%
X126830000Y-236800000D03*
%TD*%
D51*
%TO.P,C9,1*%
%TO.N,Net-(U13-MODE)*%
X76180000Y-192550000D03*
%TO.P,C9,2*%
%TO.N,GND*%
X71080000Y-192550000D03*
%TD*%
D16*
%TO.P,C17,1*%
%TO.N,+3.3V*%
X126800000Y-198400000D03*
%TO.P,C17,2*%
%TO.N,GND*%
X126800000Y-196500000D03*
%TD*%
D13*
%TO.P,R40,1*%
%TO.N,+3.3V*%
X126340000Y-201110000D03*
%TO.P,R40,2*%
%TO.N,SDA*%
X124515000Y-201110000D03*
%TD*%
%TO.P,R3,1*%
%TO.N,+3.3V*%
X111985000Y-219620000D03*
%TO.P,R3,2*%
%TO.N,{slash}HV_EN*%
X110160000Y-219620000D03*
%TD*%
D27*
%TO.P,J2,1,Pin_1*%
%TO.N,VBUS*%
X132000000Y-242100000D03*
D28*
%TO.P,J2,2,Pin_2*%
%TO.N,GND*%
X132000000Y-244640000D03*
%TO.P,J2,3,Pin_3*%
%TO.N,VBUS*%
X134540000Y-242100000D03*
%TO.P,J2,4,Pin_4*%
%TO.N,GND*%
X134540000Y-244640000D03*
%TO.P,J2,5,Pin_5*%
%TO.N,VBUS*%
X137080000Y-242100000D03*
%TO.P,J2,6,Pin_6*%
%TO.N,GND*%
X137080000Y-244640000D03*
%TD*%
D27*
%TO.P,J4,1,Pin_1*%
%TO.N,VBUS*%
X132000000Y-196000000D03*
D28*
%TO.P,J4,2,Pin_2*%
%TO.N,GND*%
X132000000Y-193460000D03*
%TO.P,J4,3,Pin_3*%
%TO.N,VBUS*%
X134540000Y-196000000D03*
%TO.P,J4,4,Pin_4*%
%TO.N,GND*%
X134540000Y-193460000D03*
%TO.P,J4,5,Pin_5*%
%TO.N,VBUS*%
X137080000Y-196000000D03*
%TO.P,J4,6,Pin_6*%
%TO.N,GND*%
X137080000Y-193460000D03*
%TD*%
D43*
%TO.P,L4,1,1*%
%TO.N,Net-(D4-K)*%
X68600000Y-208575000D03*
%TO.P,L4,2,2*%
%TO.N,Net-(U13-MODE)*%
X68600000Y-199625000D03*
%TD*%
D52*
%TO.P,U13,1,GND*%
%TO.N,GND*%
X67589400Y-195224400D03*
%TO.P,U13,2,VOUT*%
%TO.N,Net-(F4-Pad1)*%
X67589400Y-195724400D03*
%TO.P,U13,3,VIN1*%
%TO.N,Net-(U13-MODE)*%
X67589400Y-196224400D03*
%TO.P,U13,4,PR1*%
%TO.N,Net-(U13-PR1)*%
X67589400Y-196724400D03*
%TO.P,U13,5,MODE*%
%TO.N,Net-(U13-MODE)*%
X69069400Y-196724400D03*
%TO.P,U13,6,VIN2*%
%TO.N,Net-(U13-VIN2)*%
X69069400Y-196224400D03*
%TO.P,U13,7,VOUT*%
%TO.N,Net-(F4-Pad1)*%
X69069400Y-195724400D03*
%TO.P,U13,8,ST*%
%TO.N,VBUS_ABOVE_TRESHOLD*%
X69069400Y-195224400D03*
%TD*%
D53*
%TO.P,U2,1,CC2*%
%TO.N,Net-(J1-CC2)*%
X129922500Y-216360000D03*
%TO.P,U2,2,VBUS*%
%TO.N,VBUS*%
X129922500Y-215860000D03*
%TO.P,U2,3,VDD*%
%TO.N,+3.3V*%
X129922500Y-215360000D03*
D54*
%TO.P,U2,4,VDD*%
X129410000Y-214597500D03*
%TO.P,U2,5,INT_N*%
%TO.N,PD_INT*%
X128910000Y-214597500D03*
%TO.P,U2,6,SCL*%
%TO.N,SCL*%
X128410000Y-214597500D03*
%TO.P,U2,7,SDA*%
%TO.N,SDA*%
X127910000Y-214597500D03*
D53*
%TO.P,U2,8,GND*%
%TO.N,GND*%
X127397500Y-215360000D03*
%TO.P,U2,9,GND*%
X127397500Y-215860000D03*
%TO.P,U2,10,CC1*%
%TO.N,Net-(J1-CC1)*%
X127397500Y-216360000D03*
D54*
%TO.P,U2,11,CC1*%
X127910000Y-217122500D03*
%TO.P,U2,12,VCONN*%
%TO.N,+3.3V*%
X128410000Y-217122500D03*
%TO.P,U2,13,VCONN*%
X128910000Y-217122500D03*
%TO.P,U2,14,CC2*%
%TO.N,Net-(J1-CC2)*%
X129410000Y-217122500D03*
D55*
%TO.P,U2,15,GND*%
%TO.N,GND*%
X128660000Y-215860000D03*
%TD*%
D21*
%TO.P,C31,1*%
%TO.N,Net-(J1-CC1)*%
X125950000Y-218070000D03*
%TO.P,C31,2*%
%TO.N,GND*%
X124050000Y-218070000D03*
%TD*%
D42*
%TO.P,C40,1*%
%TO.N,VBUS*%
X60330000Y-195270000D03*
%TO.P,C40,2*%
%TO.N,GND*%
X62230000Y-195270000D03*
%TD*%
D30*
%TO.P,C4,1*%
%TO.N,VPP*%
X119600000Y-236100000D03*
%TO.P,C4,2*%
%TO.N,GND*%
X119600000Y-238000000D03*
%TD*%
D56*
%TO.P,Y1,1,1*%
%TO.N,Net-(U1-GPIO0{slash}ADC1_CH0{slash}XTAL_32K_P)*%
X96200000Y-207050000D03*
%TO.P,Y1,2,2*%
%TO.N,Net-(U1-GPIO1{slash}ADC1_CH1{slash}XTAL_32K_N)*%
X96200000Y-215550000D03*
%TD*%
D19*
%TO.P,R2,1*%
%TO.N,Net-(IVLM3-5/1-F-Pad1)*%
X133925000Y-204510000D03*
%TO.P,R2,2*%
%TO.N,F*%
X135750000Y-204510000D03*
%TD*%
D16*
%TO.P,C3,1*%
%TO.N,+5V*%
X119500000Y-246000000D03*
%TO.P,C3,2*%
%TO.N,GND*%
X119500000Y-244100000D03*
%TD*%
D20*
%TO.P,C38,1*%
%TO.N,VBUS*%
X60330000Y-197510000D03*
%TO.P,C38,2*%
%TO.N,GND*%
X63280000Y-197510000D03*
%TD*%
D13*
%TO.P,R12,1*%
%TO.N,F_PWM*%
X62985000Y-233790000D03*
%TO.P,R12,2*%
%TO.N,GND*%
X61160000Y-233790000D03*
%TD*%
D45*
%TO.P,C21,1*%
%TO.N,VBUS*%
X59000000Y-231425000D03*
%TO.P,C21,2*%
%TO.N,GND*%
X54600000Y-231425000D03*
%TD*%
D16*
%TO.P,C16,1*%
%TO.N,Net-(U1-GPIO0{slash}ADC1_CH0{slash}XTAL_32K_P)*%
X99950000Y-206600000D03*
%TO.P,C16,2*%
%TO.N,GND*%
X99950000Y-204700000D03*
%TD*%
D21*
%TO.P,C27,1*%
%TO.N,Net-(SW1-B)*%
X87150000Y-200900000D03*
%TO.P,C27,2*%
%TO.N,GND*%
X85250000Y-200900000D03*
%TD*%
D47*
%TO.P,U7,1,VIN*%
%TO.N,VBUS*%
X60525000Y-207925000D03*
%TO.P,U7,2,OUT*%
%TO.N,Net-(D4-K)*%
X60525000Y-206225000D03*
%TO.P,U7,3,GND*%
%TO.N,GND*%
X60525000Y-204525000D03*
D48*
X53800000Y-207300000D03*
X53800000Y-201750000D03*
D49*
X51375000Y-204525000D03*
D48*
X48950000Y-207300000D03*
X48950000Y-201750000D03*
D47*
%TO.P,U7,4,FB*%
%TO.N,Net-(U13-MODE)*%
X60525000Y-202825000D03*
%TO.P,U7,5,~{ON}/OFF*%
%TO.N,Net-(Q3-C)*%
X60525000Y-201125000D03*
%TD*%
D11*
%TO.P,RV3,1,1*%
%TO.N,Net-(R5-Pad2)*%
X98205000Y-224300000D03*
%TO.P,RV3,2,2*%
%TO.N,Net-(U6-FB)*%
X93375000Y-221760000D03*
%TO.P,RV3,3,3*%
%TO.N,unconnected-(RV3-Pad3)*%
X98205000Y-219220000D03*
%TD*%
D16*
%TO.P,C1,1*%
%TO.N,+5V*%
X98600000Y-246950000D03*
%TO.P,C1,2*%
%TO.N,GND*%
X98600000Y-245050000D03*
%TD*%
D30*
%TO.P,C30,1*%
%TO.N,+3.3V*%
X92580000Y-225990000D03*
%TO.P,C30,2*%
%TO.N,GND*%
X92580000Y-227890000D03*
%TD*%
D42*
%TO.P,C29,1*%
%TO.N,+3.3V*%
X124770000Y-205460000D03*
%TO.P,C29,2*%
%TO.N,GND*%
X126670000Y-205460000D03*
%TD*%
D57*
%TO.P,U3,1,GND*%
%TO.N,GND*%
X81855000Y-212785000D03*
%TO.P,U3,2,VO*%
%TO.N,+3.3V*%
X81855000Y-215065000D03*
D58*
X86480000Y-213540000D03*
X86480000Y-216590000D03*
D59*
X88155000Y-215065000D03*
D58*
X89830000Y-213540000D03*
X89830000Y-216590000D03*
D57*
%TO.P,U3,3,VI*%
%TO.N,+5V*%
X81855000Y-217345000D03*
%TD*%
D19*
%TO.P,R30,1*%
%TO.N,VBUS*%
X52912000Y-215011000D03*
%TO.P,R30,2*%
%TO.N,Net-(Q3-C)*%
X54737000Y-215011000D03*
%TD*%
D35*
%TO.P,R29,1*%
%TO.N,Net-(D6-A)*%
X49809400Y-213871800D03*
%TO.P,R29,2*%
%TO.N,GND*%
X49809400Y-215696800D03*
%TD*%
D19*
%TO.P,R22,1*%
%TO.N,+3.3V*%
X97987500Y-201900000D03*
%TO.P,R22,2*%
%TO.N,FORWARD_DETECT*%
X99812500Y-201900000D03*
%TD*%
D10*
%TO.P,R18,1*%
%TO.N,Net-(U1-GPIO3{slash}ADC1_CH3)*%
X129070000Y-200775000D03*
%TO.P,R18,2*%
%TO.N,GND*%
X129070000Y-198950000D03*
%TD*%
D34*
%TO.P,HV5812WG2,1,HVPP*%
%TO.N,VPP*%
X117355000Y-236750000D03*
%TO.P,HV5812WG2,2,DATAOUT*%
%TO.N,unconnected-(HV5812WG2-DATAOUT-Pad2)*%
X116084999Y-236750000D03*
%TO.P,HV5812WG2,3,OUT20*%
%TO.N,unconnected-(HV5812WG2-OUT20-Pad3)*%
X114815000Y-236750000D03*
%TO.P,HV5812WG2,4,OUT19*%
%TO.N,unconnected-(HV5812WG2-OUT19-Pad4)*%
X113545000Y-236750000D03*
%TO.P,HV5812WG2,5,OUT18*%
%TO.N,unconnected-(HV5812WG2-OUT18-Pad5)*%
X112275000Y-236749999D03*
%TO.P,HV5812WG2,6,OUT17*%
%TO.N,unconnected-(HV5812WG2-OUT17-Pad6)*%
X111005000Y-236750000D03*
%TO.P,HV5812WG2,7,OUT16*%
%TO.N,G5*%
X109735000Y-236750000D03*
%TO.P,HV5812WG2,8,OUT15*%
%TO.N,G4*%
X108465000Y-236750000D03*
%TO.P,HV5812WG2,9,OUT14*%
%TO.N,G3*%
X107195000Y-236750000D03*
%TO.P,HV5812WG2,10,OUT13*%
%TO.N,G2*%
X105925000Y-236749999D03*
%TO.P,HV5812WG2,11,OUT12*%
%TO.N,G1*%
X104655000Y-236750000D03*
%TO.P,HV5812WG2,12,OUT11*%
%TO.N,unconnected-(HV5812WG2-OUT11-Pad12)*%
X103385000Y-236750000D03*
%TO.P,HV5812WG2,13,BLANKING*%
%TO.N,BLANKING*%
X102115001Y-236750000D03*
%TO.P,HV5812WG2,14,GND*%
%TO.N,GND*%
X100845000Y-236750000D03*
%TO.P,HV5812WG2,15,CLOCK*%
%TO.N,CLOCK*%
X100845000Y-246050000D03*
%TO.P,HV5812WG2,16,STROBE*%
%TO.N,STROBE*%
X102115001Y-246050000D03*
%TO.P,HV5812WG2,17,OUT10*%
%TO.N,unconnected-(HV5812WG2-OUT10-Pad17)*%
X103385000Y-246050000D03*
%TO.P,HV5812WG2,18,OUT9*%
%TO.N,unconnected-(HV5812WG2-OUT9-Pad18)*%
X104655000Y-246050000D03*
%TO.P,HV5812WG2,19,OUT8*%
%TO.N,unconnected-(HV5812WG2-OUT8-Pad19)*%
X105925000Y-246050001D03*
%TO.P,HV5812WG2,20,OUT7*%
%TO.N,RED2*%
X107195000Y-246050000D03*
%TO.P,HV5812WG2,21,OUT6*%
%TO.N,GREEN2*%
X108465000Y-246050000D03*
%TO.P,HV5812WG2,22,OUT5*%
%TO.N,BLUE2*%
X109735000Y-246050000D03*
%TO.P,HV5812WG2,23,OUT4*%
%TO.N,unconnected-(HV5812WG2-OUT4-Pad23)*%
X111005000Y-246050000D03*
%TO.P,HV5812WG2,24,OUT3*%
%TO.N,RED1*%
X112275000Y-246050001D03*
%TO.P,HV5812WG2,25,OUT2*%
%TO.N,GREEN1*%
X113545000Y-246050000D03*
%TO.P,HV5812WG2,26,OUT1*%
%TO.N,BLUE1*%
X114815000Y-246050000D03*
%TO.P,HV5812WG2,27,DATAIN*%
%TO.N,Net-(HV5812WG1-DATAOUT)*%
X116084999Y-246050000D03*
%TO.P,HV5812WG2,28,VDD*%
%TO.N,+5V*%
X117355000Y-246050000D03*
%TD*%
D60*
%TO.P,U11,1,GND*%
%TO.N,GND*%
X90600000Y-204600000D03*
D61*
%TO.P,U11,2,~{RESET}*%
%TO.N,Net-(U1-EN{slash}CHIP_PU)*%
X90600000Y-202900000D03*
%TO.P,U11,3,~{MR}*%
%TO.N,Net-(SW1-B)*%
X88600000Y-202900000D03*
%TO.P,U11,4,VCC*%
%TO.N,+3.3V*%
X88600000Y-204800000D03*
%TD*%
D62*
%TO.P,U14,1,VI*%
%TO.N,VBUS*%
X57980000Y-197487500D03*
D63*
%TO.P,U14,2,GND*%
%TO.N,GND*%
X51680000Y-195207500D03*
D62*
%TO.P,U14,3,VO*%
%TO.N,Net-(U13-VIN2)*%
X57980000Y-192927500D03*
%TD*%
D64*
%TO.P,L3,1,1*%
%TO.N,Net-(D3-K)*%
X65970000Y-230510000D03*
%TO.P,L3,2,2*%
%TO.N,Net-(D2-K)*%
X74920000Y-230510000D03*
%TD*%
D10*
%TO.P,R26,1*%
%TO.N,+3.3V*%
X92400000Y-202612500D03*
%TO.P,R26,2*%
%TO.N,Net-(U1-EN{slash}CHIP_PU)*%
X92400000Y-200787500D03*
%TD*%
D46*
%TO.P,C10,1*%
%TO.N,+3.3V*%
X80920000Y-195800000D03*
%TO.P,C10,2*%
%TO.N,GND*%
X80920000Y-190700000D03*
%TD*%
D65*
%TO.P,U1,1,GND*%
%TO.N,GND*%
X102050000Y-197940000D03*
%TO.P,U1,2,3V3*%
%TO.N,+3.3V*%
X102050000Y-199210000D03*
%TO.P,U1,3,EN/CHIP_PU*%
%TO.N,Net-(U1-EN{slash}CHIP_PU)*%
X102050000Y-200480000D03*
%TO.P,U1,4,MTMS/GPIO4/ADC1_CH4*%
%TO.N,FORWARD_DETECT*%
X102050000Y-201750000D03*
%TO.P,U1,5,MTDI/GPIO5/ADC1_CH5*%
%TO.N,BACKWARD_DETECT*%
X102050000Y-203020000D03*
%TO.P,U1,6,MTCK/GPIO6/ADC1_CH6*%
%TO.N,F_EN*%
X102050000Y-204290000D03*
%TO.P,U1,7,MTDO/GPIO7*%
%TO.N,VBUS_ABOVE_TRESHOLD*%
X102050000Y-205560000D03*
%TO.P,U1,8,GPIO0/ADC1_CH0/XTAL_32K_P*%
%TO.N,Net-(U1-GPIO0{slash}ADC1_CH0{slash}XTAL_32K_P)*%
X102050000Y-206830000D03*
%TO.P,U1,9,GPIO1/ADC1_CH1/XTAL_32K_N*%
%TO.N,Net-(U1-GPIO1{slash}ADC1_CH1{slash}XTAL_32K_N)*%
X102050000Y-208100000D03*
%TO.P,U1,10,GPIO8*%
%TO.N,F_PWM*%
X102050000Y-209370000D03*
%TO.P,U1,11,GPIO10*%
%TO.N,SDA*%
X102050000Y-210640000D03*
%TO.P,U1,12,GPIO11*%
%TO.N,SCL*%
X102050000Y-211910000D03*
%TO.P,U1,13,GPIO12/USB_D-*%
%TO.N,PRE_USB_D-*%
X102050000Y-213180000D03*
%TO.P,U1,14,GPIO13/USB_D+*%
%TO.N,PRE_USB_D+*%
X102050000Y-214450000D03*
%TO.P,U1,15,GPIO9*%
%TO.N,{slash}HV_EN*%
X119550000Y-214450000D03*
%TO.P,U1,16,GPIO18*%
%TO.N,Net-(U1-GPIO18)*%
X119550000Y-213180000D03*
%TO.P,U1,17,GPIO19*%
%TO.N,Net-(U1-GPIO19)*%
X119550000Y-211910000D03*
%TO.P,U1,18,GPIO20*%
%TO.N,Net-(U1-GPIO20)*%
X119550000Y-210640000D03*
%TO.P,U1,19,GPIO21*%
%TO.N,Net-(U1-GPIO21)*%
X119550000Y-209370000D03*
%TO.P,U1,20,GPIO22*%
%TO.N,TX2*%
X119550000Y-208100000D03*
%TO.P,U1,21,GPIO23*%
%TO.N,RX2*%
X119550000Y-206830000D03*
%TO.P,U1,22,NC*%
%TO.N,unconnected-(U1-NC-Pad22)*%
X119550000Y-205560000D03*
%TO.P,U1,23,GPIO15*%
%TO.N,PD_INT*%
X119550000Y-204290000D03*
%TO.P,U1,24,U0RXD/GPIO17*%
%TO.N,RX1*%
X119550000Y-203020000D03*
%TO.P,U1,25,U0TXD/GPIO16*%
%TO.N,TX1*%
X119550000Y-201750000D03*
%TO.P,U1,26,GPIO3/ADC1_CH3*%
%TO.N,Net-(U1-GPIO3{slash}ADC1_CH3)*%
X119550000Y-200480000D03*
%TO.P,U1,27,GPIO2/ADC1_CH2*%
%TO.N,Net-(U1-GPIO2{slash}ADC1_CH2)*%
X119550000Y-199210000D03*
%TO.P,U1,28,GND*%
%TO.N,GND*%
X119550000Y-197940000D03*
D66*
%TO.P,U1,29,GND*%
X108045000Y-202410000D03*
X108045000Y-203660000D03*
X108045000Y-204910000D03*
X109295000Y-202410000D03*
X109295000Y-203660000D03*
X109295000Y-204910000D03*
X110545000Y-202410000D03*
X110545000Y-203660000D03*
X110545000Y-204910000D03*
%TD*%
D19*
%TO.P,R44,1*%
%TO.N,+3.3V*%
X122946000Y-213514000D03*
%TO.P,R44,2*%
%TO.N,/NEG_LDAC*%
X124771000Y-213514000D03*
%TD*%
D30*
%TO.P,C2,1*%
%TO.N,VPP*%
X98510000Y-236760000D03*
%TO.P,C2,2*%
%TO.N,GND*%
X98510000Y-238660000D03*
%TD*%
D67*
%TO.P,C8,1*%
%TO.N,VPP*%
X123550000Y-246600000D03*
%TO.P,C8,2*%
%TO.N,GND*%
X123550000Y-251700000D03*
%TD*%
D42*
%TO.P,C26,1*%
%TO.N,+3.3V*%
X97950000Y-199800000D03*
%TO.P,C26,2*%
%TO.N,GND*%
X99850000Y-199800000D03*
%TD*%
D21*
%TO.P,C41,1*%
%TO.N,Net-(U13-VIN2)*%
X57950000Y-190580000D03*
%TO.P,C41,2*%
%TO.N,GND*%
X56050000Y-190580000D03*
%TD*%
D10*
%TO.P,R23,1*%
%TO.N,Net-(U13-MODE)*%
X65290000Y-197822400D03*
%TO.P,R23,2*%
%TO.N,Net-(U13-PR1)*%
X65290000Y-195997400D03*
%TD*%
D68*
%TO.P,C28,1*%
%TO.N,+3.3V*%
X96733751Y-197330000D03*
%TO.P,C28,2*%
%TO.N,GND*%
X96733751Y-191105000D03*
%TD*%
D31*
%TO.P,D4,1,K*%
%TO.N,Net-(D4-K)*%
X76140000Y-209010000D03*
%TO.P,D4,2,A*%
%TO.N,GND*%
X76140000Y-204710000D03*
%TD*%
D69*
%TO.P,J1,A1,GND*%
%TO.N,GND*%
X131300000Y-237220000D03*
%TO.P,J1,A4,VBUS*%
%TO.N,Net-(F1-Pad1)*%
X131300000Y-236420000D03*
D70*
%TO.P,J1,A5,CC1*%
%TO.N,Net-(J1-CC1)*%
X131300000Y-235270000D03*
%TO.P,J1,A6,D+*%
%TO.N,USB_D+*%
X131300000Y-234270000D03*
%TO.P,J1,A7,D-*%
%TO.N,USB_D-*%
X131300000Y-233770000D03*
%TO.P,J1,A8*%
%TO.N,N/C*%
X131300000Y-232770000D03*
D69*
%TO.P,J1,A9,VBUS*%
%TO.N,Net-(F1-Pad1)*%
X131300000Y-231620000D03*
%TO.P,J1,A12,GND*%
%TO.N,GND*%
X131300000Y-230820000D03*
%TO.P,J1,B1,GND*%
X131300000Y-230820000D03*
%TO.P,J1,B4,VBUS*%
%TO.N,Net-(F1-Pad1)*%
X131300000Y-231620000D03*
D70*
%TO.P,J1,B5,CC2*%
%TO.N,Net-(J1-CC2)*%
X131300000Y-232270000D03*
%TO.P,J1,B6,D+*%
%TO.N,USB_D+*%
X131300000Y-233270000D03*
%TO.P,J1,B7,D-*%
%TO.N,USB_D-*%
X131300000Y-234770000D03*
%TO.P,J1,B8*%
%TO.N,N/C*%
X131300000Y-235770000D03*
D69*
%TO.P,J1,B9,VBUS*%
%TO.N,Net-(F1-Pad1)*%
X131300000Y-236420000D03*
%TO.P,J1,B12,GND*%
%TO.N,GND*%
X131300000Y-237220000D03*
D71*
%TO.P,J1,S1,SHIELD*%
X131900000Y-238340000D03*
D72*
X136100000Y-238340000D03*
D71*
X131900000Y-229700000D03*
D72*
X136100000Y-229700000D03*
%TD*%
D73*
%TO.P,IVLM3-5/1,1,F*%
%TO.N,Net-(IVLM3-5/1-F-Pad1)*%
X135800000Y-207876000D03*
%TO.P,IVLM3-5/1,2,G1*%
%TO.N,G1*%
X135800000Y-211626000D03*
%TO.P,IVLM3-5/1,3,G2*%
%TO.N,G2*%
X135800000Y-215376000D03*
%TO.P,IVLM3-5/1,4,G3*%
%TO.N,G3*%
X135800000Y-219126000D03*
%TO.P,IVLM3-5/1,5,G4*%
%TO.N,G4*%
X135800000Y-222876000D03*
%TO.P,IVLM3-5/1,6,G5*%
%TO.N,G5*%
X135800000Y-226626000D03*
%TO.P,IVLM3-5/1,7,F*%
%TO.N,Net-(IVLM3-5/1-F-Pad7)*%
X116900000Y-251876000D03*
%TO.P,IVLM3-5/1,8,B1*%
%TO.N,BLUE1*%
X113150000Y-251876000D03*
%TO.P,IVLM3-5/1,9,R1*%
%TO.N,RED1*%
X109400000Y-251826000D03*
%TO.P,IVLM3-5/1,10,B2*%
%TO.N,BLUE2*%
X105650000Y-251776000D03*
%TO.P,IVLM3-5/1,11,R2*%
%TO.N,RED2*%
X101900000Y-251776000D03*
%TO.P,IVLM3-5/1,12,B3*%
%TO.N,BLUE3*%
X98150000Y-251726000D03*
%TO.P,IVLM3-5/1,13,R3*%
%TO.N,RED3*%
X94400000Y-251676000D03*
%TO.P,IVLM3-5/1,14,B4*%
%TO.N,BLUE4*%
X90650000Y-251576000D03*
%TO.P,IVLM3-5/1,15,R4*%
%TO.N,RED4*%
X86900000Y-251576000D03*
%TO.P,IVLM3-5/1,16,B5*%
%TO.N,BLUE5*%
X83150000Y-251576000D03*
%TO.P,IVLM3-5/1,17,R5*%
%TO.N,RED5*%
X79400000Y-251576000D03*
%TO.P,IVLM3-5/1,18,B6*%
%TO.N,BLUE6*%
X75650000Y-251576000D03*
%TO.P,IVLM3-5/1,19,R6*%
%TO.N,RED6*%
X71900000Y-251576000D03*
%TO.P,IVLM3-5/1,20,B7*%
%TO.N,BLUE7*%
X68150000Y-251576000D03*
%TO.P,IVLM3-5/1,21,R7*%
%TO.N,RED7*%
X64400000Y-251576000D03*
%TO.P,IVLM3-5/1,22,F2*%
%TO.N,Net-(IVLM3-5/1-F2)*%
X60650000Y-251476000D03*
%TO.P,IVLM3-5/1,23,G7*%
%TO.N,GREEN7*%
X41800000Y-234276000D03*
%TO.P,IVLM3-5/1,24,G6*%
%TO.N,GREEN6*%
X41800000Y-230526000D03*
%TO.P,IVLM3-5/1,25,G5*%
%TO.N,GREEN5*%
X41800000Y-226776000D03*
%TO.P,IVLM3-5/1,26,G4*%
%TO.N,GREEN4*%
X41950000Y-211576000D03*
%TO.P,IVLM3-5/1,27,G3*%
%TO.N,GREEN3*%
X41950000Y-207826000D03*
%TO.P,IVLM3-5/1,28,G2*%
%TO.N,GREEN2*%
X41950000Y-204076000D03*
%TO.P,IVLM3-5/1,29,G1*%
%TO.N,GREEN1*%
X41900000Y-200326000D03*
%TD*%
D74*
%TO.N,+5V*%
X59100000Y-242900000D03*
X81835000Y-219100000D03*
D75*
X60600000Y-236300000D03*
D74*
X68300000Y-190500000D03*
D76*
X117355000Y-243165000D03*
X96350000Y-243400000D03*
D75*
X92500000Y-233290000D03*
D74*
%TO.N,GND*%
X79590000Y-212785000D03*
X82400000Y-208550000D03*
D76*
X121470000Y-191200000D03*
D75*
X64390000Y-216600000D03*
D76*
X115850000Y-197940000D03*
X116650000Y-197940000D03*
D74*
X62855000Y-242785000D03*
D75*
X87820000Y-219780000D03*
D76*
X111850000Y-197940000D03*
X99170000Y-230590000D03*
X111050000Y-197940000D03*
X104000000Y-197940000D03*
X107150000Y-197940000D03*
D74*
X80150000Y-208150000D03*
D75*
X84280000Y-200900000D03*
D74*
X86030000Y-222920000D03*
D76*
X110300000Y-197940000D03*
D75*
X49800000Y-216725000D03*
X128660000Y-215860000D03*
D76*
X121470000Y-193550000D03*
D75*
X92500000Y-229710000D03*
D74*
X51680000Y-195207500D03*
D75*
X54850000Y-242150000D03*
X63275000Y-191425000D03*
D76*
X100340000Y-193380000D03*
X114250000Y-197940000D03*
D74*
X52450000Y-244690000D03*
D75*
X98525000Y-204700000D03*
D74*
X123550000Y-249800000D03*
D75*
X129050000Y-198050000D03*
X131150000Y-198060000D03*
D76*
X79845000Y-235175000D03*
D75*
X86140000Y-232010000D03*
D76*
X106350000Y-197940000D03*
X121470000Y-192000000D03*
D75*
X86115000Y-226275000D03*
D74*
X64550000Y-213500000D03*
D76*
X100500000Y-235000000D03*
X97900000Y-230500000D03*
X100340000Y-195080000D03*
D75*
X119500000Y-242980000D03*
X92075000Y-210050000D03*
X91400000Y-227900000D03*
D74*
X70120000Y-225740000D03*
D75*
X99500000Y-222200000D03*
D76*
X120700000Y-197940000D03*
X121470000Y-195930000D03*
D75*
X122900000Y-195200000D03*
X84730000Y-198800000D03*
X126750000Y-215600000D03*
D76*
X121470000Y-196700000D03*
D75*
X100100000Y-198550000D03*
D76*
X117450000Y-197940000D03*
D75*
X98510000Y-239910000D03*
D76*
X121470000Y-190400000D03*
X121470000Y-194350000D03*
D75*
X109300000Y-201600000D03*
D76*
X115050000Y-197940000D03*
X109500000Y-197940000D03*
D75*
X127630000Y-205460000D03*
X133326942Y-219986942D03*
X65300000Y-191400000D03*
X55150000Y-190600000D03*
D76*
X103200000Y-197940000D03*
D74*
X68680000Y-219100000D03*
D76*
X100340000Y-191780000D03*
D74*
X51375000Y-204525000D03*
D76*
X100340000Y-190980000D03*
D75*
X98725000Y-210150000D03*
X67589400Y-195149400D03*
D76*
X100340000Y-196680000D03*
D74*
X73650000Y-204450000D03*
X96733751Y-193227500D03*
X72970000Y-192550000D03*
D76*
X121335000Y-197485000D03*
D75*
X119600000Y-239250000D03*
X129050000Y-205300000D03*
D74*
X65053600Y-204525000D03*
D75*
X131810000Y-211490000D03*
D76*
X121470000Y-195150000D03*
D74*
X81740000Y-229660000D03*
D76*
X113450000Y-197940000D03*
X105550000Y-197940000D03*
D75*
X77655000Y-213695000D03*
X123800000Y-199600000D03*
D76*
X100700000Y-197550000D03*
X100340000Y-195880000D03*
D75*
X93550000Y-229600000D03*
X53780000Y-235360000D03*
D76*
X94650000Y-225600000D03*
X121470000Y-192800000D03*
X104800000Y-197940000D03*
D75*
X54075000Y-213050000D03*
X118650000Y-218900000D03*
D74*
X51400000Y-222625000D03*
D75*
X77655000Y-218655000D03*
D76*
X112650000Y-197940000D03*
D75*
X65800000Y-212050000D03*
X60300000Y-238200000D03*
D74*
X80920000Y-192680000D03*
D76*
X108750000Y-197940000D03*
D75*
X127725000Y-207565000D03*
D74*
X54600000Y-233280000D03*
X48000000Y-229200000D03*
D75*
X126800000Y-195590000D03*
D74*
X107150000Y-218500000D03*
D76*
X100340000Y-192580000D03*
D74*
X63300000Y-199350000D03*
D76*
X118250000Y-197940000D03*
D75*
X123100000Y-218100000D03*
D76*
X100340000Y-190190000D03*
D75*
X61160000Y-232625735D03*
X63200000Y-195250000D03*
X91290000Y-204600000D03*
X98600000Y-243510000D03*
D76*
X107950000Y-197940000D03*
D74*
X62855000Y-245905000D03*
D75*
X122151000Y-215509000D03*
D76*
X100340000Y-194230000D03*
%TO.N,VPP*%
X96355000Y-235075000D03*
D75*
X121180000Y-230160000D03*
D76*
X119600000Y-234800000D03*
D74*
X121080000Y-241550000D03*
D76*
X117355000Y-234905000D03*
D74*
X122280000Y-238950000D03*
D75*
X124620000Y-239520000D03*
D74*
X121400000Y-234250000D03*
D76*
X98150000Y-235400000D03*
D75*
%TO.N,CLOCK*%
X100845000Y-244245000D03*
X99320000Y-235160000D03*
%TO.N,DATA_IN*%
X95084999Y-243064999D03*
X90490000Y-233310000D03*
%TO.N,STROBE*%
X101090000Y-248170000D03*
X81910000Y-248170000D03*
%TO.N,BLANKING*%
X81130000Y-235180000D03*
X81900000Y-233755000D03*
%TO.N,Net-(U1-GPIO2{slash}ADC1_CH2)*%
X121710000Y-201600000D03*
X127800000Y-202420000D03*
%TO.N,G3*%
X107200000Y-234700000D03*
%TO.N,BLUE7*%
X86775735Y-241675000D03*
%TO.N,RED5*%
X80550000Y-244390000D03*
%TO.N,GREEN7*%
X89034810Y-240299075D03*
%TO.N,G4*%
X108500000Y-234700000D03*
%TO.N,GREEN5*%
X82820000Y-239020000D03*
%TO.N,RED7*%
X89650000Y-241050000D03*
%TO.N,G5*%
X109750000Y-234700000D03*
%TO.N,GREEN3*%
X92545000Y-243190000D03*
%TO.N,G2*%
X105925000Y-234725000D03*
%TO.N,RED6*%
X85200000Y-242400000D03*
%TO.N,GREEN2*%
X94195000Y-240845000D03*
%TO.N,G1*%
X104655000Y-234705000D03*
%TO.N,BLUE6*%
X83700000Y-243100000D03*
%TO.N,GREEN1*%
X93390000Y-238690000D03*
%TO.N,GREEN4*%
X91000000Y-241450000D03*
%TO.N,GREEN6*%
X85900000Y-239350000D03*
D74*
%TO.N,F*%
X137049000Y-204530000D03*
X127880000Y-244550000D03*
%TO.N,VBUS*%
X63875000Y-207900000D03*
X100344818Y-220908298D03*
X126920000Y-223500000D03*
X129565000Y-225825000D03*
X48000000Y-238250000D03*
D75*
X101350000Y-225820002D03*
D76*
X99170000Y-228230000D03*
D75*
X130571891Y-214983802D03*
D74*
X59100000Y-199000000D03*
D75*
X51800000Y-215025000D03*
X45075000Y-208300000D03*
D74*
X64100000Y-226800000D03*
%TO.N,+3.3V*%
X82285000Y-197765000D03*
D75*
X92400000Y-203450000D03*
X128700000Y-217950000D03*
X91135000Y-226275000D03*
D74*
X98900000Y-198000000D03*
D75*
X126790000Y-199340000D03*
X113450000Y-218600000D03*
X129895000Y-214597500D03*
D74*
X89150000Y-206830000D03*
D75*
X87900000Y-204800000D03*
X121850000Y-211530000D03*
D74*
X88155000Y-215065000D03*
D75*
X121864000Y-213514000D03*
X127350000Y-201100000D03*
X121700000Y-218800000D03*
D74*
X104350000Y-199950000D03*
D75*
X79450000Y-199400000D03*
X123630000Y-206920000D03*
X124800000Y-195200000D03*
X127280000Y-203130000D03*
%TO.N,TX1*%
X106340000Y-206000000D03*
%TO.N,RX1*%
X106340000Y-206690000D03*
D74*
%TO.N,Net-(F1-Pad1)*%
X129651569Y-236420000D03*
X129690000Y-230550000D03*
D75*
%TO.N,BACKWARD_DETECT*%
X47879000Y-214010000D03*
X91930000Y-204730000D03*
D77*
%TO.N,USB_D-*%
X130400000Y-234800000D03*
X130400887Y-233767391D03*
D75*
%TO.N,RX2*%
X47904400Y-214700000D03*
X115380000Y-207740000D03*
%TO.N,Net-(J1-CC1)*%
X129962706Y-218793029D03*
X128800000Y-218770000D03*
%TO.N,TX2*%
X115440000Y-208420000D03*
X47879000Y-215417400D03*
%TO.N,FORWARD_DETECT*%
X100825000Y-201750000D03*
%TO.N,F_PWM*%
X99910000Y-209175000D03*
X96540000Y-210560000D03*
%TO.N,{slash}HV_EN*%
X114500000Y-218000000D03*
X95520000Y-222295000D03*
X95530000Y-221200000D03*
X117380000Y-215100000D03*
%TO.N,Net-(U6-FB)*%
X113600000Y-220170000D03*
X98540000Y-225320002D03*
%TO.N,HV_ADJ*%
X127756232Y-212293768D03*
X116660000Y-218440000D03*
X126728768Y-213321232D03*
X120320000Y-216560000D03*
%TO.N,F_ADJ*%
X128370000Y-210200000D03*
X95980000Y-210180000D03*
%TO.N,Net-(U1-GPIO3{slash}ADC1_CH3)*%
X121070000Y-200430000D03*
X127995000Y-200775000D03*
%TO.N,F_EN*%
X93450000Y-210100000D03*
X63515000Y-219225000D03*
%TO.N,Net-(U1-GPIO18)*%
X90626355Y-224590083D03*
X116660000Y-214500000D03*
%TO.N,Net-(U1-GPIO20)*%
X115520000Y-213570000D03*
X89610000Y-223780000D03*
%TO.N,Net-(U1-GPIO19)*%
X116013518Y-213993016D03*
X90109346Y-224196122D03*
%TO.N,Net-(U1-EN{slash}CHIP_PU)*%
X93450000Y-200800000D03*
X100880000Y-200480000D03*
%TO.N,SDA*%
X115800000Y-206300000D03*
X122310000Y-201100000D03*
X122310000Y-206320000D03*
X123480000Y-201110000D03*
%TO.N,SCL*%
X115510000Y-206899910D03*
X122900000Y-206830000D03*
%TO.N,PD_INT*%
X128590000Y-211770000D03*
X122930000Y-209940000D03*
%TO.N,Net-(U1-GPIO21)*%
X89150000Y-223320000D03*
X114990000Y-213060000D03*
D74*
%TO.N,Net-(U13-VIN2)*%
X58897319Y-194589801D03*
D76*
X70537658Y-196733278D03*
D75*
%TO.N,VBUS_ABOVE_TRESHOLD*%
X72400000Y-197050000D03*
X73800000Y-198450000D03*
X103800000Y-207215000D03*
X77150000Y-201450000D03*
%TD*%
%TO.N,+5V*%
D78*
X119500000Y-246000000D02*
X117405000Y-246000000D01*
D79*
X81855000Y-217345000D02*
X81855000Y-219080000D01*
D80*
X58080000Y-236310000D02*
X58050000Y-236340000D01*
D78*
X97670000Y-246950000D02*
X96770000Y-246050000D01*
D80*
X90500000Y-232000000D02*
X90850000Y-232350000D01*
X58020000Y-236310000D02*
X58050000Y-236340000D01*
D78*
X117405000Y-246000000D02*
X117355000Y-246050000D01*
X96355000Y-243805000D02*
X96355000Y-246050000D01*
X117350000Y-243160000D02*
X117355000Y-243165000D01*
D80*
X90850000Y-232350000D02*
X92500000Y-232350000D01*
X92490000Y-233300000D02*
X92500000Y-233290000D01*
D78*
X98600000Y-246950000D02*
X97670000Y-246950000D01*
D79*
X79607500Y-217345000D02*
X79555000Y-217292500D01*
X81855000Y-217345000D02*
X79607500Y-217345000D01*
D78*
X96340000Y-243790000D02*
X96355000Y-243805000D01*
X96340000Y-243370000D02*
X96340000Y-243790000D01*
D79*
X57300000Y-244700000D02*
X59100000Y-242900000D01*
D80*
X59160000Y-236310000D02*
X60590000Y-236310000D01*
X59160000Y-236310000D02*
X58080000Y-236310000D01*
X60590000Y-236310000D02*
X60600000Y-236300000D01*
D78*
X96340000Y-243390000D02*
X96350000Y-243400000D01*
X117355000Y-246050000D02*
X117355000Y-243165000D01*
X96770000Y-246050000D02*
X96355000Y-246050000D01*
D79*
X56400000Y-244700000D02*
X57300000Y-244700000D01*
D80*
X92500000Y-232350000D02*
X92500000Y-233290000D01*
D79*
X81855000Y-219080000D02*
X81835000Y-219100000D01*
X68300000Y-191962500D02*
X68300000Y-190500000D01*
D80*
X57105000Y-236310000D02*
X58020000Y-236310000D01*
D78*
X96340000Y-243370000D02*
X96340000Y-243390000D01*
%TO.N,GND*%
D79*
X72980000Y-192540000D02*
X72970000Y-192550000D01*
D80*
X61540000Y-232560000D02*
X62000000Y-232100000D01*
X121470000Y-191440000D02*
X121470000Y-191200000D01*
X55160000Y-190600000D02*
X55180000Y-190580000D01*
X122946000Y-215509000D02*
X122151000Y-215509000D01*
X121470000Y-196700000D02*
X121470000Y-195930000D01*
D78*
X119600000Y-239210000D02*
X119600000Y-239250000D01*
D80*
X54830000Y-235360000D02*
X53780000Y-235360000D01*
X121470000Y-195060000D02*
X121470000Y-194350000D01*
X63290000Y-192940000D02*
X63290000Y-191440000D01*
D81*
X131300000Y-230820000D02*
X131300000Y-230300000D01*
D80*
X99950000Y-210150000D02*
X98750000Y-210150000D01*
X120262500Y-220950001D02*
X118650000Y-219337501D01*
X65270000Y-192557400D02*
X65270000Y-191430000D01*
X105850000Y-197940000D02*
X106350000Y-197940000D01*
X98550000Y-204700000D02*
X98525000Y-204700000D01*
D79*
X70100000Y-222940000D02*
X70100000Y-225720000D01*
D80*
X61160000Y-233790000D02*
X61160000Y-232625735D01*
D79*
X80150000Y-208150000D02*
X81300000Y-207000000D01*
X80920000Y-190700000D02*
X80920000Y-192680000D01*
D80*
X64380000Y-216590000D02*
X64390000Y-216600000D01*
X107150000Y-197940000D02*
X107570000Y-197940000D01*
D78*
X100845000Y-236750000D02*
X100845000Y-235245000D01*
D80*
X60300000Y-238200000D02*
X60170000Y-238200000D01*
X53780000Y-235360000D02*
X53760000Y-235380000D01*
X114250000Y-197940000D02*
X114710000Y-197940000D01*
X94680000Y-230100000D02*
X94030000Y-230100000D01*
X86600000Y-232000000D02*
X86150000Y-232000000D01*
X99850000Y-198770000D02*
X100080000Y-198540000D01*
X100340000Y-194230000D02*
X100340000Y-193670000D01*
D79*
X70100000Y-225720000D02*
X70120000Y-225740000D01*
D80*
X111180000Y-197940000D02*
X111850000Y-197940000D01*
D79*
X83660000Y-229650000D02*
X81750000Y-229650000D01*
D80*
X112970000Y-197940000D02*
X113450000Y-197940000D01*
X109500000Y-197940000D02*
X110240000Y-197940000D01*
X133225000Y-216050000D02*
X133225000Y-217995000D01*
X116490000Y-197940000D02*
X116650000Y-197940000D01*
D78*
X109295000Y-203630000D02*
X109295000Y-203660000D01*
D80*
X91290000Y-204600000D02*
X91310000Y-204620000D01*
D79*
X130460000Y-244040000D02*
X131400000Y-244040000D01*
X128420000Y-242000000D02*
X129363595Y-242943595D01*
D80*
X126750000Y-215600000D02*
X126990000Y-215360000D01*
X62000000Y-232100000D02*
X62000000Y-231175000D01*
X65800000Y-212050000D02*
X65800000Y-210840000D01*
X103300000Y-197940000D02*
X104000000Y-197940000D01*
D79*
X71080000Y-192550000D02*
X72970000Y-192550000D01*
D80*
X115850000Y-197940000D02*
X116490000Y-197940000D01*
X90600000Y-204600000D02*
X91290000Y-204600000D01*
X126670000Y-205460000D02*
X127630000Y-205460000D01*
D79*
X54600000Y-233280000D02*
X54610000Y-233290000D01*
D80*
X133225000Y-217995000D02*
X133290000Y-218060000D01*
D78*
X77610000Y-218700000D02*
X77655000Y-218655000D01*
D80*
X121470000Y-193250000D02*
X121470000Y-192800000D01*
X121335000Y-197485000D02*
X121470000Y-197350000D01*
X127630000Y-205460000D02*
X127640000Y-205450000D01*
D79*
X62200000Y-213500000D02*
X64550000Y-213500000D01*
D80*
X86150000Y-232000000D02*
X86140000Y-232010000D01*
X98750000Y-210150000D02*
X98725000Y-210150000D01*
D79*
X65074800Y-204546200D02*
X65053600Y-204525000D01*
X96733751Y-191105000D02*
X96733751Y-193227500D01*
D81*
X131300000Y-230300000D02*
X131900000Y-229700000D01*
D80*
X106670000Y-197940000D02*
X107150000Y-197940000D01*
X105550000Y-197940000D02*
X105850000Y-197940000D01*
X100340000Y-191780000D02*
X100340000Y-191140000D01*
X121470000Y-193550000D02*
X121470000Y-193250000D01*
D78*
X109295000Y-202410000D02*
X109295000Y-203630000D01*
D80*
X84720000Y-198790000D02*
X84730000Y-198800000D01*
D79*
X48000000Y-229400000D02*
X48020000Y-229380000D01*
D80*
X93540000Y-229610000D02*
X93550000Y-229600000D01*
X65270000Y-191430000D02*
X65300000Y-191400000D01*
X101090000Y-197940000D02*
X102050000Y-197940000D01*
X110300000Y-197940000D02*
X111050000Y-197940000D01*
X100340000Y-193380000D02*
X100340000Y-192810000D01*
D78*
X119500000Y-244100000D02*
X119500000Y-242980000D01*
D81*
X99180000Y-230580000D02*
X99170000Y-230590000D01*
D80*
X106350000Y-197940000D02*
X106670000Y-197940000D01*
X87790000Y-219810000D02*
X87820000Y-219780000D01*
X92100000Y-208700000D02*
X92100000Y-210000000D01*
D78*
X77655000Y-214992500D02*
X77655000Y-213695000D01*
D80*
X85900000Y-198800000D02*
X84730000Y-198800000D01*
X124125000Y-219125000D02*
X124050000Y-219050000D01*
D79*
X80280000Y-208150000D02*
X80150000Y-208150000D01*
X86020000Y-222930000D02*
X86030000Y-222920000D01*
D80*
X129070000Y-198080000D02*
X129070000Y-198070000D01*
X121470000Y-194350000D02*
X121470000Y-194150000D01*
X52862000Y-213040000D02*
X54065000Y-213040000D01*
X109295000Y-201605000D02*
X109300000Y-201600000D01*
X85250000Y-200900000D02*
X84280000Y-200900000D01*
X100700000Y-197550000D02*
X101090000Y-197940000D01*
X91410000Y-227890000D02*
X91400000Y-227900000D01*
X113450000Y-197940000D02*
X113860000Y-197940000D01*
D79*
X81750000Y-229650000D02*
X81740000Y-229660000D01*
D80*
X126990000Y-215360000D02*
X127397500Y-215360000D01*
X117380000Y-197940000D02*
X117450000Y-197940000D01*
D79*
X62855000Y-244395000D02*
X62855000Y-242785000D01*
D80*
X129050000Y-205195000D02*
X129050000Y-205300000D01*
X104000000Y-197940000D02*
X104150000Y-197940000D01*
X55150000Y-190600000D02*
X55160000Y-190600000D01*
D79*
X64570000Y-213520000D02*
X64550000Y-213500000D01*
D80*
X100340000Y-196220000D02*
X100340000Y-195880000D01*
X84280000Y-200900000D02*
X84270000Y-200890000D01*
X124125000Y-220150000D02*
X124125000Y-219125000D01*
X131800000Y-211480000D02*
X131810000Y-211490000D01*
X85900000Y-190850000D02*
X85900000Y-198800000D01*
X133290000Y-219950000D02*
X133326942Y-219986942D01*
X92580000Y-227890000D02*
X91420000Y-227890000D01*
X99660000Y-222340000D02*
X99580000Y-222260000D01*
X126790000Y-195580000D02*
X126800000Y-195590000D01*
X121470000Y-192000000D02*
X121470000Y-191440000D01*
X113860000Y-197940000D02*
X114250000Y-197940000D01*
X86115000Y-226275000D02*
X86100000Y-226260000D01*
D81*
X99170000Y-231955000D02*
X99170000Y-230590000D01*
D80*
X126800000Y-196500000D02*
X126800000Y-195590000D01*
D79*
X60550000Y-222625000D02*
X53750000Y-222625000D01*
D80*
X100340000Y-190980000D02*
X100340000Y-190290000D01*
X92500000Y-229710000D02*
X92490000Y-229700000D01*
X100340000Y-193670000D02*
X100340000Y-193380000D01*
X119550000Y-197940000D02*
X120700000Y-197940000D01*
X100340000Y-192580000D02*
X100340000Y-191970000D01*
D79*
X60525000Y-204525000D02*
X65053600Y-204525000D01*
D80*
X49809400Y-215696800D02*
X49809400Y-216715600D01*
X100340000Y-195080000D02*
X100340000Y-194530000D01*
X121470000Y-195930000D02*
X121470000Y-195150000D01*
X121470000Y-190130000D02*
X121430000Y-190090000D01*
D79*
X68605000Y-219025000D02*
X68680000Y-219100000D01*
D80*
X100700000Y-197550000D02*
X100340000Y-197190000D01*
X121470000Y-192800000D02*
X121470000Y-192340000D01*
D79*
X62870000Y-242770000D02*
X62855000Y-242785000D01*
D81*
X94645000Y-225605000D02*
X94650000Y-225600000D01*
D80*
X133290000Y-218060000D02*
X133290000Y-219950000D01*
D78*
X119510000Y-242970000D02*
X119500000Y-242980000D01*
D80*
X121470000Y-197350000D02*
X121470000Y-196790000D01*
X121470000Y-191200000D02*
X121470000Y-190560000D01*
X129070000Y-198070000D02*
X129050000Y-198050000D01*
D81*
X131300000Y-237740000D02*
X131900000Y-238340000D01*
D80*
X127720000Y-207570000D02*
X127725000Y-207565000D01*
X100340000Y-191140000D02*
X100340000Y-190980000D01*
D78*
X77655000Y-217292500D02*
X77655000Y-218655000D01*
X100580000Y-234980000D02*
X100520000Y-234980000D01*
D80*
X100340000Y-197190000D02*
X100340000Y-196680000D01*
X121140000Y-197680000D02*
X121335000Y-197485000D01*
X63180000Y-195270000D02*
X63200000Y-195250000D01*
X114710000Y-197940000D02*
X115050000Y-197940000D01*
D79*
X127750000Y-242000000D02*
X128420000Y-242000000D01*
D78*
X108045000Y-202410000D02*
X108045000Y-203660000D01*
D80*
X110240000Y-197940000D02*
X110300000Y-197940000D01*
X104950000Y-197940000D02*
X105550000Y-197940000D01*
X131810000Y-212840000D02*
X131810000Y-211490000D01*
X121470000Y-190560000D02*
X121470000Y-190400000D01*
X61225735Y-232560000D02*
X61540000Y-232560000D01*
X123850000Y-198475000D02*
X123850000Y-199550000D01*
X54850000Y-241175000D02*
X54850000Y-242150000D01*
X123140000Y-218070000D02*
X123130000Y-218070000D01*
X126750000Y-215600000D02*
X126750000Y-215700000D01*
D79*
X51560000Y-204525000D02*
X51375000Y-204525000D01*
D78*
X100845000Y-235245000D02*
X100580000Y-234980000D01*
D79*
X96723751Y-193237500D02*
X96733751Y-193227500D01*
D80*
X121470000Y-195150000D02*
X121470000Y-195060000D01*
X112650000Y-197940000D02*
X112970000Y-197940000D01*
X100080000Y-198540000D02*
X100090000Y-198540000D01*
D79*
X48000000Y-229360000D02*
X48000000Y-229200000D01*
D80*
X67589400Y-195224400D02*
X67589400Y-195149400D01*
D78*
X110545000Y-202410000D02*
X110545000Y-203660000D01*
D80*
X55180000Y-190580000D02*
X56050000Y-190580000D01*
D78*
X77660000Y-213690000D02*
X77655000Y-213695000D01*
D79*
X62880000Y-245930000D02*
X62855000Y-245905000D01*
D80*
X120262500Y-221275000D02*
X120262500Y-220950001D01*
D79*
X107130000Y-218500000D02*
X107150000Y-218500000D01*
D80*
X112060000Y-197940000D02*
X112650000Y-197940000D01*
X99950000Y-204700000D02*
X98550000Y-204700000D01*
D79*
X62855000Y-244395000D02*
X62855000Y-245905000D01*
D81*
X94645000Y-226708400D02*
X94645000Y-225605000D01*
D80*
X65375000Y-216600000D02*
X64390000Y-216600000D01*
X117450000Y-197940000D02*
X118250000Y-197940000D01*
X120880000Y-197940000D02*
X121140000Y-197680000D01*
D79*
X53750000Y-222625000D02*
X51400000Y-222625000D01*
D80*
X107950000Y-197940000D02*
X108450000Y-197940000D01*
X129070000Y-198950000D02*
X129070000Y-198080000D01*
D78*
X98600000Y-245050000D02*
X98600000Y-243510000D01*
X98500000Y-239920000D02*
X98510000Y-239910000D01*
D79*
X52450000Y-244830000D02*
X52450000Y-244690000D01*
D80*
X126910000Y-215860000D02*
X127397500Y-215860000D01*
D79*
X81855000Y-212785000D02*
X79590000Y-212785000D01*
D80*
X92075000Y-210025000D02*
X92075000Y-210050000D01*
X121470000Y-190400000D02*
X121470000Y-190130000D01*
X103200000Y-197940000D02*
X103300000Y-197940000D01*
X104800000Y-197940000D02*
X104950000Y-197940000D01*
X115600000Y-197940000D02*
X115850000Y-197940000D01*
D79*
X83560000Y-222930000D02*
X86020000Y-222930000D01*
D80*
X60170000Y-238200000D02*
X60160000Y-238210000D01*
D79*
X48000000Y-231310000D02*
X48000000Y-229400000D01*
X76140000Y-204460000D02*
X73690000Y-204460000D01*
D80*
X99660000Y-222340000D02*
X99640000Y-222340000D01*
D78*
X109295000Y-203660000D02*
X110545000Y-203660000D01*
D80*
X62230000Y-195270000D02*
X63180000Y-195270000D01*
X121470000Y-194150000D02*
X121470000Y-193550000D01*
D78*
X79845000Y-236750000D02*
X79845000Y-235175000D01*
D80*
X129050000Y-204330000D02*
X129050000Y-205195000D01*
D79*
X80880000Y-192720000D02*
X80920000Y-192680000D01*
D80*
X122900000Y-196200000D02*
X122900000Y-195200000D01*
X100340000Y-196680000D02*
X100340000Y-196220000D01*
X121470000Y-196790000D02*
X121470000Y-196700000D01*
X104150000Y-197940000D02*
X104800000Y-197940000D01*
X100340000Y-191970000D02*
X100340000Y-191780000D01*
X111050000Y-197940000D02*
X111180000Y-197940000D01*
X100340000Y-195880000D02*
X100340000Y-195380000D01*
X100340000Y-195380000D02*
X100340000Y-195080000D01*
X129000000Y-207565000D02*
X127725000Y-207565000D01*
D78*
X109295000Y-203660000D02*
X109295000Y-204910000D01*
D79*
X123550000Y-251700000D02*
X123550000Y-249800000D01*
D80*
X54065000Y-213040000D02*
X54075000Y-213050000D01*
D79*
X48020000Y-229380000D02*
X48000000Y-229360000D01*
X129363595Y-242943595D02*
X130460000Y-244040000D01*
D80*
X122151000Y-215509000D02*
X122140000Y-215520000D01*
X63290000Y-191440000D02*
X63275000Y-191425000D01*
D79*
X73680000Y-204450000D02*
X73650000Y-204450000D01*
D80*
X121470000Y-192340000D02*
X121470000Y-192000000D01*
D78*
X119600000Y-238000000D02*
X119600000Y-239210000D01*
D80*
X101030000Y-222340000D02*
X99660000Y-222340000D01*
X88805000Y-219780000D02*
X87820000Y-219780000D01*
D79*
X131400000Y-244040000D02*
X132000000Y-244640000D01*
D80*
X100340000Y-192810000D02*
X100340000Y-192580000D01*
D81*
X63280000Y-197510000D02*
X63280000Y-199330000D01*
D80*
X91420000Y-227890000D02*
X91410000Y-227890000D01*
X109350000Y-197940000D02*
X109500000Y-197940000D01*
D79*
X81300000Y-207000000D02*
X81300000Y-206000000D01*
D78*
X108045000Y-203660000D02*
X108045000Y-204910000D01*
X79850000Y-235170000D02*
X79845000Y-235175000D01*
D80*
X60160000Y-238210000D02*
X59160000Y-238210000D01*
X123140000Y-218070000D02*
X124050000Y-218070000D01*
X118650000Y-219337501D02*
X118650000Y-218900000D01*
D79*
X73690000Y-204460000D02*
X73680000Y-204450000D01*
D81*
X131300000Y-237220000D02*
X131300000Y-237740000D01*
D80*
X92500000Y-230450000D02*
X92500000Y-229710000D01*
X49809400Y-216715600D02*
X49800000Y-216725000D01*
X109295000Y-202410000D02*
X109295000Y-201605000D01*
X118250000Y-197940000D02*
X119550000Y-197940000D01*
D79*
X84950000Y-208550000D02*
X82400000Y-208550000D01*
D80*
X100340000Y-194530000D02*
X100340000Y-194230000D01*
X126750000Y-215700000D02*
X126910000Y-215860000D01*
D78*
X108045000Y-203660000D02*
X109295000Y-203660000D01*
X98580000Y-243490000D02*
X98600000Y-243510000D01*
D80*
X86600000Y-226275000D02*
X86115000Y-226275000D01*
X94030000Y-230100000D02*
X93540000Y-229610000D01*
D79*
X129363595Y-242943595D02*
X129353595Y-242953595D01*
D80*
X107570000Y-197940000D02*
X107950000Y-197940000D01*
X115050000Y-197940000D02*
X115600000Y-197940000D01*
X131150000Y-198920000D02*
X131150000Y-198060000D01*
X116650000Y-197940000D02*
X117380000Y-197940000D01*
D81*
X63280000Y-199330000D02*
X63300000Y-199350000D01*
D80*
X92100000Y-210000000D02*
X92075000Y-210025000D01*
X131140000Y-198050000D02*
X131150000Y-198060000D01*
X123850000Y-199550000D02*
X123800000Y-199600000D01*
X99640000Y-222340000D02*
X99500000Y-222200000D01*
D81*
X97900000Y-230580000D02*
X97900000Y-230500000D01*
D78*
X98510000Y-238660000D02*
X98510000Y-239910000D01*
D79*
X50200000Y-244700000D02*
X52440000Y-244700000D01*
D80*
X124050000Y-219050000D02*
X124050000Y-218070000D01*
X123130000Y-218070000D02*
X123100000Y-218100000D01*
X108450000Y-197940000D02*
X108750000Y-197940000D01*
X100340000Y-190290000D02*
X100340000Y-190190000D01*
X120700000Y-197940000D02*
X120880000Y-197940000D01*
D81*
X97900000Y-231955000D02*
X97900000Y-230580000D01*
D80*
X100090000Y-198540000D02*
X100100000Y-198550000D01*
X108750000Y-197940000D02*
X109350000Y-197940000D01*
X61225735Y-232560000D02*
X61160000Y-232625735D01*
D79*
X66000000Y-219025000D02*
X68605000Y-219025000D01*
D80*
X99850000Y-199800000D02*
X99850000Y-198770000D01*
X102050000Y-197940000D02*
X103200000Y-197940000D01*
X111850000Y-197940000D02*
X112060000Y-197940000D01*
D79*
X79575000Y-212770000D02*
X79590000Y-212785000D01*
X107130000Y-220010000D02*
X107130000Y-218500000D01*
D78*
X100520000Y-234980000D02*
X100500000Y-235000000D01*
D79*
X54600000Y-231425000D02*
X54600000Y-233280000D01*
X52440000Y-244700000D02*
X52450000Y-244690000D01*
D78*
X110545000Y-203660000D02*
X110545000Y-204910000D01*
%TO.N,VPP*%
D79*
X121410000Y-234250000D02*
X121400000Y-234250000D01*
X122280000Y-236580000D02*
X122280000Y-238950000D01*
D78*
X96355000Y-235075000D02*
X96370000Y-235060000D01*
D79*
X122280000Y-236580000D02*
X122280000Y-235120000D01*
D78*
X98150000Y-235490000D02*
X98150000Y-235400000D01*
D80*
X138099000Y-201470000D02*
X138099000Y-238721000D01*
D79*
X123350000Y-242000000D02*
X123350000Y-245630000D01*
D78*
X98510000Y-236760000D02*
X98510000Y-235850000D01*
X119600000Y-234840000D02*
X119600000Y-234800000D01*
D80*
X138099000Y-238721000D02*
X137300000Y-239520000D01*
D79*
X121080000Y-241550000D02*
X121330000Y-241800000D01*
D78*
X98510000Y-235850000D02*
X98150000Y-235490000D01*
X119600000Y-236100000D02*
X119600000Y-234840000D01*
D80*
X119220000Y-222890000D02*
X119220000Y-228200000D01*
D79*
X121330000Y-241800000D02*
X123150000Y-241800000D01*
X122280000Y-235120000D02*
X121410000Y-234250000D01*
D80*
X137300000Y-239520000D02*
X124620000Y-239520000D01*
X137295000Y-198995000D02*
X137950000Y-199650000D01*
X133240000Y-198995000D02*
X137295000Y-198995000D01*
X119220000Y-228200000D02*
X121180000Y-230160000D01*
D79*
X123350000Y-245630000D02*
X123480000Y-245760000D01*
D80*
X118040000Y-221710000D02*
X119220000Y-222890000D01*
D78*
X117355000Y-236750000D02*
X117355000Y-234905000D01*
D80*
X137950000Y-199650000D02*
X138099000Y-199799000D01*
D79*
X122270000Y-238960000D02*
X122280000Y-238950000D01*
X123150000Y-241800000D02*
X123350000Y-242000000D01*
D80*
X121180000Y-230160000D02*
X121180000Y-230170000D01*
D78*
X117350000Y-234900000D02*
X117355000Y-234905000D01*
D80*
X111985000Y-221710000D02*
X118040000Y-221710000D01*
X138099000Y-199799000D02*
X138099000Y-201470000D01*
D78*
X96355000Y-236750000D02*
X96355000Y-235075000D01*
D80*
X124560000Y-239460000D02*
X124620000Y-239520000D01*
%TO.N,CLOCK*%
X99320000Y-235160000D02*
X98480000Y-234320000D01*
X98480000Y-234320000D02*
X90370000Y-234320000D01*
X79845000Y-243825000D02*
X78200000Y-242180000D01*
X78200000Y-242180000D02*
X78200000Y-235390000D01*
X89200000Y-233150000D02*
X89200000Y-232000000D01*
X79845000Y-246050000D02*
X79845000Y-243825000D01*
X90370000Y-234320000D02*
X89200000Y-233150000D01*
X88060000Y-234290000D02*
X89200000Y-233150000D01*
X78200000Y-235390000D02*
X79300000Y-234290000D01*
X100860000Y-244230000D02*
X100845000Y-244245000D01*
X100845000Y-246050000D02*
X100845000Y-244245000D01*
X79300000Y-234290000D02*
X88060000Y-234290000D01*
%TO.N,DATA_IN*%
X95070000Y-243050000D02*
X95084999Y-243064999D01*
X89850000Y-232000000D02*
X89850000Y-232670000D01*
X89850000Y-232670000D02*
X90490000Y-233310000D01*
X95084999Y-243064999D02*
X95084999Y-246050000D01*
%TO.N,Net-(HV5812WG1-DATAOUT)*%
X116084999Y-243684999D02*
X116084999Y-246050000D01*
X95084999Y-238614999D02*
X97230000Y-240760000D01*
X113160000Y-240760000D02*
X116084999Y-243684999D01*
X95084999Y-236750000D02*
X95084999Y-238614999D01*
X97230000Y-240760000D02*
X113160000Y-240760000D01*
%TO.N,STROBE*%
X78760000Y-248010000D02*
X77360000Y-246610000D01*
X81115001Y-247375001D02*
X81910000Y-248170000D01*
X81115001Y-246050000D02*
X81115001Y-247375001D01*
X77360000Y-246610000D02*
X77360000Y-235190000D01*
X77360000Y-235190000D02*
X79320000Y-233230000D01*
X87570000Y-233230000D02*
X87900000Y-232900000D01*
X81115001Y-247414999D02*
X80520000Y-248010000D01*
X81115001Y-247375001D02*
X81115001Y-247414999D01*
X101210000Y-248170000D02*
X102115001Y-247264999D01*
X79320000Y-233230000D02*
X87570000Y-233230000D01*
X80520000Y-248010000D02*
X78760000Y-248010000D01*
X87900000Y-232900000D02*
X87900000Y-232000000D01*
X102115001Y-247264999D02*
X102115001Y-246050000D01*
X101090000Y-248170000D02*
X101210000Y-248170000D01*
%TO.N,BLANKING*%
X102115001Y-235335001D02*
X102115001Y-236750000D01*
X91030000Y-230740000D02*
X91640000Y-231350000D01*
X91640000Y-231350000D02*
X93140000Y-231350000D01*
X88800000Y-230740000D02*
X91030000Y-230740000D01*
X87830000Y-233750000D02*
X81900000Y-233750000D01*
X93140000Y-231350000D02*
X93560000Y-231770000D01*
X81130000Y-236735001D02*
X81115001Y-236750000D01*
X93560000Y-231770000D02*
X93560000Y-232420000D01*
X88550000Y-230990000D02*
X88800000Y-230740000D01*
X88550000Y-232000000D02*
X88550000Y-233030000D01*
X100600000Y-233820000D02*
X102115001Y-235335001D01*
X94960000Y-233820000D02*
X100600000Y-233820000D01*
X88550000Y-232000000D02*
X88550000Y-230990000D01*
X88550000Y-233030000D02*
X87830000Y-233750000D01*
X81900000Y-233750000D02*
X81900000Y-233755000D01*
X93560000Y-232420000D02*
X94960000Y-233820000D01*
X81130000Y-235180000D02*
X81130000Y-236735001D01*
%TO.N,Net-(U1-GPIO2{slash}ADC1_CH2)*%
X121710000Y-200000000D02*
X120920000Y-199210000D01*
X120920000Y-199210000D02*
X119550000Y-199210000D01*
X127885000Y-202505000D02*
X127800000Y-202420000D01*
X131120000Y-202505000D02*
X129050000Y-202505000D01*
X121710000Y-201600000D02*
X121710000Y-200000000D01*
X129050000Y-202505000D02*
X127885000Y-202505000D01*
%TO.N,Net-(IVLM3-5/1-F-Pad7)*%
D79*
X119381000Y-251876000D02*
X119390000Y-251885000D01*
X116900000Y-251876000D02*
X119381000Y-251876000D01*
%TO.N,G3*%
D80*
X107195000Y-234905000D02*
X107195000Y-236750000D01*
X107200000Y-234900000D02*
X107195000Y-234905000D01*
X107200000Y-234800000D02*
X107200000Y-234900000D01*
X107200000Y-234700000D02*
X107200000Y-234800000D01*
%TO.N,BLUE4*%
X90650000Y-250250000D02*
X88735000Y-248335000D01*
X90650000Y-251576000D02*
X90650000Y-250250000D01*
X88735000Y-248335000D02*
X88735000Y-246050000D01*
%TO.N,BLUE7*%
X90005000Y-238445000D02*
X90005000Y-236750000D01*
X86775735Y-241674265D02*
X90005000Y-238445000D01*
%TO.N,RED5*%
X80550000Y-240090000D02*
X82385000Y-238255000D01*
X82385000Y-238255000D02*
X82385000Y-236750000D01*
X80550000Y-244390000D02*
X80550000Y-240090000D01*
%TO.N,GREEN7*%
X89468603Y-240281397D02*
X91275000Y-238475000D01*
X89017132Y-240281397D02*
X89468603Y-240281397D01*
X91275000Y-238475000D02*
X91275000Y-236749999D01*
%TO.N,G4*%
X108465000Y-234735000D02*
X108465000Y-236750000D01*
X108500000Y-234700000D02*
X108465000Y-234735000D01*
%TO.N,GREEN5*%
X82385000Y-244515000D02*
X82385000Y-246050000D01*
X83050000Y-239250000D02*
X83050000Y-243850000D01*
X83050000Y-243850000D02*
X82385000Y-244515000D01*
X82820000Y-239020000D02*
X83050000Y-239250000D01*
%TO.N,RED3*%
X91275000Y-247075000D02*
X91275000Y-246050001D01*
X94400000Y-251676000D02*
X94400000Y-250200000D01*
X94400000Y-250200000D02*
X91275000Y-247075000D01*
%TO.N,BLUE1*%
X113150000Y-251876000D02*
X113150000Y-249750000D01*
X114815000Y-248085000D02*
X114815000Y-246050000D01*
X113150000Y-249750000D02*
X114815000Y-248085000D01*
%TO.N,RED7*%
X92545000Y-238155000D02*
X92545000Y-236750000D01*
X89400000Y-241050000D02*
X89650000Y-241050000D01*
X89650000Y-241050000D02*
X92545000Y-238155000D01*
%TO.N,G5*%
X109750000Y-234700000D02*
X109735000Y-234715000D01*
X109735000Y-234715000D02*
X109735000Y-236750000D01*
%TO.N,BLUE2*%
X105650000Y-251776000D02*
X105650000Y-251200000D01*
X105650000Y-251200000D02*
X109735000Y-247115000D01*
X109735000Y-247115000D02*
X109735000Y-246050000D01*
%TO.N,Net-(IVLM3-5/1-F-Pad1)*%
D79*
X133925000Y-204510000D02*
X133925000Y-206001000D01*
X133925000Y-206001000D02*
X135800000Y-207876000D01*
%TO.N,GREEN3*%
D80*
X92545000Y-243190000D02*
X92545000Y-243300000D01*
X92545000Y-243300000D02*
X92545000Y-246050000D01*
%TO.N,G2*%
X105950000Y-234700000D02*
X105925000Y-234725000D01*
X105925000Y-234725000D02*
X105925000Y-236749999D01*
%TO.N,RED6*%
X85200000Y-242350000D02*
X87465000Y-240085000D01*
X87465000Y-240085000D02*
X87465000Y-236750000D01*
X85200000Y-242400000D02*
X85200000Y-242350000D01*
%TO.N,GREEN2*%
X94195000Y-240845000D02*
X94250000Y-240900000D01*
X95840000Y-242490000D02*
X107090000Y-242490000D01*
X107090000Y-242490000D02*
X108465000Y-243865000D01*
X108465000Y-243865000D02*
X108465000Y-246050000D01*
X94250000Y-240900000D02*
X95840000Y-242490000D01*
%TO.N,BLUE5*%
X83655000Y-248795000D02*
X83655000Y-246050000D01*
X83150000Y-251576000D02*
X83150000Y-249300000D01*
X83150000Y-249300000D02*
X83655000Y-248795000D01*
%TO.N,G1*%
X104650000Y-234700000D02*
X104655000Y-234705000D01*
X104655000Y-234705000D02*
X104655000Y-236750000D01*
%TO.N,BLUE6*%
X83900000Y-242900000D02*
X83900000Y-242250000D01*
X83700000Y-243100000D02*
X83900000Y-242900000D01*
X84925000Y-241225000D02*
X84925000Y-236749999D01*
X83900000Y-242250000D02*
X84925000Y-241225000D01*
X83650000Y-243150000D02*
X83700000Y-243100000D01*
%TO.N,GREEN1*%
X112230000Y-241530000D02*
X113545000Y-242845000D01*
X113545000Y-242845000D02*
X113545000Y-246050000D01*
X94110000Y-239410000D02*
X94120000Y-239410000D01*
X93390000Y-238690000D02*
X94110000Y-239410000D01*
X94120000Y-239410000D02*
X96240000Y-241530000D01*
X96240000Y-241530000D02*
X112230000Y-241530000D01*
%TO.N,GREEN4*%
X91000000Y-241450000D02*
X87465000Y-244985000D01*
X87465000Y-244985000D02*
X87465000Y-246050000D01*
%TO.N,GREEN6*%
X85900000Y-239350000D02*
X86195000Y-239055000D01*
X86195000Y-239055000D02*
X86195000Y-236750000D01*
%TO.N,RED4*%
X86900000Y-249100000D02*
X86195000Y-248395000D01*
X86195000Y-248395000D02*
X86195000Y-246050000D01*
X86900000Y-251576000D02*
X86900000Y-249100000D01*
%TO.N,RED2*%
X101900000Y-251150000D02*
X103700000Y-249350000D01*
X101900000Y-251776000D02*
X101900000Y-251150000D01*
X103700000Y-249350000D02*
X104750000Y-249350000D01*
X107195000Y-246905000D02*
X107195000Y-246050000D01*
X104750000Y-249350000D02*
X107195000Y-246905000D01*
%TO.N,BLUE3*%
X98126000Y-251726000D02*
X93815000Y-247415000D01*
X98150000Y-251726000D02*
X98126000Y-251726000D01*
X93815000Y-247415000D02*
X93815000Y-246050000D01*
%TO.N,RED1*%
X109400000Y-251826000D02*
X109400000Y-250450000D01*
X112275000Y-247575000D02*
X112275000Y-246050001D01*
X109400000Y-250450000D02*
X112275000Y-247575000D01*
%TO.N,F*%
X131120000Y-204330000D02*
X132020000Y-204330000D01*
X132020000Y-204330000D02*
X133130000Y-203220000D01*
D79*
X135770000Y-204530000D02*
X135750000Y-204510000D01*
X120420000Y-248300000D02*
X127670000Y-248300000D01*
X127880000Y-248510000D02*
X127880000Y-247310000D01*
D80*
X136370000Y-203220000D02*
X137049000Y-203899000D01*
D79*
X127880000Y-247310000D02*
X127880000Y-244550000D01*
X127940000Y-251700000D02*
X127940000Y-247370000D01*
D80*
X137049000Y-203899000D02*
X137049000Y-204530000D01*
D79*
X137049000Y-204530000D02*
X135770000Y-204530000D01*
X127670000Y-248300000D02*
X127880000Y-248510000D01*
X119390000Y-250060000D02*
X119390000Y-249330000D01*
D80*
X133130000Y-203220000D02*
X136370000Y-203220000D01*
D79*
X119390000Y-249330000D02*
X120420000Y-248300000D01*
X127940000Y-247370000D02*
X127880000Y-247310000D01*
%TO.N,Net-(U6-REF)*%
D80*
X96630000Y-231955000D02*
X94725000Y-231955000D01*
X94725000Y-231955000D02*
X94680000Y-232000000D01*
%TO.N,VBUS*%
D79*
X63970000Y-226670000D02*
X64100000Y-226800000D01*
X57980000Y-197487500D02*
X57980000Y-197880000D01*
X59000000Y-229200000D02*
X59430000Y-229200000D01*
X100453116Y-220800000D02*
X100344818Y-220908298D01*
D80*
X130550000Y-215650000D02*
X130340000Y-215860000D01*
D79*
X60525000Y-209635000D02*
X60510000Y-209650000D01*
D80*
X130571891Y-214983802D02*
X130566198Y-214983802D01*
X101030000Y-225525002D02*
X101300000Y-225795002D01*
D79*
X61700000Y-210840000D02*
X60510000Y-209650000D01*
X129565000Y-225825000D02*
X129520000Y-225870000D01*
D80*
X130340000Y-215860000D02*
X129922500Y-215860000D01*
X130550000Y-215000000D02*
X130550000Y-215650000D01*
D79*
X57800000Y-213500000D02*
X57800000Y-212360000D01*
D80*
X130566198Y-214983802D02*
X130550000Y-215000000D01*
D79*
X63900000Y-210840000D02*
X61700000Y-210840000D01*
X63970000Y-226590000D02*
X63970000Y-226670000D01*
X47960000Y-238290000D02*
X48000000Y-238250000D01*
X60525000Y-207925000D02*
X63850000Y-207925000D01*
D80*
X45085000Y-208310000D02*
X45075000Y-208300000D01*
D79*
X59000000Y-227575000D02*
X59000000Y-229200000D01*
X131300000Y-225825000D02*
X129565000Y-225825000D01*
X60550000Y-226025000D02*
X63405000Y-226025000D01*
X48000000Y-236410000D02*
X48000000Y-238250000D01*
X59430000Y-229200000D02*
X59505000Y-229275000D01*
D81*
X59100000Y-199000000D02*
X60330000Y-197770000D01*
D79*
X101260000Y-220010000D02*
X100470000Y-220800000D01*
X63405000Y-226025000D02*
X63970000Y-226590000D01*
D81*
X60330000Y-197510000D02*
X60330000Y-195270000D01*
D80*
X101300000Y-225795002D02*
X101325000Y-225795002D01*
D81*
X60330000Y-197770000D02*
X60330000Y-197510000D01*
D80*
X101030000Y-224240000D02*
X101030000Y-225525002D01*
D79*
X100470000Y-220800000D02*
X100453116Y-220800000D01*
X59000000Y-229200000D02*
X59000000Y-231425000D01*
X102730000Y-220010000D02*
X101260000Y-220010000D01*
X63850000Y-207925000D02*
X63875000Y-207900000D01*
X57800000Y-212360000D02*
X60510000Y-209650000D01*
D80*
X51814000Y-215011000D02*
X51800000Y-215025000D01*
X52912000Y-215011000D02*
X51814000Y-215011000D01*
X45085000Y-209731600D02*
X45085000Y-208310000D01*
D79*
X57980000Y-197880000D02*
X59100000Y-199000000D01*
D80*
X101325000Y-225795002D02*
X101350000Y-225820002D01*
D79*
X59505000Y-229275000D02*
X62000000Y-229275000D01*
D81*
X99180000Y-228240000D02*
X99170000Y-228230000D01*
D79*
X60525000Y-207925000D02*
X60525000Y-209635000D01*
D81*
X99170000Y-226805000D02*
X99170000Y-228230000D01*
D79*
X124210000Y-223500000D02*
X126920000Y-223500000D01*
X60550000Y-226025000D02*
X59000000Y-227575000D01*
X126940000Y-223520000D02*
X126920000Y-223500000D01*
%TO.N,+3.3V*%
D80*
X121700000Y-219340148D02*
X121700000Y-218850000D01*
X121700000Y-218850000D02*
X121700000Y-218800000D01*
X128423909Y-217711446D02*
X128410000Y-217711446D01*
X123955000Y-207565000D02*
X124775000Y-207565000D01*
D79*
X102050000Y-199210000D02*
X103570000Y-199210000D01*
D80*
X127290000Y-201110000D02*
X127340000Y-201110000D01*
X126340000Y-201110000D02*
X127290000Y-201110000D01*
X97987500Y-199837500D02*
X97950000Y-199800000D01*
D79*
X96733751Y-197330000D02*
X98206249Y-197330000D01*
D80*
X122940000Y-211530000D02*
X121850000Y-211530000D01*
D79*
X80920000Y-196400000D02*
X80920000Y-195800000D01*
X82285000Y-197765000D02*
X80920000Y-196400000D01*
X98206249Y-197330000D02*
X98883749Y-198007500D01*
D80*
X128895395Y-217740000D02*
X128910000Y-217740000D01*
X91450000Y-225990000D02*
X91150000Y-226290000D01*
X127340000Y-201110000D02*
X127350000Y-201100000D01*
X124800000Y-196200000D02*
X124800000Y-195200000D01*
D79*
X89150000Y-206830000D02*
X89150000Y-208350000D01*
D80*
X111985000Y-219620000D02*
X112460000Y-219620000D01*
X91135000Y-226275000D02*
X91150000Y-226290000D01*
X90500000Y-226275000D02*
X91135000Y-226275000D01*
X128700000Y-217935395D02*
X128895395Y-217740000D01*
X92580000Y-225990000D02*
X91450000Y-225990000D01*
D79*
X81855000Y-215065000D02*
X86235000Y-215065000D01*
X98883749Y-198007500D02*
X98892500Y-198007500D01*
D80*
X78350000Y-199400000D02*
X79450000Y-199400000D01*
X126800000Y-199330000D02*
X126790000Y-199340000D01*
X129895000Y-214597500D02*
X129920000Y-214622500D01*
X127290000Y-203120000D02*
X127280000Y-203130000D01*
D79*
X79627500Y-215065000D02*
X79555000Y-214992500D01*
D80*
X112460000Y-219620000D02*
X113470000Y-218610000D01*
D79*
X81855000Y-215065000D02*
X79627500Y-215065000D01*
D80*
X126800000Y-198400000D02*
X126800000Y-199330000D01*
X88600000Y-204800000D02*
X87930000Y-204800000D01*
D79*
X89150000Y-208350000D02*
X89350000Y-208550000D01*
D80*
X121830000Y-211510000D02*
X121850000Y-211530000D01*
X113460000Y-218610000D02*
X113450000Y-218600000D01*
X128700000Y-217950000D02*
X128662463Y-217950000D01*
X126330000Y-203130000D02*
X127280000Y-203130000D01*
D79*
X104310000Y-199950000D02*
X104350000Y-199950000D01*
D80*
X128662463Y-217950000D02*
X128423909Y-217711446D01*
X121039148Y-220001000D02*
X121700000Y-219340148D01*
X96312500Y-199812500D02*
X96325000Y-199800000D01*
X121840000Y-213490000D02*
X121864000Y-213514000D01*
X124775000Y-207565000D02*
X124775000Y-205465000D01*
X96325000Y-197738751D02*
X96733751Y-197330000D01*
X92400000Y-203400000D02*
X92400000Y-202612500D01*
X129910000Y-212840000D02*
X129910000Y-214612500D01*
D79*
X98892500Y-198007500D02*
X98900000Y-198000000D01*
D80*
X123630000Y-207240000D02*
X123955000Y-207565000D01*
X128910000Y-217740000D02*
X128910000Y-217122500D01*
X129410000Y-214597500D02*
X129895000Y-214597500D01*
X123630000Y-206920000D02*
X123630000Y-207240000D01*
X120262500Y-219702648D02*
X120560852Y-220001000D01*
X120262500Y-219425000D02*
X120262500Y-219702648D01*
X128700000Y-217950000D02*
X128700000Y-217935395D01*
X120560852Y-220001000D02*
X121039148Y-220001000D01*
X129922500Y-215360000D02*
X129922500Y-214625000D01*
X96312500Y-201900000D02*
X96312500Y-199812500D01*
X124775000Y-205465000D02*
X124770000Y-205460000D01*
X87930000Y-204800000D02*
X87900000Y-204800000D01*
X122946000Y-213514000D02*
X121864000Y-213514000D01*
X92400000Y-203400000D02*
X92400000Y-203450000D01*
X97987500Y-201900000D02*
X97987500Y-199837500D01*
D79*
X103570000Y-199210000D02*
X104310000Y-199950000D01*
X86235000Y-215065000D02*
X88155000Y-215065000D01*
D80*
X113470000Y-218610000D02*
X113460000Y-218610000D01*
X128410000Y-217711446D02*
X128410000Y-217122500D01*
X129910000Y-214612500D02*
X129920000Y-214622500D01*
X96325000Y-199800000D02*
X97950000Y-199800000D01*
X129922500Y-214625000D02*
X129920000Y-214622500D01*
X96325000Y-199800000D02*
X96325000Y-197738751D01*
%TO.N,Net-(U1-GPIO1{slash}ADC1_CH1{slash}XTAL_32K_N)*%
X98650000Y-208250000D02*
X99950000Y-208250000D01*
X97850000Y-213900000D02*
X97850000Y-209050000D01*
X100100000Y-208100000D02*
X99950000Y-208250000D01*
X96200000Y-215550000D02*
X97850000Y-213900000D01*
X102050000Y-208100000D02*
X100100000Y-208100000D01*
X97850000Y-209050000D02*
X98650000Y-208250000D01*
%TO.N,/4728_RDY*%
X124775000Y-209565000D02*
X124775000Y-211520000D01*
X124775000Y-211520000D02*
X124765000Y-211530000D01*
%TO.N,Net-(U1-GPIO0{slash}ADC1_CH0{slash}XTAL_32K_P)*%
X102050000Y-206830000D02*
X100180000Y-206830000D01*
X100180000Y-206830000D02*
X99950000Y-206600000D01*
X99950000Y-206600000D02*
X96650000Y-206600000D01*
X96650000Y-206600000D02*
X96200000Y-207050000D01*
%TO.N,TX1*%
X112550000Y-204570000D02*
X111120000Y-206000000D01*
X119550000Y-201750000D02*
X115370000Y-201750000D01*
X111120000Y-206000000D02*
X106340000Y-206000000D01*
X115370000Y-201750000D02*
X112550000Y-204570000D01*
%TO.N,Net-(D2-K)*%
D79*
X66280000Y-235680000D02*
X66280000Y-245070000D01*
X63830000Y-247520000D02*
X60460000Y-247520000D01*
X67530000Y-234430000D02*
X66280000Y-235680000D01*
X76900000Y-230510000D02*
X77760000Y-229650000D01*
X60460000Y-247520000D02*
X57860000Y-250120000D01*
X74920000Y-232390000D02*
X72880000Y-234430000D01*
X74910000Y-222930000D02*
X74900000Y-222940000D01*
X57860000Y-251250000D02*
X57820000Y-251290000D01*
X74920000Y-230510000D02*
X74920000Y-232390000D01*
X79160000Y-222930000D02*
X74910000Y-222930000D01*
X57860000Y-251250000D02*
X57860000Y-252430000D01*
X57860000Y-250120000D02*
X57860000Y-251250000D01*
D80*
X75100000Y-222740000D02*
X74900000Y-222940000D01*
D79*
X125931000Y-253849000D02*
X126205000Y-253575000D01*
X74920000Y-230510000D02*
X74920000Y-222960000D01*
X74920000Y-222960000D02*
X74900000Y-222940000D01*
X57860000Y-252430000D02*
X59279000Y-253849000D01*
X79170000Y-222920000D02*
X79160000Y-222930000D01*
D80*
X75100000Y-219500000D02*
X75100000Y-222740000D01*
D79*
X74920000Y-230510000D02*
X76900000Y-230510000D01*
X126205000Y-253575000D02*
X127940000Y-253575000D01*
X59279000Y-253849000D02*
X125931000Y-253849000D01*
X72880000Y-234430000D02*
X67530000Y-234430000D01*
X66280000Y-245070000D02*
X63830000Y-247520000D01*
X77760000Y-229650000D02*
X78560000Y-229650000D01*
%TO.N,Net-(SW1-B)*%
D80*
X88700000Y-199400000D02*
X89300000Y-198800000D01*
X88700000Y-200900000D02*
X88700000Y-199400000D01*
X87150000Y-200900000D02*
X88700000Y-200900000D01*
X90400000Y-198800000D02*
X91800000Y-198800000D01*
X91800000Y-198800000D02*
X92800000Y-199800000D01*
X89300000Y-198800000D02*
X90400000Y-198800000D01*
X92800000Y-199800000D02*
X94500000Y-199800000D01*
X90400000Y-190850000D02*
X90400000Y-198800000D01*
X88600000Y-201000000D02*
X88700000Y-200900000D01*
X88600000Y-202900000D02*
X88600000Y-201000000D01*
%TO.N,Net-(D1-A)*%
D79*
X117920000Y-228590000D02*
X121780000Y-232450000D01*
X124210000Y-232450000D02*
X126830000Y-235070000D01*
X121780000Y-232450000D02*
X124210000Y-232450000D01*
X113865000Y-228590000D02*
X117920000Y-228590000D01*
X126830000Y-235070000D02*
X126830000Y-236800000D01*
X127050000Y-236580000D02*
X127080000Y-236580000D01*
%TO.N,Net-(D3-K)*%
X66000000Y-230480000D02*
X65970000Y-230510000D01*
X64035000Y-223825000D02*
X66000000Y-223825000D01*
X63535000Y-224325000D02*
X64035000Y-223825000D01*
X66000000Y-223825000D02*
X66000000Y-230480000D01*
X60550000Y-224325000D02*
X63535000Y-224325000D01*
%TO.N,Net-(D4-K)*%
X66860000Y-208560000D02*
X68585000Y-208560000D01*
X68600000Y-208575000D02*
X68615000Y-208560000D01*
X72860000Y-208560000D02*
X73560000Y-209260000D01*
X68585000Y-208560000D02*
X68600000Y-208575000D01*
X73560000Y-209260000D02*
X76140000Y-209260000D01*
X64525000Y-206225000D02*
X66860000Y-208560000D01*
X60525000Y-206225000D02*
X64525000Y-206225000D01*
X68615000Y-208560000D02*
X72860000Y-208560000D01*
%TO.N,RX1*%
D80*
X111710000Y-206690000D02*
X106340000Y-206690000D01*
X112290000Y-206110000D02*
X111710000Y-206690000D01*
X115380000Y-203020000D02*
X112290000Y-206110000D01*
X119550000Y-203020000D02*
X115380000Y-203020000D01*
%TO.N,Net-(F1-Pad1)*%
D81*
X131300000Y-236420000D02*
X129651569Y-236420000D01*
X130470000Y-227700000D02*
X131300000Y-227700000D01*
X129690000Y-230150000D02*
X129690000Y-230450000D01*
X129690000Y-230950000D02*
X129690000Y-230150000D01*
X131300000Y-231620000D02*
X130360000Y-231620000D01*
X129637888Y-236433681D02*
X129651569Y-236420000D01*
X129690000Y-228480000D02*
X130470000Y-227700000D01*
X130360000Y-231620000D02*
X129690000Y-230950000D01*
X129690000Y-230150000D02*
X129690000Y-228480000D01*
%TO.N,BACKWARD_DETECT*%
D80*
X41200000Y-240430000D02*
X41200000Y-242100000D01*
X94820000Y-203020000D02*
X94487500Y-202687500D01*
X94487500Y-202687500D02*
X94487500Y-201900000D01*
X94487500Y-202172500D02*
X94487500Y-201900000D01*
X43930000Y-215770000D02*
X43930000Y-237700000D01*
X43930000Y-237700000D02*
X41200000Y-240430000D01*
X102050000Y-203020000D02*
X94820000Y-203020000D01*
X47879000Y-214010000D02*
X45690000Y-214010000D01*
X45690000Y-214010000D02*
X43930000Y-215770000D01*
X91930000Y-204730000D02*
X94487500Y-202172500D01*
%TO.N,Net-(Q1-S)*%
D79*
X104715000Y-231130000D02*
X102320000Y-231130000D01*
X95160600Y-229049000D02*
X94645000Y-228533400D01*
X95522712Y-229020000D02*
X95493712Y-229049000D01*
X95493712Y-229049000D02*
X95160600Y-229049000D01*
X102320000Y-231130000D02*
X100995000Y-229805000D01*
X96350000Y-229020000D02*
X95522712Y-229020000D01*
X96690000Y-229360000D02*
X96350000Y-229020000D01*
D80*
X100440000Y-231955000D02*
X100440000Y-230360000D01*
D79*
X100995000Y-229805000D02*
X100550000Y-229360000D01*
X100550000Y-229360000D02*
X96690000Y-229360000D01*
D80*
X100440000Y-230360000D02*
X100995000Y-229805000D01*
%TO.N,Net-(IVLM3-5/1-F2)*%
D79*
X61740000Y-249000000D02*
X64860000Y-249000000D01*
X64860000Y-249000000D02*
X72005000Y-241855000D01*
X60650000Y-250090000D02*
X61740000Y-249000000D01*
X60650000Y-251476000D02*
X60650000Y-250090000D01*
%TO.N,USB_D-*%
D82*
X126060268Y-227754500D02*
X127745500Y-229439732D01*
X120845500Y-226239732D02*
X122360268Y-227754500D01*
D80*
X130430000Y-234770000D02*
X130400000Y-234800000D01*
D82*
X120408000Y-221967001D02*
X120408000Y-222102232D01*
X130369999Y-233770000D02*
X131300000Y-233770000D01*
X130265499Y-233874500D02*
X130369999Y-233770000D01*
X120800000Y-221575001D02*
X120408000Y-221967001D01*
X127745500Y-231839732D02*
X129780268Y-233874500D01*
X122360268Y-227754500D02*
X126060268Y-227754500D01*
X129780268Y-233874500D02*
X130265499Y-233874500D01*
X120800000Y-221200000D02*
X120800000Y-221575001D01*
X120408000Y-222102232D02*
X120845500Y-222539732D01*
D80*
X131300000Y-234770000D02*
X130430000Y-234770000D01*
D82*
X120845500Y-222539732D02*
X120845500Y-226239732D01*
X127745500Y-229439732D02*
X127745500Y-231839732D01*
%TO.N,RX2*%
D80*
X46480000Y-214700000D02*
X44550000Y-216630000D01*
X115450000Y-207670000D02*
X115380000Y-207740000D01*
X117250000Y-206830000D02*
X116410000Y-207670000D01*
X44975000Y-243335000D02*
X46280000Y-244640000D01*
X116410000Y-207670000D02*
X115450000Y-207670000D01*
X119550000Y-206830000D02*
X117250000Y-206830000D01*
X44550000Y-239975000D02*
X44975000Y-240400000D01*
X44550000Y-216630000D02*
X44550000Y-239975000D01*
X44975000Y-240400000D02*
X44975000Y-243335000D01*
X47904400Y-214700000D02*
X46480000Y-214700000D01*
%TO.N,USB_D+*%
X132230000Y-234270000D02*
X131300000Y-234270000D01*
X131300000Y-233270000D02*
X132270000Y-233270000D01*
D82*
X127454500Y-229560268D02*
X127454500Y-231960268D01*
D80*
X132600000Y-233600000D02*
X132600000Y-233900000D01*
D82*
X129659732Y-234165500D02*
X130265499Y-234165500D01*
X120117000Y-221967001D02*
X120117000Y-222222768D01*
X125939732Y-228045500D02*
X127454500Y-229560268D01*
X120117000Y-222222768D02*
X120554500Y-222660268D01*
X120554500Y-226360268D02*
X122239732Y-228045500D01*
X130265499Y-234165500D02*
X130369999Y-234270000D01*
D80*
X132600000Y-233900000D02*
X132230000Y-234270000D01*
D82*
X119725000Y-221575001D02*
X120117000Y-221967001D01*
X120554500Y-222660268D02*
X120554500Y-226360268D01*
D80*
X132270000Y-233270000D02*
X132600000Y-233600000D01*
D82*
X127454500Y-231960268D02*
X129659732Y-234165500D01*
X130369999Y-234270000D02*
X131300000Y-234270000D01*
X119725000Y-221200000D02*
X119725000Y-221575001D01*
X122239732Y-228045500D02*
X125939732Y-228045500D01*
%TO.N,Net-(J1-CC1)*%
D80*
X130330000Y-218810000D02*
X133550000Y-222030000D01*
X125950000Y-220150000D02*
X125950000Y-218070000D01*
X134400000Y-229000000D02*
X134400000Y-233200000D01*
X127397500Y-216887500D02*
X127632500Y-217122500D01*
X134400000Y-233200000D02*
X132330000Y-235270000D01*
X132330000Y-235270000D02*
X131300000Y-235270000D01*
X127960000Y-218070000D02*
X128000000Y-218030000D01*
X128000000Y-218030000D02*
X127910000Y-217940000D01*
X127397500Y-216360000D02*
X127397500Y-216887500D01*
X125950000Y-218070000D02*
X127960000Y-218070000D01*
X133550000Y-222030000D02*
X133550000Y-228150000D01*
X127632500Y-217122500D02*
X127910000Y-217122500D01*
X129945735Y-218810000D02*
X130330000Y-218810000D01*
X128740000Y-218770000D02*
X128000000Y-218030000D01*
X127910000Y-217940000D02*
X127910000Y-217122500D01*
X133550000Y-228150000D02*
X134400000Y-229000000D01*
%TO.N,Net-(J1-CC2)*%
X131400000Y-216050000D02*
X131400000Y-218050000D01*
X129420000Y-218060000D02*
X129410000Y-218050000D01*
X129444735Y-219017521D02*
X129444735Y-219004735D01*
X131400000Y-218050000D02*
X131390000Y-218060000D01*
X132810000Y-228060000D02*
X132810000Y-222370000D01*
X129410000Y-218970000D02*
X129410000Y-218050000D01*
X133850000Y-229100000D02*
X132810000Y-228060000D01*
X129738214Y-219311000D02*
X129444735Y-219017521D01*
X131390000Y-218060000D02*
X129420000Y-218060000D01*
X132930000Y-232270000D02*
X133850000Y-231350000D01*
X131300000Y-232270000D02*
X132930000Y-232270000D01*
X129751000Y-219311000D02*
X129738214Y-219311000D01*
X129410000Y-217122500D02*
X129717500Y-217122500D01*
X129410000Y-218050000D02*
X129410000Y-217122500D01*
X129922500Y-216917500D02*
X129922500Y-216360000D01*
X133850000Y-231350000D02*
X133850000Y-229100000D01*
X131230000Y-215842500D02*
X131212500Y-215860000D01*
X129717500Y-217122500D02*
X129922500Y-216917500D01*
X132810000Y-222370000D02*
X129751000Y-219311000D01*
X129444735Y-219004735D02*
X129410000Y-218970000D01*
%TO.N,TX2*%
X117490000Y-208420000D02*
X115440000Y-208420000D01*
X46280000Y-240930000D02*
X46280000Y-242100000D01*
X45080000Y-230414552D02*
X45049000Y-230445552D01*
X47879000Y-215417400D02*
X46552600Y-215417400D01*
X45080000Y-235514552D02*
X45049000Y-235545552D01*
X45080000Y-216890000D02*
X45080000Y-230414552D01*
X45080000Y-232205448D02*
X45080000Y-235514552D01*
X45080000Y-239730000D02*
X46280000Y-240930000D01*
X45049000Y-232174448D02*
X45080000Y-232205448D01*
X46552600Y-215417400D02*
X45080000Y-216890000D01*
X45080000Y-237305448D02*
X45080000Y-239730000D01*
X119550000Y-208100000D02*
X117810000Y-208100000D01*
X45049000Y-237274448D02*
X45080000Y-237305448D01*
X45049000Y-230445552D02*
X45049000Y-232174448D01*
X117810000Y-208100000D02*
X117490000Y-208420000D01*
X45049000Y-235545552D02*
X45049000Y-237274448D01*
%TO.N,FORWARD_DETECT*%
X100830000Y-201750000D02*
X99962500Y-201750000D01*
X102050000Y-201750000D02*
X100830000Y-201750000D01*
X99962500Y-201750000D02*
X99812500Y-201900000D01*
%TO.N,F_PWM*%
X72240000Y-218540000D02*
X73230000Y-217550000D01*
X57105000Y-235360000D02*
X64140000Y-235360000D01*
X73230000Y-217550000D02*
X73230000Y-213410000D01*
X75359000Y-211281000D02*
X95819000Y-211281000D01*
X95819000Y-211281000D02*
X96540000Y-210560000D01*
X66210000Y-233290000D02*
X69060000Y-233290000D01*
X100680000Y-209150000D02*
X100900000Y-209370000D01*
X73230000Y-213410000D02*
X75359000Y-211281000D01*
X64980000Y-234520000D02*
X66210000Y-233290000D01*
X64250000Y-233790000D02*
X64980000Y-234520000D01*
X99910000Y-209150000D02*
X100680000Y-209150000D01*
X100900000Y-209370000D02*
X102050000Y-209370000D01*
X69060000Y-233290000D02*
X72240000Y-230110000D01*
X72240000Y-230110000D02*
X72240000Y-218540000D01*
X64140000Y-235360000D02*
X64980000Y-234520000D01*
X62985000Y-233790000D02*
X64250000Y-233790000D01*
%TO.N,Net-(Q2-G)*%
X56677500Y-241172500D02*
X56675000Y-241175000D01*
X56685000Y-241165000D02*
X56675000Y-241175000D01*
X56677500Y-239105000D02*
X56677500Y-241172500D01*
X56675000Y-239107500D02*
X56677500Y-239105000D01*
X57575000Y-239105000D02*
X57785000Y-239315000D01*
X56677500Y-239105000D02*
X57575000Y-239105000D01*
X57785000Y-239315000D02*
X62855000Y-239315000D01*
%TO.N,Net-(Q1-G)*%
X100440000Y-226805000D02*
X101245000Y-226805000D01*
X101245000Y-226805000D02*
X102000000Y-226050000D01*
X102000000Y-226050000D02*
X104715000Y-226050000D01*
%TO.N,{slash}HV_EN*%
X95530000Y-219040000D02*
X96390000Y-218180000D01*
X100610000Y-218180000D02*
X101340000Y-217450000D01*
X95520000Y-224770000D02*
X95520000Y-222295000D01*
X117990000Y-214450000D02*
X117380000Y-215060000D01*
X96390000Y-218180000D02*
X100610000Y-218180000D01*
X96630000Y-226805000D02*
X96630000Y-225880000D01*
X110160000Y-219620000D02*
X110160000Y-217490000D01*
X101340000Y-217450000D02*
X110120000Y-217450000D01*
X95530000Y-221200000D02*
X95530000Y-219040000D01*
X114500000Y-218000000D02*
X113950000Y-217450000D01*
X110160000Y-217490000D02*
X110120000Y-217450000D01*
X96630000Y-225880000D02*
X95520000Y-224770000D01*
X117380000Y-215060000D02*
X117380000Y-215100000D01*
X119550000Y-214450000D02*
X117990000Y-214450000D01*
X113950000Y-217450000D02*
X110120000Y-217450000D01*
%TO.N,Net-(R5-Pad2)*%
X107500000Y-223330000D02*
X109120000Y-221710000D01*
X109120000Y-221710000D02*
X110160000Y-221710000D01*
X99920000Y-223330000D02*
X107500000Y-223330000D01*
X98205000Y-224300000D02*
X98950000Y-224300000D01*
X98950000Y-224300000D02*
X99920000Y-223330000D01*
%TO.N,Net-(U6-FB)*%
X97900000Y-225600000D02*
X97600000Y-225300000D01*
X114140000Y-219630000D02*
X113600000Y-220170000D01*
X96420000Y-224870000D02*
X96420000Y-222120000D01*
X98204998Y-225295002D02*
X97900000Y-225600000D01*
X93375000Y-220525000D02*
X93375000Y-221760000D01*
X96420000Y-222120000D02*
X96060000Y-221760000D01*
X98540000Y-225295002D02*
X98204998Y-225295002D01*
X96060000Y-221760000D02*
X93375000Y-221760000D01*
X97900000Y-226805000D02*
X97900000Y-225600000D01*
X96850000Y-225300000D02*
X96420000Y-224870000D01*
X92630000Y-219780000D02*
X93375000Y-220525000D01*
X114815000Y-219630000D02*
X114140000Y-219630000D01*
X97600000Y-225300000D02*
X96850000Y-225300000D01*
X90630000Y-219780000D02*
X92630000Y-219780000D01*
%TO.N,HV_ADJ*%
X122120000Y-216800000D02*
X125580000Y-216800000D01*
X125580000Y-216800000D02*
X126069000Y-216311000D01*
X126059000Y-214011000D02*
X126730000Y-213340000D01*
X126069000Y-216311000D02*
X126059000Y-216301000D01*
X126730000Y-213322464D02*
X126728768Y-213321232D01*
X120320000Y-216560000D02*
X121880000Y-216560000D01*
X116640000Y-218460000D02*
X116660000Y-218440000D01*
X126059000Y-216301000D02*
X126059000Y-214011000D01*
X126730000Y-213340000D02*
X126730000Y-213322464D01*
X121880000Y-216560000D02*
X122120000Y-216800000D01*
X127740000Y-212310000D02*
X127756232Y-212293768D01*
X127740000Y-209512501D02*
X128187501Y-209065000D01*
X127740000Y-212310000D02*
X127740000Y-209512501D01*
X116640000Y-219630000D02*
X116640000Y-218460000D01*
X128187501Y-209065000D02*
X129000000Y-209065000D01*
%TO.N,F_ADJ*%
X82740000Y-210850000D02*
X95330000Y-210850000D01*
X128370000Y-210200000D02*
X128750000Y-210200000D01*
X128750000Y-210200000D02*
X129000000Y-209950000D01*
X73120000Y-212200000D02*
X74060000Y-211260000D01*
X95330000Y-210850000D02*
X96000000Y-210180000D01*
X74470000Y-210850000D02*
X82740000Y-210850000D01*
X129000000Y-209950000D02*
X129000000Y-209565000D01*
X96000000Y-210180000D02*
X95980000Y-210180000D01*
X72100000Y-212200000D02*
X73120000Y-212200000D01*
X74060000Y-211260000D02*
X74470000Y-210850000D01*
%TO.N,Net-(U5-FB)*%
X68450000Y-216960000D02*
X68090000Y-216600000D01*
X70270000Y-219880000D02*
X70270000Y-216960000D01*
X69225000Y-220925000D02*
X70270000Y-219880000D01*
X70270000Y-212205000D02*
X70275000Y-212200000D01*
X68090000Y-216600000D02*
X67200000Y-216600000D01*
X70270000Y-216960000D02*
X68450000Y-216960000D01*
X60550000Y-220925000D02*
X69225000Y-220925000D01*
X70270000Y-216960000D02*
X70270000Y-212205000D01*
%TO.N,Net-(U4-OUT)*%
X54830000Y-237260000D02*
X54830000Y-239082500D01*
X54830000Y-239082500D02*
X54852500Y-239105000D01*
%TO.N,/NEG_LDAC*%
X125920000Y-213050000D02*
X125920000Y-209390000D01*
X125456000Y-213514000D02*
X125920000Y-213050000D01*
X124771000Y-215509000D02*
X124771000Y-213514000D01*
X125595000Y-209065000D02*
X124775000Y-209065000D01*
X124771000Y-213514000D02*
X125456000Y-213514000D01*
X125920000Y-209390000D02*
X125595000Y-209065000D01*
%TO.N,Net-(U1-GPIO3{slash}ADC1_CH3)*%
X127990000Y-200770000D02*
X127995000Y-200775000D01*
X129070000Y-200775000D02*
X127995000Y-200775000D01*
X131150000Y-200820000D02*
X133240000Y-200820000D01*
X121020000Y-200480000D02*
X119550000Y-200480000D01*
X131105000Y-200775000D02*
X131150000Y-200820000D01*
X129070000Y-200775000D02*
X131105000Y-200775000D01*
X121020000Y-200480000D02*
X121070000Y-200430000D01*
%TO.N,F_EN*%
X92100000Y-205450000D02*
X92100000Y-206875000D01*
X63515000Y-219225000D02*
X63520000Y-219230000D01*
X101490000Y-204290000D02*
X100850000Y-203650000D01*
X93450000Y-207100000D02*
X93225000Y-206875000D01*
X93450000Y-210100000D02*
X93450000Y-207100000D01*
X93225000Y-206875000D02*
X92100000Y-206875000D01*
X102050000Y-204290000D02*
X101490000Y-204290000D01*
X93900000Y-203650000D02*
X92100000Y-205450000D01*
X100850000Y-203650000D02*
X93900000Y-203650000D01*
X60550000Y-219225000D02*
X63515000Y-219225000D01*
%TO.N,Net-(U1-GPIO18)*%
X116660000Y-214500000D02*
X117980000Y-213180000D01*
X90620083Y-224590083D02*
X90626355Y-224590083D01*
X90600000Y-224570000D02*
X90620083Y-224590083D01*
X89850000Y-225320000D02*
X90600000Y-224570000D01*
X89850000Y-226275000D02*
X89850000Y-225320000D01*
X117980000Y-213180000D02*
X119550000Y-213180000D01*
%TO.N,Net-(U1-GPIO20)*%
X88550000Y-224840000D02*
X89610000Y-223780000D01*
X118490000Y-210640000D02*
X119550000Y-210640000D01*
X115560000Y-213570000D02*
X118490000Y-210640000D01*
X88550000Y-226275000D02*
X88550000Y-224840000D01*
%TO.N,Net-(U1-GPIO19)*%
X116030000Y-213990000D02*
X116016534Y-213990000D01*
X116016534Y-213990000D02*
X116013518Y-213993016D01*
X89200000Y-226275000D02*
X89200000Y-225070000D01*
X90093224Y-224180000D02*
X90109346Y-224196122D01*
X90090000Y-224180000D02*
X90093224Y-224180000D01*
X89200000Y-225070000D02*
X90090000Y-224180000D01*
X118110000Y-211910000D02*
X119550000Y-211910000D01*
X116030000Y-213990000D02*
X118110000Y-211910000D01*
%TO.N,Net-(U1-EN{slash}CHIP_PU)*%
X90600000Y-202900000D02*
X90600000Y-200975000D01*
X92412500Y-200800000D02*
X92400000Y-200787500D01*
X92287500Y-200900000D02*
X92400000Y-200787500D01*
X90525000Y-200900000D02*
X92287500Y-200900000D01*
X93450000Y-200800000D02*
X92412500Y-200800000D01*
X102050000Y-200480000D02*
X100880000Y-200480000D01*
X90600000Y-200975000D02*
X90525000Y-200900000D01*
%TO.N,SDA*%
X124515000Y-199985000D02*
X124800000Y-199700000D01*
X109820000Y-210640000D02*
X114180000Y-206280000D01*
X126440000Y-209342900D02*
X125662100Y-208565000D01*
X124775000Y-208565000D02*
X123425000Y-208565000D01*
X114180000Y-206280000D02*
X115780000Y-206280000D01*
X122310000Y-207450000D02*
X122310000Y-206320000D01*
X102050000Y-210640000D02*
X109820000Y-210640000D01*
X124800000Y-199700000D02*
X124800000Y-198475000D01*
X115780000Y-206280000D02*
X115800000Y-206300000D01*
X124515000Y-201110000D02*
X123480000Y-201110000D01*
X125662100Y-208565000D02*
X124775000Y-208565000D01*
X122310000Y-201100000D02*
X122200000Y-200990000D01*
X124515000Y-201110000D02*
X124515000Y-199985000D01*
X122310000Y-206320000D02*
X122310000Y-201100000D01*
X126440000Y-212290000D02*
X126440000Y-209342900D01*
X127910000Y-213760000D02*
X126440000Y-212290000D01*
X123425000Y-208565000D02*
X122310000Y-207450000D01*
X127910000Y-214597500D02*
X127910000Y-213760000D01*
%TO.N,SCL*%
X122900000Y-203190000D02*
X122900000Y-198475000D01*
X115510000Y-206899910D02*
X114640090Y-206899910D01*
X122900000Y-206950000D02*
X122900000Y-207420000D01*
X124505000Y-203130000D02*
X122960000Y-203130000D01*
X122900000Y-206830000D02*
X122840000Y-206890000D01*
X122840000Y-206890000D02*
X122840000Y-206894910D01*
X128410000Y-213690000D02*
X126900000Y-212180000D01*
X126900000Y-209235800D02*
X125729200Y-208065000D01*
X114640090Y-206899910D02*
X109630000Y-211910000D01*
X122960000Y-203130000D02*
X122900000Y-203190000D01*
X123545000Y-208065000D02*
X124775000Y-208065000D01*
X128410000Y-214597500D02*
X128410000Y-213690000D01*
X109630000Y-211910000D02*
X102050000Y-211910000D01*
X122840000Y-206890000D02*
X122900000Y-206950000D01*
X122900000Y-206830000D02*
X122900000Y-203190000D01*
X125729200Y-208065000D02*
X124775000Y-208065000D01*
X122900000Y-207420000D02*
X123545000Y-208065000D01*
X126900000Y-212180000D02*
X126900000Y-209235800D01*
%TO.N,PD_INT*%
X128910000Y-212090000D02*
X128910000Y-214597500D01*
X128590000Y-211770000D02*
X128910000Y-212090000D01*
X121470000Y-205750000D02*
X121470000Y-208480000D01*
X119550000Y-204290000D02*
X120740000Y-204290000D01*
X121470000Y-208480000D02*
X122930000Y-209940000D01*
X120740000Y-204290000D02*
X121470000Y-205020000D01*
X121470000Y-205020000D02*
X121470000Y-205750000D01*
%TO.N,Net-(U1-GPIO21)*%
X87900000Y-226275000D02*
X87900000Y-224570000D01*
X87900000Y-224570000D02*
X89150000Y-223320000D01*
X115000000Y-213060000D02*
X118690000Y-209370000D01*
X115000000Y-213060000D02*
X114990000Y-213060000D01*
X118690000Y-209370000D02*
X119550000Y-209370000D01*
%TO.N,Net-(U13-VIN2)*%
X70174400Y-196224400D02*
X69069400Y-196224400D01*
D79*
X60340000Y-192940000D02*
X57992500Y-192940000D01*
D80*
X70537658Y-196733278D02*
X70537658Y-196587658D01*
D79*
X57992500Y-192940000D02*
X57980000Y-192927500D01*
D80*
X57950000Y-190580000D02*
X57950000Y-192897500D01*
X57950000Y-192897500D02*
X57980000Y-192927500D01*
X70537658Y-196587658D02*
X70174400Y-196224400D01*
D79*
X58897319Y-194589801D02*
X57980000Y-193672482D01*
X57980000Y-193672482D02*
X57980000Y-192927500D01*
%TO.N,Net-(D6-A)*%
D80*
X51343000Y-211582000D02*
X50749200Y-211582000D01*
X52862000Y-211140000D02*
X51785000Y-211140000D01*
X49809400Y-213415600D02*
X50749200Y-212475800D01*
X51785000Y-211140000D02*
X51343000Y-211582000D01*
X50749200Y-212475800D02*
X50749200Y-211582000D01*
X49809400Y-213871800D02*
X49809400Y-213415600D01*
%TO.N,Net-(D6-K)*%
X47249200Y-211582000D02*
X45110400Y-211582000D01*
X45110400Y-211582000D02*
X45085000Y-211556600D01*
%TO.N,Net-(F4-Pad1)*%
D78*
X66900000Y-194050000D02*
X66900000Y-194008000D01*
X68673600Y-195724400D02*
X68351400Y-195402200D01*
X66903600Y-195421374D02*
X66903600Y-194053600D01*
X66903600Y-194053600D02*
X66900000Y-194050000D01*
X67208000Y-193700000D02*
X68287500Y-193700000D01*
X67206626Y-195724400D02*
X66903600Y-195421374D01*
X67589400Y-195724400D02*
X67206626Y-195724400D01*
X68300000Y-193712500D02*
X68300000Y-193837500D01*
X69069400Y-195724400D02*
X68673600Y-195724400D01*
X68351400Y-194106800D02*
X68300000Y-194055400D01*
X68287500Y-193700000D02*
X68300000Y-193712500D01*
X66900000Y-194008000D02*
X67208000Y-193700000D01*
X68300000Y-194055400D02*
X68300000Y-193837500D01*
X68351400Y-195402200D02*
X68351400Y-194106800D01*
%TO.N,Net-(Q3-C)*%
D80*
X56900000Y-202275000D02*
X56900000Y-210800000D01*
X54737000Y-215011000D02*
X54737000Y-212090000D01*
X58050000Y-201125000D02*
X56900000Y-202275000D01*
X55610000Y-212090000D02*
X54737000Y-212090000D01*
X60525000Y-201125000D02*
X58050000Y-201125000D01*
X56900000Y-210800000D02*
X55610000Y-212090000D01*
%TO.N,Net-(U13-PR1)*%
X65270000Y-195977400D02*
X65290000Y-195997400D01*
X66101800Y-195997400D02*
X65290000Y-195997400D01*
X66828800Y-196724400D02*
X66101800Y-195997400D01*
X65270000Y-194382400D02*
X65270000Y-195977400D01*
X67589400Y-196724400D02*
X66828800Y-196724400D01*
%TO.N,VBUS_ABOVE_TRESHOLD*%
X73800000Y-198450000D02*
X74750000Y-199400000D01*
X69069400Y-195224400D02*
X69624400Y-195224400D01*
X71050000Y-195700000D02*
X72400000Y-197050000D01*
X70100000Y-195700000D02*
X71050000Y-195700000D01*
X76525000Y-200825000D02*
X77150000Y-201450000D01*
X103800000Y-207215000D02*
X103800000Y-206050000D01*
X103800000Y-206050000D02*
X103310000Y-205560000D01*
X70050000Y-195650000D02*
X70100000Y-195700000D01*
X76525000Y-199400000D02*
X76525000Y-200825000D01*
X74750000Y-199400000D02*
X76525000Y-199400000D01*
X69624400Y-195224400D02*
X70050000Y-195650000D01*
X103310000Y-205560000D02*
X102050000Y-205560000D01*
%TO.N,Net-(U13-MODE)*%
D79*
X76180000Y-197402500D02*
X79612500Y-197402500D01*
X73567500Y-197402500D02*
X76180000Y-197402500D01*
D78*
X69050000Y-199175000D02*
X68600000Y-199625000D01*
X67972174Y-196224400D02*
X67589400Y-196224400D01*
D79*
X79612500Y-197402500D02*
X81300000Y-199090000D01*
D80*
X65290000Y-197822400D02*
X65290000Y-198868600D01*
D79*
X71360000Y-199610000D02*
X73567500Y-197402500D01*
D78*
X69050000Y-197444200D02*
X69050000Y-199175000D01*
D79*
X68615000Y-199610000D02*
X71360000Y-199610000D01*
D80*
X66031400Y-199610000D02*
X68585000Y-199610000D01*
D78*
X69900800Y-198759200D02*
X69035000Y-199625000D01*
X68249800Y-196519800D02*
X68249800Y-196502026D01*
D79*
X69050000Y-200075000D02*
X68600000Y-199625000D01*
D78*
X69495800Y-196724400D02*
X69900800Y-197129400D01*
D80*
X65290000Y-198868600D02*
X66031400Y-199610000D01*
D79*
X67465000Y-202825000D02*
X69050000Y-201240000D01*
D78*
X68454400Y-196848600D02*
X69050000Y-197444200D01*
D79*
X69050000Y-201240000D02*
X69050000Y-200075000D01*
X81300000Y-199090000D02*
X81300000Y-201600000D01*
X76180000Y-192550000D02*
X76180000Y-197402500D01*
X68600000Y-199625000D02*
X68615000Y-199610000D01*
D78*
X68454400Y-196724400D02*
X68454400Y-196848600D01*
X69035000Y-199625000D02*
X68600000Y-199625000D01*
D79*
X60525000Y-202825000D02*
X67465000Y-202825000D01*
D78*
X68454400Y-196724400D02*
X68249800Y-196519800D01*
X69900800Y-197129400D02*
X69900800Y-198759200D01*
X69069400Y-196724400D02*
X68454400Y-196724400D01*
X68249800Y-196502026D02*
X67972174Y-196224400D01*
X69069400Y-196724400D02*
X69495800Y-196724400D01*
D80*
X68585000Y-199610000D02*
X68600000Y-199625000D01*
%TO.N,PRE_USB_D+*%
D82*
X118739732Y-216945500D02*
X120117000Y-218322768D01*
X120117000Y-218322768D02*
X120117000Y-218732999D01*
X115839732Y-216945500D02*
X118739732Y-216945500D01*
X103664501Y-213960500D02*
X112854732Y-213960500D01*
X119725000Y-219124999D02*
X119725000Y-219500000D01*
X103175001Y-214450000D02*
X103664501Y-213960500D01*
X102050000Y-214450000D02*
X103175001Y-214450000D01*
X112854732Y-213960500D02*
X115839732Y-216945500D01*
X120117000Y-218732999D02*
X119725000Y-219124999D01*
%TO.N,PRE_USB_D-*%
X102050000Y-213180000D02*
X103175001Y-213180000D01*
X115960268Y-216654500D02*
X118860268Y-216654500D01*
X103175001Y-213180000D02*
X103664501Y-213669500D01*
X112975268Y-213669500D02*
X115960268Y-216654500D01*
X103664501Y-213669500D02*
X112975268Y-213669500D01*
X118860268Y-216654500D02*
X120408000Y-218202232D01*
X120408000Y-218732999D02*
X120800000Y-219124999D01*
X120800000Y-219124999D02*
X120800000Y-219500000D01*
X120408000Y-218202232D02*
X120408000Y-218732999D01*
%TD*%
M02*
