M48
; DRILL file KiCad 10.0.1-1.fc44 date 2026-05-23T21:29:42
; FORMAT={-:-/ absolute / metric / decimal}
; #@! TF.CreationDate,2026-05-23T21:29:42+02:00
; #@! TF.GenerationSoftware,Kicad,Pcbnew,10.0.1-1.fc44
; #@! TF.FileFunction,Plated,1,4,PTH
FMAT,2
METRIC
; #@! TA.AperFunction,Plated,PTH,ViaDrill
T1C0.200
; #@! TA.AperFunction,Plated,PTH,ViaDrill
T2C0.400
; #@! TA.AperFunction,Plated,PTH,ComponentDrill
T3C0.400
; #@! TA.AperFunction,Plated,PTH,ComponentDrill
T4C0.600
; #@! TA.AperFunction,Plated,PTH,ViaDrill
T5C0.800
; #@! TA.AperFunction,Plated,PTH,ComponentDrill
T6C1.000
; #@! TA.AperFunction,Plated,PTH,ComponentDrill
T7C1.200
; #@! TA.AperFunction,Plated,PTH,ComponentDrill
T8C2.200
%
G90
G05
T1
X45.075Y-208.3
X47.879Y-214.01
X47.879Y-215.417
X47.904Y-214.7
X49.8Y-216.725
X51.8Y-215.025
X53.78Y-235.36
X54.075Y-213.05
X54.85Y-242.15
X55.15Y-190.6
X60.3Y-238.2
X60.6Y-236.3
X61.16Y-232.626
X63.2Y-195.25
X63.275Y-191.425
X63.515Y-219.225
X64.39Y-216.6
X65.3Y-191.4
X65.8Y-212.05
X67.589Y-195.149
X72.4Y-197.05
X73.8Y-198.45
X77.15Y-201.45
X77.655Y-213.695
X77.655Y-218.655
X79.45Y-199.4
X80.55Y-244.39
X81.13Y-235.18
X81.9Y-233.755
X81.91Y-248.17
X82.82Y-239.02
X83.7Y-243.1
X84.28Y-200.9
X84.73Y-198.8
X85.2Y-242.4
X85.9Y-239.35
X86.115Y-226.275
X86.14Y-232.01
X86.776Y-241.675
X87.82Y-219.78
X87.9Y-204.8
X89.035Y-240.299
X89.15Y-223.32
X89.61Y-223.78
X89.65Y-241.05
X90.109Y-224.196
X90.49Y-233.31
X90.626Y-224.59
X91.0Y-241.45
X91.135Y-226.275
X91.29Y-204.6
X91.4Y-227.9
X91.93Y-204.73
X92.075Y-210.05
X92.4Y-203.45
X92.5Y-229.71
X92.5Y-233.29
X92.545Y-243.19
X93.39Y-238.69
X93.45Y-200.8
X93.45Y-210.1
X93.55Y-229.6
X94.195Y-240.845
X95.085Y-243.065
X95.52Y-222.295
X95.53Y-221.2
X95.98Y-210.18
X96.54Y-210.56
X98.51Y-239.91
X98.525Y-204.7
X98.54Y-225.32
X98.6Y-243.51
X98.725Y-210.15
X99.32Y-235.16
X99.5Y-222.2
X99.91Y-209.175
X100.1Y-198.55
X100.825Y-201.75
X100.845Y-244.245
X100.88Y-200.48
X101.09Y-248.17
X101.35Y-225.82
X103.8Y-207.215
X104.655Y-234.705
X105.925Y-234.725
X106.34Y-206.0
X106.34Y-206.69
X107.2Y-234.7
X108.5Y-234.7
X109.3Y-201.6
X109.75Y-234.7
X113.45Y-218.6
X113.6Y-220.17
X114.5Y-218.0
X114.99Y-213.06
X115.38Y-207.74
X115.44Y-208.42
X115.51Y-206.9
X115.52Y-213.57
X115.8Y-206.3
X116.014Y-213.993
X116.66Y-214.5
X116.66Y-218.44
X117.38Y-215.1
X118.65Y-218.9
X119.5Y-242.98
X119.6Y-239.25
X120.32Y-216.56
X121.07Y-200.43
X121.18Y-230.16
X121.7Y-218.8
X121.71Y-201.6
X121.85Y-211.53
X121.864Y-213.514
X122.151Y-215.509
X122.31Y-201.1
X122.31Y-206.32
X122.9Y-195.2
X122.9Y-206.83
X122.93Y-209.94
X123.1Y-218.1
X123.48Y-201.11
X123.63Y-206.92
X123.8Y-199.6
X124.62Y-239.52
X124.8Y-195.2
X126.729Y-213.321
X126.75Y-215.6
X126.79Y-199.34
X126.8Y-195.59
X127.28Y-203.13
X127.35Y-201.1
X127.63Y-205.46
X127.725Y-207.565
X127.756Y-212.294
X127.8Y-202.42
X127.995Y-200.775
X128.37Y-210.2
X128.59Y-211.77
X128.66Y-215.86
X128.7Y-217.95
X128.8Y-218.77
X129.05Y-198.05
X129.05Y-205.3
X129.895Y-214.597
X129.963Y-218.793
X130.4Y-234.8
X130.401Y-233.767
X130.572Y-214.984
X131.15Y-198.06
X131.81Y-211.49
X133.327Y-219.987
T2
X70.538Y-196.733
X79.845Y-235.175
X94.65Y-225.6
X96.35Y-243.4
X96.355Y-235.075
X97.9Y-230.5
X98.15Y-235.4
X99.17Y-228.23
X99.17Y-230.59
X100.34Y-190.19
X100.34Y-190.98
X100.34Y-191.78
X100.34Y-192.58
X100.34Y-193.38
X100.34Y-194.23
X100.34Y-195.08
X100.34Y-195.88
X100.34Y-196.68
X100.5Y-235.0
X100.7Y-197.55
X103.2Y-197.94
X104.0Y-197.94
X104.8Y-197.94
X105.55Y-197.94
X106.35Y-197.94
X107.15Y-197.94
X107.95Y-197.94
X108.75Y-197.94
X109.5Y-197.94
X110.3Y-197.94
X111.05Y-197.94
X111.85Y-197.94
X112.65Y-197.94
X113.45Y-197.94
X114.25Y-197.94
X115.05Y-197.94
X115.85Y-197.94
X116.65Y-197.94
X117.355Y-234.905
X117.355Y-243.165
X117.45Y-197.94
X118.25Y-197.94
X119.6Y-234.8
X120.7Y-197.94
X121.335Y-197.485
X121.47Y-190.4
X121.47Y-191.2
X121.47Y-192.0
X121.47Y-192.8
X121.47Y-193.55
X121.47Y-194.35
X121.47Y-195.15
X121.47Y-195.93
X121.47Y-196.7
T3
X50.95Y-251.1
X51.433Y-249.933
X51.433Y-252.267
X52.6Y-249.45
X52.6Y-252.75
X53.767Y-249.933
X53.767Y-252.267
X54.25Y-251.1
X125.55Y-192.7
X126.033Y-191.533
X126.033Y-193.867
X127.2Y-191.05
X127.2Y-194.35
X128.367Y-191.533
X128.367Y-193.867
X128.85Y-192.7
T5
X48.0Y-229.2
X48.0Y-238.25
X51.375Y-204.525
X51.4Y-222.625
X51.68Y-195.207
X52.45Y-244.69
X54.6Y-233.28
X58.897Y-194.59
X59.1Y-199.0
X59.1Y-242.9
X62.855Y-242.785
X62.855Y-245.905
X63.3Y-199.35
X63.875Y-207.9
X64.1Y-226.8
X64.55Y-213.5
X65.054Y-204.525
X68.3Y-190.5
X68.68Y-219.1
X70.12Y-225.74
X72.97Y-192.55
X73.65Y-204.45
X79.59Y-212.785
X80.15Y-208.15
X80.92Y-192.68
X81.74Y-229.66
X81.835Y-219.1
X82.285Y-197.765
X82.4Y-208.55
X86.03Y-222.92
X88.155Y-215.065
X89.15Y-206.83
X96.734Y-193.227
X98.9Y-198.0
X100.345Y-220.908
X104.35Y-199.95
X107.15Y-218.5
X121.08Y-241.55
X121.4Y-234.25
X122.28Y-238.95
X123.55Y-249.8
X126.92Y-223.5
X127.88Y-244.55
X129.565Y-225.825
X129.652Y-236.42
X129.69Y-230.55
X137.049Y-204.53
T6
X41.2Y-242.1
X41.2Y-244.64
X41.24Y-193.48
X41.24Y-196.02
X43.74Y-242.1
X43.74Y-244.64
X43.78Y-193.48
X43.78Y-196.02
X46.28Y-242.1
X46.28Y-244.64
X46.32Y-193.48
X46.32Y-196.02
X132.0Y-193.46
X132.0Y-196.0
X132.0Y-242.1
X132.0Y-244.64
X134.54Y-193.46
X134.54Y-196.0
X134.54Y-242.1
X134.54Y-244.64
X137.08Y-193.46
X137.08Y-196.0
X137.08Y-242.1
X137.08Y-244.64
T7
X41.8Y-226.776
X41.8Y-230.526
X41.8Y-234.276
X41.9Y-200.326
X41.95Y-204.076
X41.95Y-207.826
X41.95Y-211.576
X60.65Y-251.476
X64.4Y-251.576
X68.15Y-251.576
X71.9Y-251.576
X75.65Y-251.576
X79.4Y-251.576
X83.15Y-251.576
X86.9Y-251.576
X90.65Y-251.576
X94.4Y-251.676
X98.15Y-251.726
X101.9Y-251.776
X105.65Y-251.776
X109.4Y-251.826
X113.15Y-251.876
X116.9Y-251.876
X135.8Y-207.876
X135.8Y-211.626
X135.8Y-215.376
X135.8Y-219.126
X135.8Y-222.876
X135.8Y-226.626
T8
X52.6Y-251.1
X127.2Y-192.7
T4
X131.35Y-229.7G85X132.45Y-229.7
G05
X131.35Y-238.34G85X132.45Y-238.34
G05
X135.7Y-229.7G85X136.5Y-229.7
G05
X135.7Y-238.34G85X136.5Y-238.34
G05
M30
