%TF.GenerationSoftware,KiCad,Pcbnew,10.0.1-1.fc44*%
%TF.CreationDate,2026-05-23T21:29:31+02:00*%
%TF.ProjectId,VFD-disp,5646442d-6469-4737-902e-6b696361645f,rev?*%
%TF.SameCoordinates,Original*%
%TF.FileFunction,Legend,Bot*%
%TF.FilePolarity,Positive*%
%FSLAX46Y46*%
G04 Gerber Fmt 4.6, Leading zero omitted, Abs format (unit mm)*
G04 Created by KiCad (PCBNEW 10.0.1-1.fc44) date 2026-05-23 21:29:31*
%MOMM*%
%LPD*%
G01*
G04 APERTURE LIST*
%ADD10C,0.150000*%
%ADD11C,0.120000*%
G04 APERTURE END LIST*
D10*
X129176189Y-248530819D02*
X129176189Y-247530819D01*
X128842856Y-247530819D02*
X128509523Y-248530819D01*
X128509523Y-248530819D02*
X128176190Y-247530819D01*
X127366666Y-248530819D02*
X127842856Y-248530819D01*
X127842856Y-248530819D02*
X127842856Y-247530819D01*
X127033332Y-248530819D02*
X127033332Y-247530819D01*
X127033332Y-247530819D02*
X126699999Y-248245104D01*
X126699999Y-248245104D02*
X126366666Y-247530819D01*
X126366666Y-247530819D02*
X126366666Y-248530819D01*
X125985713Y-247530819D02*
X125366666Y-247530819D01*
X125366666Y-247530819D02*
X125699999Y-247911771D01*
X125699999Y-247911771D02*
X125557142Y-247911771D01*
X125557142Y-247911771D02*
X125461904Y-247959390D01*
X125461904Y-247959390D02*
X125414285Y-248007009D01*
X125414285Y-248007009D02*
X125366666Y-248102247D01*
X125366666Y-248102247D02*
X125366666Y-248340342D01*
X125366666Y-248340342D02*
X125414285Y-248435580D01*
X125414285Y-248435580D02*
X125461904Y-248483200D01*
X125461904Y-248483200D02*
X125557142Y-248530819D01*
X125557142Y-248530819D02*
X125842856Y-248530819D01*
X125842856Y-248530819D02*
X125938094Y-248483200D01*
X125938094Y-248483200D02*
X125985713Y-248435580D01*
X124938094Y-248149866D02*
X124176190Y-248149866D01*
X123223809Y-247530819D02*
X123699999Y-247530819D01*
X123699999Y-247530819D02*
X123747618Y-248007009D01*
X123747618Y-248007009D02*
X123699999Y-247959390D01*
X123699999Y-247959390D02*
X123604761Y-247911771D01*
X123604761Y-247911771D02*
X123366666Y-247911771D01*
X123366666Y-247911771D02*
X123271428Y-247959390D01*
X123271428Y-247959390D02*
X123223809Y-248007009D01*
X123223809Y-248007009D02*
X123176190Y-248102247D01*
X123176190Y-248102247D02*
X123176190Y-248340342D01*
X123176190Y-248340342D02*
X123223809Y-248435580D01*
X123223809Y-248435580D02*
X123271428Y-248483200D01*
X123271428Y-248483200D02*
X123366666Y-248530819D01*
X123366666Y-248530819D02*
X123604761Y-248530819D01*
X123604761Y-248530819D02*
X123699999Y-248483200D01*
X123699999Y-248483200D02*
X123747618Y-248435580D01*
X122033333Y-247483200D02*
X122890475Y-248768914D01*
X121176190Y-248530819D02*
X121747618Y-248530819D01*
X121461904Y-248530819D02*
X121461904Y-247530819D01*
X121461904Y-247530819D02*
X121557142Y-247673676D01*
X121557142Y-247673676D02*
X121652380Y-247768914D01*
X121652380Y-247768914D02*
X121747618Y-247816533D01*
%TO.C,IVLM3-5/1*%
D11*
X48800000Y-226776000D02*
X41800000Y-226776000D01*
X48800000Y-230526000D02*
X41800000Y-230526000D01*
X48800000Y-234276000D02*
X41800000Y-234276000D01*
X48900000Y-200326000D02*
X41900000Y-200326000D01*
X48950000Y-204076000D02*
X41950000Y-204076000D01*
X48950000Y-207826000D02*
X41950000Y-207826000D01*
X48950000Y-211576000D02*
X41950000Y-211576000D01*
X60650000Y-244476000D02*
X60650000Y-251476000D01*
X64400000Y-244576000D02*
X64400000Y-251576000D01*
X68150000Y-244576000D02*
X68150000Y-251576000D01*
X71900000Y-244576000D02*
X71900000Y-251576000D01*
X75650000Y-244576000D02*
X75650000Y-251576000D01*
X79400000Y-244576000D02*
X79400000Y-251576000D01*
X83150000Y-244576000D02*
X83150000Y-251576000D01*
X86900000Y-244576000D02*
X86900000Y-251576000D01*
X90650000Y-244576000D02*
X90650000Y-251576000D01*
X94400000Y-244676000D02*
X94400000Y-251676000D01*
X98150000Y-244726000D02*
X98150000Y-251726000D01*
X101900000Y-244776000D02*
X101900000Y-251776000D01*
X105650000Y-244776000D02*
X105650000Y-251776000D01*
X109400000Y-244826000D02*
X109400000Y-251826000D01*
X113150000Y-244876000D02*
X113150000Y-251876000D01*
X116900000Y-244876000D02*
X116900000Y-251876000D01*
X128800000Y-207876000D02*
X135800000Y-207876000D01*
X128800000Y-211626000D02*
X135800000Y-211626000D01*
X128800000Y-215376000D02*
X135800000Y-215376000D01*
X128800000Y-219126000D02*
X135800000Y-219126000D01*
X128800000Y-222876000D02*
X135800000Y-222876000D01*
X128800000Y-226626000D02*
X135800000Y-226626000D01*
X58200000Y-204076000D02*
X60200000Y-204076000D01*
X60200000Y-209576000D01*
X58200000Y-209576000D01*
X58200000Y-204076000D01*
X58200000Y-211576000D02*
X60200000Y-211576000D01*
X60200000Y-217076000D01*
X58200000Y-217076000D01*
X58200000Y-211576000D01*
X58200000Y-219076000D02*
X60200000Y-219076000D01*
X60200000Y-224576000D01*
X58200000Y-224576000D01*
X58200000Y-219076000D01*
X58200000Y-227076000D02*
X60200000Y-227076000D01*
X60200000Y-232576000D01*
X58200000Y-232576000D01*
X58200000Y-227076000D01*
X58200000Y-234576000D02*
X60200000Y-234576000D01*
X60200000Y-240076000D01*
X58200000Y-240076000D01*
X58200000Y-234576000D01*
X61200000Y-204076000D02*
X63200000Y-204076000D01*
X63200000Y-209576000D01*
X61200000Y-209576000D01*
X61200000Y-204076000D01*
X61200000Y-211576000D02*
X63200000Y-211576000D01*
X63200000Y-217076000D01*
X61200000Y-217076000D01*
X61200000Y-211576000D01*
X61200000Y-219076000D02*
X63200000Y-219076000D01*
X63200000Y-224576000D01*
X61200000Y-224576000D01*
X61200000Y-219076000D01*
X61200000Y-227076000D02*
X63200000Y-227076000D01*
X63200000Y-232576000D01*
X61200000Y-232576000D01*
X61200000Y-227076000D01*
X61200000Y-234576000D02*
X63200000Y-234576000D01*
X63200000Y-240076000D01*
X61200000Y-240076000D01*
X61200000Y-234576000D01*
X64200000Y-204076000D02*
X66200000Y-204076000D01*
X66200000Y-209576000D01*
X64200000Y-209576000D01*
X64200000Y-204076000D01*
X64200000Y-211576000D02*
X66200000Y-211576000D01*
X66200000Y-217076000D01*
X64200000Y-217076000D01*
X64200000Y-211576000D01*
X64200000Y-219076000D02*
X66200000Y-219076000D01*
X66200000Y-224576000D01*
X64200000Y-224576000D01*
X64200000Y-219076000D01*
X64200000Y-227076000D02*
X66200000Y-227076000D01*
X66200000Y-232576000D01*
X64200000Y-232576000D01*
X64200000Y-227076000D01*
X64200000Y-234576000D02*
X66200000Y-234576000D01*
X66200000Y-240076000D01*
X64200000Y-240076000D01*
X64200000Y-234576000D01*
X67200000Y-204076000D02*
X69200000Y-204076000D01*
X69200000Y-209576000D01*
X67200000Y-209576000D01*
X67200000Y-204076000D01*
X67200000Y-211576000D02*
X69200000Y-211576000D01*
X69200000Y-217076000D01*
X67200000Y-217076000D01*
X67200000Y-211576000D01*
X67200000Y-219076000D02*
X69200000Y-219076000D01*
X69200000Y-224576000D01*
X67200000Y-224576000D01*
X67200000Y-219076000D01*
X67200000Y-227076000D02*
X69200000Y-227076000D01*
X69200000Y-232576000D01*
X67200000Y-232576000D01*
X67200000Y-227076000D01*
X67200000Y-234576000D02*
X69200000Y-234576000D01*
X69200000Y-240076000D01*
X67200000Y-240076000D01*
X67200000Y-234576000D01*
X70200000Y-204076000D02*
X72200000Y-204076000D01*
X72200000Y-209576000D01*
X70200000Y-209576000D01*
X70200000Y-204076000D01*
X70200000Y-211576000D02*
X72200000Y-211576000D01*
X72200000Y-217076000D01*
X70200000Y-217076000D01*
X70200000Y-211576000D01*
X70200000Y-219076000D02*
X72200000Y-219076000D01*
X72200000Y-224576000D01*
X70200000Y-224576000D01*
X70200000Y-219076000D01*
X70200000Y-227076000D02*
X72200000Y-227076000D01*
X72200000Y-232576000D01*
X70200000Y-232576000D01*
X70200000Y-227076000D01*
X70200000Y-234576000D02*
X72200000Y-234576000D01*
X72200000Y-240076000D01*
X70200000Y-240076000D01*
X70200000Y-234576000D01*
X73200000Y-204076000D02*
X75200000Y-204076000D01*
X75200000Y-209576000D01*
X73200000Y-209576000D01*
X73200000Y-204076000D01*
X73200000Y-211576000D02*
X75200000Y-211576000D01*
X75200000Y-217076000D01*
X73200000Y-217076000D01*
X73200000Y-211576000D01*
X73200000Y-219076000D02*
X75200000Y-219076000D01*
X75200000Y-224576000D01*
X73200000Y-224576000D01*
X73200000Y-219076000D01*
X73200000Y-227076000D02*
X75200000Y-227076000D01*
X75200000Y-232576000D01*
X73200000Y-232576000D01*
X73200000Y-227076000D01*
X73200000Y-234576000D02*
X75200000Y-234576000D01*
X75200000Y-240076000D01*
X73200000Y-240076000D01*
X73200000Y-234576000D01*
X76200000Y-204076000D02*
X78200000Y-204076000D01*
X78200000Y-209576000D01*
X76200000Y-209576000D01*
X76200000Y-204076000D01*
X76200000Y-211576000D02*
X78200000Y-211576000D01*
X78200000Y-217076000D01*
X76200000Y-217076000D01*
X76200000Y-211576000D01*
X76200000Y-219076000D02*
X78200000Y-219076000D01*
X78200000Y-224576000D01*
X76200000Y-224576000D01*
X76200000Y-219076000D01*
X76200000Y-227076000D02*
X78200000Y-227076000D01*
X78200000Y-232576000D01*
X76200000Y-232576000D01*
X76200000Y-227076000D01*
X76200000Y-234576000D02*
X78200000Y-234576000D01*
X78200000Y-240076000D01*
X76200000Y-240076000D01*
X76200000Y-234576000D01*
X79200000Y-204076000D02*
X81200000Y-204076000D01*
X81200000Y-209576000D01*
X79200000Y-209576000D01*
X79200000Y-204076000D01*
X79200000Y-211576000D02*
X81200000Y-211576000D01*
X81200000Y-217076000D01*
X79200000Y-217076000D01*
X79200000Y-211576000D01*
X79200000Y-219076000D02*
X81200000Y-219076000D01*
X81200000Y-224576000D01*
X79200000Y-224576000D01*
X79200000Y-219076000D01*
X79200000Y-227076000D02*
X81200000Y-227076000D01*
X81200000Y-232576000D01*
X79200000Y-232576000D01*
X79200000Y-227076000D01*
X79200000Y-234576000D02*
X81200000Y-234576000D01*
X81200000Y-240076000D01*
X79200000Y-240076000D01*
X79200000Y-234576000D01*
X82200000Y-204076000D02*
X84200000Y-204076000D01*
X84200000Y-209576000D01*
X82200000Y-209576000D01*
X82200000Y-204076000D01*
X82200000Y-211576000D02*
X84200000Y-211576000D01*
X84200000Y-217076000D01*
X82200000Y-217076000D01*
X82200000Y-211576000D01*
X82200000Y-219076000D02*
X84200000Y-219076000D01*
X84200000Y-224576000D01*
X82200000Y-224576000D01*
X82200000Y-219076000D01*
X82200000Y-227076000D02*
X84200000Y-227076000D01*
X84200000Y-232576000D01*
X82200000Y-232576000D01*
X82200000Y-227076000D01*
X82200000Y-234576000D02*
X84200000Y-234576000D01*
X84200000Y-240076000D01*
X82200000Y-240076000D01*
X82200000Y-234576000D01*
X85200000Y-204076000D02*
X87200000Y-204076000D01*
X87200000Y-209576000D01*
X85200000Y-209576000D01*
X85200000Y-204076000D01*
X85200000Y-211576000D02*
X87200000Y-211576000D01*
X87200000Y-217076000D01*
X85200000Y-217076000D01*
X85200000Y-211576000D01*
X85200000Y-219076000D02*
X87200000Y-219076000D01*
X87200000Y-224576000D01*
X85200000Y-224576000D01*
X85200000Y-219076000D01*
X85200000Y-227076000D02*
X87200000Y-227076000D01*
X87200000Y-232576000D01*
X85200000Y-232576000D01*
X85200000Y-227076000D01*
X85200000Y-234576000D02*
X87200000Y-234576000D01*
X87200000Y-240076000D01*
X85200000Y-240076000D01*
X85200000Y-234576000D01*
X88200000Y-204076000D02*
X90200000Y-204076000D01*
X90200000Y-209576000D01*
X88200000Y-209576000D01*
X88200000Y-204076000D01*
X88200000Y-211576000D02*
X90200000Y-211576000D01*
X90200000Y-217076000D01*
X88200000Y-217076000D01*
X88200000Y-211576000D01*
X88200000Y-219076000D02*
X90200000Y-219076000D01*
X90200000Y-224576000D01*
X88200000Y-224576000D01*
X88200000Y-219076000D01*
X88200000Y-227076000D02*
X90200000Y-227076000D01*
X90200000Y-232576000D01*
X88200000Y-232576000D01*
X88200000Y-227076000D01*
X88200000Y-234576000D02*
X90200000Y-234576000D01*
X90200000Y-240076000D01*
X88200000Y-240076000D01*
X88200000Y-234576000D01*
X91200000Y-204076000D02*
X93200000Y-204076000D01*
X93200000Y-209576000D01*
X91200000Y-209576000D01*
X91200000Y-204076000D01*
X91200000Y-211576000D02*
X93200000Y-211576000D01*
X93200000Y-217076000D01*
X91200000Y-217076000D01*
X91200000Y-211576000D01*
X91200000Y-219076000D02*
X93200000Y-219076000D01*
X93200000Y-224576000D01*
X91200000Y-224576000D01*
X91200000Y-219076000D01*
X91200000Y-227076000D02*
X93200000Y-227076000D01*
X93200000Y-232576000D01*
X91200000Y-232576000D01*
X91200000Y-227076000D01*
X91200000Y-234576000D02*
X93200000Y-234576000D01*
X93200000Y-240076000D01*
X91200000Y-240076000D01*
X91200000Y-234576000D01*
X94200000Y-204076000D02*
X96200000Y-204076000D01*
X96200000Y-209576000D01*
X94200000Y-209576000D01*
X94200000Y-204076000D01*
X94200000Y-211576000D02*
X96200000Y-211576000D01*
X96200000Y-217076000D01*
X94200000Y-217076000D01*
X94200000Y-211576000D01*
X94200000Y-219076000D02*
X96200000Y-219076000D01*
X96200000Y-224576000D01*
X94200000Y-224576000D01*
X94200000Y-219076000D01*
X94200000Y-227076000D02*
X96200000Y-227076000D01*
X96200000Y-232576000D01*
X94200000Y-232576000D01*
X94200000Y-227076000D01*
X94200000Y-234576000D02*
X96200000Y-234576000D01*
X96200000Y-240076000D01*
X94200000Y-240076000D01*
X94200000Y-234576000D01*
X97200000Y-204076000D02*
X99200000Y-204076000D01*
X99200000Y-209576000D01*
X97200000Y-209576000D01*
X97200000Y-204076000D01*
X97200000Y-211576000D02*
X99200000Y-211576000D01*
X99200000Y-217076000D01*
X97200000Y-217076000D01*
X97200000Y-211576000D01*
X97200000Y-219076000D02*
X99200000Y-219076000D01*
X99200000Y-224576000D01*
X97200000Y-224576000D01*
X97200000Y-219076000D01*
X97200000Y-227076000D02*
X99200000Y-227076000D01*
X99200000Y-232576000D01*
X97200000Y-232576000D01*
X97200000Y-227076000D01*
X97200000Y-234576000D02*
X99200000Y-234576000D01*
X99200000Y-240076000D01*
X97200000Y-240076000D01*
X97200000Y-234576000D01*
X100200000Y-204076000D02*
X102200000Y-204076000D01*
X102200000Y-209576000D01*
X100200000Y-209576000D01*
X100200000Y-204076000D01*
X100200000Y-211576000D02*
X102200000Y-211576000D01*
X102200000Y-217076000D01*
X100200000Y-217076000D01*
X100200000Y-211576000D01*
X100200000Y-219076000D02*
X102200000Y-219076000D01*
X102200000Y-224576000D01*
X100200000Y-224576000D01*
X100200000Y-219076000D01*
X100200000Y-227076000D02*
X102200000Y-227076000D01*
X102200000Y-232576000D01*
X100200000Y-232576000D01*
X100200000Y-227076000D01*
X100200000Y-234576000D02*
X102200000Y-234576000D01*
X102200000Y-240076000D01*
X100200000Y-240076000D01*
X100200000Y-234576000D01*
X103200000Y-204076000D02*
X105200000Y-204076000D01*
X105200000Y-209576000D01*
X103200000Y-209576000D01*
X103200000Y-204076000D01*
X103200000Y-211576000D02*
X105200000Y-211576000D01*
X105200000Y-217076000D01*
X103200000Y-217076000D01*
X103200000Y-211576000D01*
X103200000Y-219076000D02*
X105200000Y-219076000D01*
X105200000Y-224576000D01*
X103200000Y-224576000D01*
X103200000Y-219076000D01*
X103200000Y-227076000D02*
X105200000Y-227076000D01*
X105200000Y-232576000D01*
X103200000Y-232576000D01*
X103200000Y-227076000D01*
X103200000Y-234576000D02*
X105200000Y-234576000D01*
X105200000Y-240076000D01*
X103200000Y-240076000D01*
X103200000Y-234576000D01*
X106200000Y-204076000D02*
X108200000Y-204076000D01*
X108200000Y-209576000D01*
X106200000Y-209576000D01*
X106200000Y-204076000D01*
X106200000Y-211576000D02*
X108200000Y-211576000D01*
X108200000Y-217076000D01*
X106200000Y-217076000D01*
X106200000Y-211576000D01*
X106200000Y-219076000D02*
X108200000Y-219076000D01*
X108200000Y-224576000D01*
X106200000Y-224576000D01*
X106200000Y-219076000D01*
X106200000Y-227076000D02*
X108200000Y-227076000D01*
X108200000Y-232576000D01*
X106200000Y-232576000D01*
X106200000Y-227076000D01*
X106200000Y-234576000D02*
X108200000Y-234576000D01*
X108200000Y-240076000D01*
X106200000Y-240076000D01*
X106200000Y-234576000D01*
X109200000Y-204076000D02*
X111200000Y-204076000D01*
X111200000Y-209576000D01*
X109200000Y-209576000D01*
X109200000Y-204076000D01*
X109200000Y-211576000D02*
X111200000Y-211576000D01*
X111200000Y-217076000D01*
X109200000Y-217076000D01*
X109200000Y-211576000D01*
X109200000Y-219076000D02*
X111200000Y-219076000D01*
X111200000Y-224576000D01*
X109200000Y-224576000D01*
X109200000Y-219076000D01*
X109200000Y-227076000D02*
X111200000Y-227076000D01*
X111200000Y-232576000D01*
X109200000Y-232576000D01*
X109200000Y-227076000D01*
X109200000Y-234576000D02*
X111200000Y-234576000D01*
X111200000Y-240076000D01*
X109200000Y-240076000D01*
X109200000Y-234576000D01*
X112200000Y-204076000D02*
X114200000Y-204076000D01*
X114200000Y-209576000D01*
X112200000Y-209576000D01*
X112200000Y-204076000D01*
X112200000Y-211576000D02*
X114200000Y-211576000D01*
X114200000Y-217076000D01*
X112200000Y-217076000D01*
X112200000Y-211576000D01*
X112200000Y-219076000D02*
X114200000Y-219076000D01*
X114200000Y-224576000D01*
X112200000Y-224576000D01*
X112200000Y-219076000D01*
X112200000Y-227076000D02*
X114200000Y-227076000D01*
X114200000Y-232576000D01*
X112200000Y-232576000D01*
X112200000Y-227076000D01*
X112200000Y-234576000D02*
X114200000Y-234576000D01*
X114200000Y-240076000D01*
X112200000Y-240076000D01*
X112200000Y-234576000D01*
X115200000Y-204076000D02*
X117200000Y-204076000D01*
X117200000Y-209576000D01*
X115200000Y-209576000D01*
X115200000Y-204076000D01*
X115200000Y-211576000D02*
X117200000Y-211576000D01*
X117200000Y-217076000D01*
X115200000Y-217076000D01*
X115200000Y-211576000D01*
X115200000Y-219076000D02*
X117200000Y-219076000D01*
X117200000Y-224576000D01*
X115200000Y-224576000D01*
X115200000Y-219076000D01*
X115200000Y-227076000D02*
X117200000Y-227076000D01*
X117200000Y-232576000D01*
X115200000Y-232576000D01*
X115200000Y-227076000D01*
X115200000Y-234576000D02*
X117200000Y-234576000D01*
X117200000Y-240076000D01*
X115200000Y-240076000D01*
X115200000Y-234576000D01*
X118200000Y-204076000D02*
X120200000Y-204076000D01*
X120200000Y-209576000D01*
X118200000Y-209576000D01*
X118200000Y-204076000D01*
X118200000Y-211576000D02*
X120200000Y-211576000D01*
X120200000Y-217076000D01*
X118200000Y-217076000D01*
X118200000Y-211576000D01*
X118200000Y-219076000D02*
X120200000Y-219076000D01*
X120200000Y-224576000D01*
X118200000Y-224576000D01*
X118200000Y-219076000D01*
X118200000Y-227076000D02*
X120200000Y-227076000D01*
X120200000Y-232576000D01*
X118200000Y-232576000D01*
X118200000Y-227076000D01*
X118200000Y-234576000D02*
X120200000Y-234576000D01*
X120200000Y-240076000D01*
X118200000Y-240076000D01*
X118200000Y-234576000D01*
X48700000Y-198076000D02*
X128700000Y-198076000D01*
X128700000Y-245076000D01*
X48700000Y-245076000D01*
X48700000Y-198076000D01*
%TD*%
M02*
