%TF.GenerationSoftware,KiCad,Pcbnew,10.0.1-1.fc44*%
%TF.CreationDate,2026-05-23T21:29:30+02:00*%
%TF.ProjectId,VFD-disp,5646442d-6469-4737-902e-6b696361645f,rev?*%
%TF.SameCoordinates,Original*%
%TF.FileFunction,Paste,Top*%
%TF.FilePolarity,Positive*%
%FSLAX46Y46*%
G04 Gerber Fmt 4.6, Leading zero omitted, Abs format (unit mm)*
G04 Created by KiCad (PCBNEW 10.0.1-1.fc44) date 2026-05-23 21:29:30*
%MOMM*%
%LPD*%
G01*
G04 APERTURE LIST*
G04 Aperture macros list*
%AMRoundRect*
0 Rectangle with rounded corners*
0 $1 Rounding radius*
0 $2 $3 $4 $5 $6 $7 $8 $9 X,Y pos of 4 corners*
0 Add a 4 corners polygon primitive as box body*
4,1,4,$2,$3,$4,$5,$6,$7,$8,$9,$2,$3,0*
0 Add four circle primitives for the rounded corners*
1,1,$1+$1,$2,$3*
1,1,$1+$1,$4,$5*
1,1,$1+$1,$6,$7*
1,1,$1+$1,$8,$9*
0 Add four rect primitives between the rounded corners*
20,1,$1+$1,$2,$3,$4,$5,0*
20,1,$1+$1,$4,$5,$6,$7,0*
20,1,$1+$1,$6,$7,$8,$9,0*
20,1,$1+$1,$8,$9,$2,$3,0*%
G04 Aperture macros list end*
%ADD10RoundRect,0.250000X0.450000X-0.262500X0.450000X0.262500X-0.450000X0.262500X-0.450000X-0.262500X0*%
%ADD11R,2.790000X1.190000*%
%ADD12RoundRect,0.250000X-0.650000X-2.450000X0.650000X-2.450000X0.650000X2.450000X-0.650000X2.450000X0*%
%ADD13RoundRect,0.250000X0.262500X0.450000X-0.262500X0.450000X-0.262500X-0.450000X0.262500X-0.450000X0*%
%ADD14RoundRect,0.150000X-0.587500X-0.150000X0.587500X-0.150000X0.587500X0.150000X-0.587500X0.150000X0*%
%ADD15RoundRect,0.250000X1.000000X0.900000X-1.000000X0.900000X-1.000000X-0.900000X1.000000X-0.900000X0*%
%ADD16RoundRect,0.250000X0.475000X-0.250000X0.475000X0.250000X-0.475000X0.250000X-0.475000X-0.250000X0*%
%ADD17RoundRect,0.093750X0.093750X-0.156250X0.093750X0.156250X-0.093750X0.156250X-0.093750X-0.156250X0*%
%ADD18RoundRect,0.075000X0.075000X-0.250000X0.075000X0.250000X-0.075000X0.250000X-0.075000X-0.250000X0*%
%ADD19RoundRect,0.250000X-0.262500X-0.450000X0.262500X-0.450000X0.262500X0.450000X-0.262500X0.450000X0*%
%ADD20RoundRect,0.250000X-0.325000X-0.650000X0.325000X-0.650000X0.325000X0.650000X-0.325000X0.650000X0*%
%ADD21RoundRect,0.250000X0.250000X0.475000X-0.250000X0.475000X-0.250000X-0.475000X0.250000X-0.475000X0*%
%ADD22RoundRect,0.087500X-0.725000X-0.087500X0.725000X-0.087500X0.725000X0.087500X-0.725000X0.087500X0*%
%ADD23RoundRect,0.243750X0.456250X-0.243750X0.456250X0.243750X-0.456250X0.243750X-0.456250X-0.243750X0*%
%ADD24RoundRect,0.150000X0.150000X-0.512500X0.150000X0.512500X-0.150000X0.512500X-0.150000X-0.512500X0*%
%ADD25RoundRect,0.250000X-1.250000X-0.550000X1.250000X-0.550000X1.250000X0.550000X-1.250000X0.550000X0*%
%ADD26RoundRect,0.150000X0.512500X0.150000X-0.512500X0.150000X-0.512500X-0.150000X0.512500X-0.150000X0*%
%ADD27RoundRect,0.100000X-0.100000X0.637500X-0.100000X-0.637500X0.100000X-0.637500X0.100000X0.637500X0*%
%ADD28RoundRect,0.250000X-0.475000X0.250000X-0.475000X-0.250000X0.475000X-0.250000X0.475000X0.250000X0*%
%ADD29RoundRect,0.250000X0.900000X-1.000000X0.900000X1.000000X-0.900000X1.000000X-0.900000X-1.000000X0*%
%ADD30RoundRect,0.250000X-2.025000X-2.375000X2.025000X-2.375000X2.025000X2.375000X-2.025000X2.375000X0*%
%ADD31RoundRect,0.250000X-2.050000X-0.300000X2.050000X-0.300000X2.050000X0.300000X-2.050000X0.300000X0*%
%ADD32RoundRect,0.150000X-0.150000X0.875000X-0.150000X-0.875000X0.150000X-0.875000X0.150000X0.875000X0*%
%ADD33RoundRect,0.250000X-0.450000X0.262500X-0.450000X-0.262500X0.450000X-0.262500X0.450000X0.262500X0*%
%ADD34RoundRect,0.250000X-0.400000X-0.600000X0.400000X-0.600000X0.400000X0.600000X-0.400000X0.600000X0*%
%ADD35R,1.300000X1.550000*%
%ADD36RoundRect,0.150000X-0.150000X0.725000X-0.150000X-0.725000X0.150000X-0.725000X0.150000X0.725000X0*%
%ADD37RoundRect,0.250000X-0.550000X1.250000X-0.550000X-1.250000X0.550000X-1.250000X0.550000X1.250000X0*%
%ADD38RoundRect,0.250000X-0.250000X-0.475000X0.250000X-0.475000X0.250000X0.475000X-0.250000X0.475000X0*%
%ADD39R,3.500000X3.550000*%
%ADD40RoundRect,0.250000X0.785000X1.045000X-0.785000X1.045000X-0.785000X-1.045000X0.785000X-1.045000X0*%
%ADD41RoundRect,0.250000X1.250000X0.550000X-1.250000X0.550000X-1.250000X-0.550000X1.250000X-0.550000X0*%
%ADD42RoundRect,0.250000X2.450000X-0.650000X2.450000X0.650000X-2.450000X0.650000X-2.450000X-0.650000X0*%
%ADD43RoundRect,0.250000X2.050000X0.300000X-2.050000X0.300000X-2.050000X-0.300000X2.050000X-0.300000X0*%
%ADD44RoundRect,0.250000X2.025000X2.375000X-2.025000X2.375000X-2.025000X-2.375000X2.025000X-2.375000X0*%
%ADD45RoundRect,0.250000X-1.000000X-0.900000X1.000000X-0.900000X1.000000X0.900000X-1.000000X0.900000X0*%
%ADD46RoundRect,0.250000X0.650000X2.450000X-0.650000X2.450000X-0.650000X-2.450000X0.650000X-2.450000X0*%
%ADD47RoundRect,0.050000X-0.285000X-0.100000X0.285000X-0.100000X0.285000X0.100000X-0.285000X0.100000X0*%
%ADD48RoundRect,0.145000X0.145000X0.145000X-0.145000X0.145000X-0.145000X-0.145000X0.145000X-0.145000X0*%
%ADD49RoundRect,0.062500X0.275000X0.062500X-0.275000X0.062500X-0.275000X-0.062500X0.275000X-0.062500X0*%
%ADD50RoundRect,0.062500X0.062500X0.275000X-0.062500X0.275000X-0.062500X-0.275000X0.062500X-0.275000X0*%
%ADD51R,2.000000X4.500000*%
%ADD52RoundRect,0.250000X-0.850000X-0.350000X0.850000X-0.350000X0.850000X0.350000X-0.850000X0.350000X0*%
%ADD53RoundRect,0.250000X-1.275000X-1.125000X1.275000X-1.125000X1.275000X1.125000X-1.275000X1.125000X0*%
%ADD54RoundRect,0.175000X0.175000X0.325000X-0.175000X0.325000X-0.175000X-0.325000X0.175000X-0.325000X0*%
%ADD55RoundRect,0.150000X0.200000X0.150000X-0.200000X0.150000X-0.200000X-0.150000X0.200000X-0.150000X0*%
%ADD56RoundRect,0.250000X1.275000X1.125000X-1.275000X1.125000X-1.275000X-1.125000X1.275000X-1.125000X0*%
%ADD57RoundRect,0.250000X0.850000X0.350000X-0.850000X0.350000X-0.850000X-0.350000X0.850000X-0.350000X0*%
%ADD58R,3.550000X3.500000*%
%ADD59R,1.500000X0.900000*%
%ADD60R,0.800000X0.800000*%
%ADD61RoundRect,0.250000X-2.450000X0.650000X-2.450000X-0.650000X2.450000X-0.650000X2.450000X0.650000X0*%
%ADD62RoundRect,0.250000X1.025000X-0.787500X1.025000X0.787500X-1.025000X0.787500X-1.025000X-0.787500X0*%
%ADD63R,1.240000X0.600000*%
%ADD64R,1.240000X0.300000*%
G04 APERTURE END LIST*
D10*
%TO.C,R4*%
X94645000Y-228533400D03*
X94645000Y-226708400D03*
%TD*%
D11*
%TO.C,RV1*%
X75100000Y-219500000D03*
X70270000Y-216960000D03*
X75100000Y-214420000D03*
%TD*%
D10*
%TO.C,R1*%
X119390000Y-251885000D03*
X119390000Y-250060000D03*
%TD*%
D12*
%TO.C,C37*%
X78560000Y-229650000D03*
X83660000Y-229650000D03*
%TD*%
D10*
%TO.C,R19*%
X131120000Y-204330000D03*
X131120000Y-202505000D03*
%TD*%
D13*
%TO.C,R11*%
X56675000Y-241175000D03*
X54850000Y-241175000D03*
%TD*%
D14*
%TO.C,Q3*%
X52862000Y-211140000D03*
X52862000Y-213040000D03*
X54737000Y-212090000D03*
%TD*%
D15*
%TO.C,D2*%
X74650000Y-222940000D03*
X70350000Y-222940000D03*
%TD*%
D16*
%TO.C,C5*%
X94680000Y-232000000D03*
X94680000Y-230100000D03*
%TD*%
D17*
%TO.C,U8*%
X119725000Y-221200000D03*
D18*
X120262500Y-221275000D03*
D17*
X120800000Y-221200000D03*
X120800000Y-219500000D03*
D18*
X120262500Y-219425000D03*
D17*
X119725000Y-219500000D03*
%TD*%
D19*
%TO.C,R9*%
X70275000Y-212200000D03*
X72100000Y-212200000D03*
%TD*%
D20*
%TO.C,C39*%
X60340000Y-192940000D03*
X63290000Y-192940000D03*
%TD*%
D13*
%TO.C,R5*%
X111985000Y-221710000D03*
X110160000Y-221710000D03*
%TD*%
D21*
%TO.C,C12*%
X79555000Y-214992500D03*
X77655000Y-214992500D03*
%TD*%
D22*
%TO.C,U12*%
X124775000Y-207565000D03*
X124775000Y-208065000D03*
X124775000Y-208565000D03*
X124775000Y-209065000D03*
X124775000Y-209565000D03*
X129000000Y-209565000D03*
X129000000Y-209065000D03*
X129000000Y-208565000D03*
X129000000Y-208065000D03*
X129000000Y-207565000D03*
%TD*%
D23*
%TO.C,F4*%
X68300000Y-193837500D03*
X68300000Y-191962500D03*
%TD*%
D24*
%TO.C,U15*%
X122900000Y-198475000D03*
X123850000Y-198475000D03*
X124800000Y-198475000D03*
X124800000Y-196200000D03*
X122900000Y-196200000D03*
%TD*%
D25*
%TO.C,C7*%
X123350000Y-242000000D03*
X127750000Y-242000000D03*
%TD*%
D26*
%TO.C,U4*%
X57105000Y-237260000D03*
X57105000Y-236310000D03*
X57105000Y-235360000D03*
X54830000Y-235360000D03*
X54830000Y-237260000D03*
%TD*%
D16*
%TO.C,C19*%
X92500000Y-232350000D03*
X92500000Y-230450000D03*
%TD*%
D27*
%TO.C,U10*%
X90500000Y-226275000D03*
X89850000Y-226275000D03*
X89200000Y-226275000D03*
X88550000Y-226275000D03*
X87900000Y-226275000D03*
X87250000Y-226275000D03*
X86600000Y-226275000D03*
X86600000Y-232000000D03*
X87250000Y-232000000D03*
X87900000Y-232000000D03*
X88550000Y-232000000D03*
X89200000Y-232000000D03*
X89850000Y-232000000D03*
X90500000Y-232000000D03*
%TD*%
D28*
%TO.C,C15*%
X99950000Y-208250000D03*
X99950000Y-210150000D03*
%TD*%
D13*
%TO.C,R21*%
X96312500Y-201900000D03*
X94487500Y-201900000D03*
%TD*%
%TO.C,R16*%
X67200000Y-216600000D03*
X65375000Y-216600000D03*
%TD*%
D10*
%TO.C,R27*%
X65270000Y-194382400D03*
X65270000Y-192557400D03*
%TD*%
D13*
%TO.C,R6*%
X90630000Y-219780000D03*
X88805000Y-219780000D03*
%TD*%
D29*
%TO.C,D3*%
X65989200Y-223575000D03*
X65989200Y-219275000D03*
%TD*%
D19*
%TO.C,R10*%
X54852500Y-239105000D03*
X56677500Y-239105000D03*
%TD*%
D30*
%TO.C,Q2*%
X69580000Y-239080000D03*
X69580000Y-244630000D03*
X74430000Y-239080000D03*
X74430000Y-244630000D03*
D31*
X62855000Y-239315000D03*
X62855000Y-244395000D03*
%TD*%
D32*
%TO.C,HV5812WG1*%
X96355000Y-236750000D03*
X95084999Y-236750000D03*
X93815000Y-236750000D03*
X92545000Y-236750000D03*
X91275000Y-236749999D03*
X90005000Y-236750000D03*
X88735000Y-236750000D03*
X87465000Y-236750000D03*
X86195000Y-236750000D03*
X84925000Y-236749999D03*
X83655000Y-236750000D03*
X82385000Y-236750000D03*
X81115001Y-236750000D03*
X79845000Y-236750000D03*
X79845000Y-246050000D03*
X81115001Y-246050000D03*
X82385000Y-246050000D03*
X83655000Y-246050000D03*
X84925000Y-246050001D03*
X86195000Y-246050000D03*
X87465000Y-246050000D03*
X88735000Y-246050000D03*
X90005000Y-246050000D03*
X91275000Y-246050001D03*
X92545000Y-246050000D03*
X93815000Y-246050000D03*
X95084999Y-246050000D03*
X96355000Y-246050000D03*
%TD*%
D19*
%TO.C,R8*%
X114815000Y-219630000D03*
X116640000Y-219630000D03*
%TD*%
D30*
%TO.C,Q1*%
X111440000Y-225815000D03*
X111440000Y-231365000D03*
X116290000Y-225815000D03*
X116290000Y-231365000D03*
D31*
X104715000Y-226050000D03*
X104715000Y-231130000D03*
%TD*%
D33*
%TO.C,R24*%
X45085000Y-209731600D03*
X45085000Y-211556600D03*
%TD*%
D34*
%TO.C,D6*%
X47249200Y-211582000D03*
X50749200Y-211582000D03*
%TD*%
D25*
%TO.C,C24*%
X57800000Y-213500000D03*
X62200000Y-213500000D03*
%TD*%
%TO.C,C6*%
X102730000Y-220010000D03*
X107130000Y-220010000D03*
%TD*%
D19*
%TO.C,R7*%
X88700000Y-200900000D03*
X90525000Y-200900000D03*
%TD*%
D35*
%TO.C,SW1*%
X85900000Y-198800000D03*
X85900000Y-190850000D03*
X90400000Y-198800000D03*
X90400000Y-190850000D03*
%TD*%
D33*
%TO.C,R17*%
X92100000Y-206875000D03*
X92100000Y-208700000D03*
%TD*%
D16*
%TO.C,C35*%
X101030000Y-224240000D03*
X101030000Y-222340000D03*
%TD*%
D36*
%TO.C,U6*%
X100440000Y-226805000D03*
X99170000Y-226805000D03*
X97900000Y-226805000D03*
X96630000Y-226805000D03*
X96630000Y-231955000D03*
X97900000Y-231955000D03*
X99170000Y-231955000D03*
X100440000Y-231955000D03*
%TD*%
D28*
%TO.C,C33*%
X59160000Y-236310000D03*
X59160000Y-238210000D03*
%TD*%
D16*
%TO.C,C18*%
X131150000Y-200820000D03*
X131150000Y-198920000D03*
%TD*%
D23*
%TO.C,F1*%
X131300000Y-227700000D03*
X131300000Y-225825000D03*
%TD*%
D28*
%TO.C,C20*%
X62000000Y-229275000D03*
X62000000Y-231175000D03*
%TD*%
D21*
%TO.C,C11*%
X79555000Y-217292500D03*
X77655000Y-217292500D03*
%TD*%
D37*
%TO.C,C25*%
X81300000Y-201600000D03*
X81300000Y-206000000D03*
%TD*%
D13*
%TO.C,R41*%
X126330000Y-203130000D03*
X124505000Y-203130000D03*
%TD*%
D38*
%TO.C,C23*%
X63900000Y-210840000D03*
X65800000Y-210840000D03*
%TD*%
%TO.C,C36*%
X129910000Y-212840000D03*
X131810000Y-212840000D03*
%TD*%
D13*
%TO.C,R14*%
X124771000Y-215509000D03*
X122946000Y-215509000D03*
%TD*%
D39*
%TO.C,L1*%
X124210000Y-223500000D03*
X124210000Y-232450000D03*
%TD*%
D23*
%TO.C,F5*%
X127940000Y-253575000D03*
X127940000Y-251700000D03*
%TD*%
D13*
%TO.C,R28*%
X78350000Y-199400000D03*
X76525000Y-199400000D03*
%TD*%
%TO.C,R25*%
X96325000Y-199800000D03*
X94500000Y-199800000D03*
%TD*%
D40*
%TO.C,C34*%
X56440000Y-244700000D03*
X50200000Y-244700000D03*
%TD*%
D19*
%TO.C,R13*%
X122940000Y-211530000D03*
X124765000Y-211530000D03*
%TD*%
D13*
%TO.C,R31*%
X125950000Y-220150000D03*
X124125000Y-220150000D03*
%TD*%
D33*
%TO.C,R20*%
X129050000Y-202505000D03*
X129050000Y-204330000D03*
%TD*%
D25*
%TO.C,C22*%
X79160000Y-222930000D03*
X83560000Y-222930000D03*
%TD*%
D41*
%TO.C,C13*%
X89350000Y-208550000D03*
X84950000Y-208550000D03*
%TD*%
D42*
%TO.C,C14*%
X48000000Y-236410000D03*
X48000000Y-231310000D03*
%TD*%
D43*
%TO.C,U5*%
X60550000Y-226025000D03*
X60550000Y-224325000D03*
X60550000Y-222625000D03*
D44*
X53825000Y-225400000D03*
X53825000Y-219850000D03*
X48975000Y-225400000D03*
X48975000Y-219850000D03*
D43*
X60550000Y-220925000D03*
X60550000Y-219225000D03*
%TD*%
D33*
%TO.C,R15*%
X133240000Y-198995000D03*
X133240000Y-200820000D03*
%TD*%
D38*
%TO.C,C32*%
X131390000Y-218060000D03*
X133290000Y-218060000D03*
%TD*%
D19*
%TO.C,R32*%
X131400000Y-216050000D03*
X133225000Y-216050000D03*
%TD*%
D45*
%TO.C,D1*%
X122530000Y-236800000D03*
X126830000Y-236800000D03*
%TD*%
D46*
%TO.C,C9*%
X76180000Y-192550000D03*
X71080000Y-192550000D03*
%TD*%
D16*
%TO.C,C17*%
X126800000Y-198400000D03*
X126800000Y-196500000D03*
%TD*%
D13*
%TO.C,R40*%
X126340000Y-201110000D03*
X124515000Y-201110000D03*
%TD*%
%TO.C,R3*%
X111985000Y-219620000D03*
X110160000Y-219620000D03*
%TD*%
D39*
%TO.C,L4*%
X68600000Y-208575000D03*
X68600000Y-199625000D03*
%TD*%
D47*
%TO.C,U13*%
X67589400Y-195224400D03*
X67589400Y-195724400D03*
X67589400Y-196224400D03*
X67589400Y-196724400D03*
X69069400Y-196724400D03*
X69069400Y-196224400D03*
X69069400Y-195724400D03*
X69069400Y-195224400D03*
%TD*%
D48*
%TO.C,U2*%
X129020000Y-216220000D03*
X129020000Y-215500000D03*
X128300000Y-216220000D03*
X128300000Y-215500000D03*
D49*
X129922500Y-216360000D03*
X129922500Y-215860000D03*
X129922500Y-215360000D03*
D50*
X129410000Y-214597500D03*
X128910000Y-214597500D03*
X128410000Y-214597500D03*
X127910000Y-214597500D03*
D49*
X127397500Y-215360000D03*
X127397500Y-215860000D03*
X127397500Y-216360000D03*
D50*
X127910000Y-217122500D03*
X128410000Y-217122500D03*
X128910000Y-217122500D03*
X129410000Y-217122500D03*
%TD*%
D21*
%TO.C,C31*%
X125950000Y-218070000D03*
X124050000Y-218070000D03*
%TD*%
D38*
%TO.C,C40*%
X60330000Y-195270000D03*
X62230000Y-195270000D03*
%TD*%
D28*
%TO.C,C4*%
X119600000Y-236100000D03*
X119600000Y-238000000D03*
%TD*%
D51*
%TO.C,Y1*%
X96200000Y-207050000D03*
X96200000Y-215550000D03*
%TD*%
D19*
%TO.C,R2*%
X133925000Y-204510000D03*
X135750000Y-204510000D03*
%TD*%
D16*
%TO.C,C3*%
X119500000Y-246000000D03*
X119500000Y-244100000D03*
%TD*%
D20*
%TO.C,C38*%
X60330000Y-197510000D03*
X63280000Y-197510000D03*
%TD*%
D13*
%TO.C,R12*%
X62985000Y-233790000D03*
X61160000Y-233790000D03*
%TD*%
D41*
%TO.C,C21*%
X59000000Y-231425000D03*
X54600000Y-231425000D03*
%TD*%
D16*
%TO.C,C16*%
X99950000Y-206600000D03*
X99950000Y-204700000D03*
%TD*%
D21*
%TO.C,C27*%
X87150000Y-200900000D03*
X85250000Y-200900000D03*
%TD*%
D43*
%TO.C,U7*%
X60525000Y-207925000D03*
X60525000Y-206225000D03*
X60525000Y-204525000D03*
D44*
X53800000Y-207300000D03*
X53800000Y-201750000D03*
X48950000Y-207300000D03*
X48950000Y-201750000D03*
D43*
X60525000Y-202825000D03*
X60525000Y-201125000D03*
%TD*%
D11*
%TO.C,RV3*%
X98205000Y-224300000D03*
X93375000Y-221760000D03*
X98205000Y-219220000D03*
%TD*%
D16*
%TO.C,C1*%
X98600000Y-246950000D03*
X98600000Y-245050000D03*
%TD*%
D28*
%TO.C,C30*%
X92580000Y-225990000D03*
X92580000Y-227890000D03*
%TD*%
D38*
%TO.C,C29*%
X124770000Y-205460000D03*
X126670000Y-205460000D03*
%TD*%
D52*
%TO.C,U3*%
X81855000Y-212785000D03*
X81855000Y-215065000D03*
D53*
X86480000Y-213540000D03*
X86480000Y-216590000D03*
X89830000Y-213540000D03*
X89830000Y-216590000D03*
D52*
X81855000Y-217345000D03*
%TD*%
D19*
%TO.C,R30*%
X52912000Y-215011000D03*
X54737000Y-215011000D03*
%TD*%
D33*
%TO.C,R29*%
X49809400Y-213871800D03*
X49809400Y-215696800D03*
%TD*%
D19*
%TO.C,R22*%
X97987500Y-201900000D03*
X99812500Y-201900000D03*
%TD*%
D10*
%TO.C,R18*%
X129070000Y-200775000D03*
X129070000Y-198950000D03*
%TD*%
D32*
%TO.C,HV5812WG2*%
X117355000Y-236750000D03*
X116084999Y-236750000D03*
X114815000Y-236750000D03*
X113545000Y-236750000D03*
X112275000Y-236749999D03*
X111005000Y-236750000D03*
X109735000Y-236750000D03*
X108465000Y-236750000D03*
X107195000Y-236750000D03*
X105925000Y-236749999D03*
X104655000Y-236750000D03*
X103385000Y-236750000D03*
X102115001Y-236750000D03*
X100845000Y-236750000D03*
X100845000Y-246050000D03*
X102115001Y-246050000D03*
X103385000Y-246050000D03*
X104655000Y-246050000D03*
X105925000Y-246050001D03*
X107195000Y-246050000D03*
X108465000Y-246050000D03*
X109735000Y-246050000D03*
X111005000Y-246050000D03*
X112275000Y-246050001D03*
X113545000Y-246050000D03*
X114815000Y-246050000D03*
X116084999Y-246050000D03*
X117355000Y-246050000D03*
%TD*%
D54*
%TO.C,U11*%
X90600000Y-204600000D03*
D55*
X90600000Y-202900000D03*
X88600000Y-202900000D03*
X88600000Y-204800000D03*
%TD*%
D56*
%TO.C,U14*%
X53355000Y-196732500D03*
X53355000Y-193682500D03*
X50005000Y-196732500D03*
X50005000Y-193682500D03*
D57*
X57980000Y-197487500D03*
X57980000Y-192927500D03*
%TD*%
D58*
%TO.C,L3*%
X65970000Y-230510000D03*
X74920000Y-230510000D03*
%TD*%
D10*
%TO.C,R26*%
X92400000Y-202612500D03*
X92400000Y-200787500D03*
%TD*%
D42*
%TO.C,C10*%
X80920000Y-195800000D03*
X80920000Y-190700000D03*
%TD*%
D59*
%TO.C,U1*%
X102050000Y-197940000D03*
X102050000Y-199210000D03*
X102050000Y-200480000D03*
X102050000Y-201750000D03*
X102050000Y-203020000D03*
X102050000Y-204290000D03*
X102050000Y-205560000D03*
X102050000Y-206830000D03*
X102050000Y-208100000D03*
X102050000Y-209370000D03*
X102050000Y-210640000D03*
X102050000Y-211910000D03*
X102050000Y-213180000D03*
X102050000Y-214450000D03*
X119550000Y-214450000D03*
X119550000Y-213180000D03*
X119550000Y-211910000D03*
X119550000Y-210640000D03*
X119550000Y-209370000D03*
X119550000Y-208100000D03*
X119550000Y-206830000D03*
X119550000Y-205560000D03*
X119550000Y-204290000D03*
X119550000Y-203020000D03*
X119550000Y-201750000D03*
X119550000Y-200480000D03*
X119550000Y-199210000D03*
X119550000Y-197940000D03*
D60*
X108045000Y-202410000D03*
X108045000Y-203660000D03*
X108045000Y-204910000D03*
X109295000Y-202410000D03*
X109295000Y-203660000D03*
X109295000Y-204910000D03*
X110545000Y-202410000D03*
X110545000Y-203660000D03*
X110545000Y-204910000D03*
%TD*%
D19*
%TO.C,R44*%
X122946000Y-213514000D03*
X124771000Y-213514000D03*
%TD*%
D28*
%TO.C,C2*%
X98510000Y-236760000D03*
X98510000Y-238660000D03*
%TD*%
D61*
%TO.C,C8*%
X123550000Y-246600000D03*
X123550000Y-251700000D03*
%TD*%
D38*
%TO.C,C26*%
X97950000Y-199800000D03*
X99850000Y-199800000D03*
%TD*%
D21*
%TO.C,C41*%
X57950000Y-190580000D03*
X56050000Y-190580000D03*
%TD*%
D10*
%TO.C,R23*%
X65290000Y-197822400D03*
X65290000Y-195997400D03*
%TD*%
D62*
%TO.C,C28*%
X96733751Y-197330000D03*
X96733751Y-191105000D03*
%TD*%
D29*
%TO.C,D4*%
X76140000Y-209010000D03*
X76140000Y-204710000D03*
%TD*%
D63*
%TO.C,J1*%
X131300000Y-237220000D03*
X131300000Y-236420000D03*
D64*
X131300000Y-235270000D03*
X131300000Y-234270000D03*
X131300000Y-233770000D03*
X131300000Y-232770000D03*
D63*
X131300000Y-231620000D03*
X131300000Y-230820000D03*
X131300000Y-230820000D03*
X131300000Y-231620000D03*
D64*
X131300000Y-232270000D03*
X131300000Y-233270000D03*
X131300000Y-234770000D03*
X131300000Y-235770000D03*
D63*
X131300000Y-236420000D03*
X131300000Y-237220000D03*
%TD*%
M02*
